<?xml version="1.0" encoding="utf-8"?>
<!-- Generator: Adobe Illustrator 23.1.0, SVG Export Plug-In . SVG Version: 6.00 Build 0)  -->
<svg version="1.1" id="Layer_1" xmlns="http://www.w3.org/2000/svg" xmlns:xlink="http://www.w3.org/1999/xlink" x="0px" y="0px"
	 viewBox="0 0 24 24" style="enable-background:new 0 0 24 24;" xml:space="preserve">
<style type="text/css">
	.st0{fill:none;stroke:#FB625B;stroke-width:1.5;stroke-linecap:round;stroke-linejoin:round;}
</style>
<path class="st0" d="M12,23.3c6.2,0,11.3-5,11.3-11.3S18.2,0.8,12,0.8S0.8,5.8,0.8,12S5.8,23.3,12,23.3z"/>
<path class="st0" d="M14.5,18.5l-7.1-5.9c-0.2-0.1-0.3-0.4-0.3-0.6c0-0.2,0.1-0.4,0.3-0.6l7.1-5.9c0.2-0.2,0.5-0.2,0.8-0.1
	c0.3,0.1,0.4,0.4,0.4,0.7v2.2c0,0.5-0.2,0.9-0.6,1.2L12,12l3.2,2.6c0.4,0.3,0.6,0.7,0.6,1.2v2.2c0,0.3-0.2,0.6-0.4,0.7
	C15.1,18.7,14.7,18.7,14.5,18.5z"/>
</svg>
