<svg width="24" height="24" viewBox="0 0 24 24" fill="none" xmlns="http://www.w3.org/2000/svg">
<path d="M11.499 1C5.148 1 0 6.148 0 12.499C0 18.85 5.148 23.998 11.499 23.998C17.85 23.998 22.998 18.85 22.998 12.499C22.998 6.148 17.85 1 11.499 1ZM10.999 7C11 6.724 11.224 6.5 11.5 6.5C11.775 6.5 12 6.724 11.999 7V14C12 14.276 11.775 14.5 11.5 14.5C11.224 14.5 11 14.276 10.999 14V7ZM11.518 18.5C11.512 18.5 11.506 18.5 11.5 18.5C10.955 18.5 10.509 18.065 10.5 17.518C10.49 16.966 10.93 16.51 11.482 16.501C11.488 16.501 11.494 16.5 11.5 16.5C12.045 16.5 12.49 16.937 12.5 17.483C12.51 18.035 12.068 18.49 11.518 18.5Z" fill="#333333"/>
</svg>
