<svg width="24" height="24" viewBox="0 0 24 24" fill="none" xmlns="http://www.w3.org/2000/svg">
<path d="M23.5 18.5C23.5 19.604 22.605 20.5 21.5 20.5H2.5C1.395 20.5 0.5 19.604 0.5 18.5V4.5C0.5 3.396 1.395 2.5 2.5 2.5H21.5C22.605 2.5 23.5 3.396 23.5 4.5V18.5Z" stroke="#FB625B" stroke-miterlimit="10" stroke-linecap="round" stroke-linejoin="round"/>
<path d="M0.5 7.5H23.5" stroke="#FB625B" stroke-miterlimit="10" stroke-linecap="round" stroke-linejoin="round"/>
<path d="M4 5.5C4.27614 5.5 4.5 5.27614 4.5 5C4.5 4.72386 4.27614 4.5 4 4.5C3.72386 4.5 3.5 4.72386 3.5 5C3.5 5.27614 3.72386 5.5 4 5.5Z" stroke="#FB625B" stroke-miterlimit="10" stroke-linecap="round" stroke-linejoin="round"/>
<path d="M7 5.5C7.27614 5.5 7.5 5.27614 7.5 5C7.5 4.72386 7.27614 4.5 7 4.5C6.72386 4.5 6.5 4.72386 6.5 5C6.5 5.27614 6.72386 5.5 7 5.5Z" stroke="#FB625B" stroke-miterlimit="10" stroke-linecap="round" stroke-linejoin="round"/>
<path d="M10 5.5C10.2761 5.5 10.5 5.27614 10.5 5C10.5 4.72386 10.2761 4.5 10 4.5C9.72386 4.5 9.5 4.72386 9.5 5C9.5 5.27614 9.72386 5.5 10 5.5Z" stroke="#FB625B" stroke-miterlimit="10" stroke-linecap="round" stroke-linejoin="round"/>
</svg>
