<?xml version="1.0" encoding="utf-8"?>
<!-- Generator: Adobe Illustrator 23.1.0, SVG Export Plug-In . SVG Version: 6.00 Build 0)  -->
<svg version="1.1" id="Layer_1" xmlns="http://www.w3.org/2000/svg" xmlns:xlink="http://www.w3.org/1999/xlink" x="0px" y="0px"
	 viewBox="0 0 24 24" style="enable-background:new 0 0 24 24;" xml:space="preserve">
<style type="text/css">
	.st0{fill:none;stroke:#FB625B;stroke-width:1.5;stroke-linecap:round;stroke-linejoin:round;}
</style>
<path class="st0" d="M20.3,14.3l-5.2,1"/>
<path class="st0" d="M14.4,8.5l-3.5,1.1C10.4,9.8,9.8,9.5,9.5,9c-0.3-0.6,0-1.2,0.5-1.5l3.4-1.7c0.6-0.3,1.3-0.3,1.9-0.1l5,1.8"/>
<path class="st0" d="M3.7,14.3h2.4l3.5,3.9c0.4,0.4,1,0.6,1.5,0.4c0.5-0.2,0.9-0.7,0.9-1.3v-0.6l0.2,0.1c0.5,0.2,1.1,0.1,1.5-0.2
	c0.5-0.3,0.7-0.8,0.7-1.4h0.5c0.6,0,1.1-0.3,1.3-0.8c0.2-0.5,0.2-1.1-0.1-1.5L13,9"/>
<path class="st0" d="M10.6,7.2l-0.4-0.3C9.9,6.7,9.4,6.5,9,6.5c-0.3,0-0.5,0.1-0.8,0.2L3.8,8.5"/>
<path class="st0" d="M0.8,6.7h2c0.5,0,1,0.4,1,0.9v6.4c0,0.5-0.5,0.9-1,0.9h-2"/>
<path class="st0" d="M23.3,15h-2c-0.5,0-1-0.4-1-0.9V7.7c0-0.5,0.5-0.9,1-0.9h2"/>
<path class="st0" d="M12,16.8l-1-1"/>
<path class="st0" d="M14.4,15.3L13,13.9"/>
</svg>
