<?xml version="1.0" encoding="utf-8"?>
<!-- Generator: Adobe Illustrator 23.1.0, SVG Export Plug-In . SVG Version: 6.00 Build 0)  -->
<svg version="1.1" id="Layer_1" xmlns="http://www.w3.org/2000/svg" xmlns:xlink="http://www.w3.org/1999/xlink" x="0px" y="0px"
	 viewBox="0 0 25 24" style="enable-background:new 0 0 25 24;" xml:space="preserve">
<style type="text/css">
	.st0{fill:none;stroke:#FB625B;stroke-width:1.5;stroke-linecap:round;stroke-linejoin:round;}
</style>
<path class="st0" d="M5.6,20.3c1.4,0,2.6-1.2,2.6-2.6S7.1,15,5.6,15C4.2,15,3,16.2,3,17.6S4.2,20.3,5.6,20.3z"/>
<path class="st0" d="M9.5,23.3C8.7,21.9,7.2,21,5.6,21c-1.6,0-3.1,0.9-3.9,2.2"/>
<path class="st0" d="M20.4,20.3c1.4,0,2.6-1.2,2.6-2.6S21.8,15,20.4,15c-1.4,0-2.6,1.2-2.6,2.6S18.9,20.3,20.4,20.3z"/>
<path class="st0" d="M24.3,23.3C23.5,21.9,22,21,20.4,21s-3.1,0.9-3.9,2.2"/>
<path class="st0" d="M15.6,2.3H13c-0.6,0-1.2,0.5-1.3,1.1s0.2,1.3,0.8,1.5l2.7,0.8c0.6,0.2,0.9,0.9,0.8,1.5
	c-0.1,0.6-0.7,1.1-1.3,1.1h-3.2"/>
<path class="st0" d="M13.8,2.3V0.8"/>
<path class="st0" d="M13.8,9.8V8.3"/>
<path class="st0" d="M9.3,0.8h-3c-0.8,0-1.5,0.7-1.5,1.5v8.3c0,0.8,0.7,1.5,1.5,1.5h6v4.5l4.5-4.5h4.5c0.8,0,1.5-0.7,1.5-1.5V2.3
	c0-0.8-0.7-1.5-1.5-1.5H19"/>
</svg>
