<svg width="24" height="25" viewBox="0 0 24 25" fill="none" xmlns="http://www.w3.org/2000/svg">
<path fill-rule="evenodd" clip-rule="evenodd" d="M11.25 10.9691V10.1001C11.2498 9.80354 11.4033 9.52806 11.6556 9.37217C11.9078 9.21628 12.2229 9.20225 12.488 9.33509L18.277 12.2291C18.5669 12.3741 18.7499 12.6705 18.7499 12.9946C18.7499 13.3187 18.5669 13.615 18.277 13.7601L12.488 16.6541C12.2229 16.7869 11.9078 16.7729 11.6556 16.617C11.4033 16.4611 11.2498 16.1856 11.25 15.8891V15.0231L7.988 16.6581C7.72286 16.7909 7.40783 16.7769 7.15555 16.621C6.90328 16.4651 6.7498 16.1896 6.75 15.8931V10.1001C6.7498 9.80354 6.90328 9.52806 7.15555 9.37217C7.40783 9.21628 7.72286 9.20225 7.988 9.33509L11.25 10.9691Z" stroke="#FB625B" stroke-width="1.5" stroke-linecap="round" stroke-linejoin="round"/>
<path fill-rule="evenodd" clip-rule="evenodd" d="M12 24.248C18.2132 24.248 23.25 19.2113 23.25 12.998C23.25 6.78484 18.2132 1.74805 12 1.74805C5.7868 1.74805 0.75 6.78484 0.75 12.998C0.75 19.2113 5.7868 24.248 12 24.248Z" stroke="#FB625B" stroke-width="1.5" stroke-linecap="round" stroke-linejoin="round"/>
</svg>
