<svg width="24" height="24" viewBox="0 0 24 24" fill="none" xmlns="http://www.w3.org/2000/svg">
<path fill-rule="evenodd" clip-rule="evenodd" d="M17.25 18C18.0784 18 18.75 17.3284 18.75 16.5C18.75 15.6716 18.0784 15 17.25 15C16.4216 15 15.75 15.6716 15.75 16.5C15.75 17.3284 16.4216 18 17.25 18Z" stroke="#FB625B" stroke-width="1.5" stroke-linecap="round" stroke-linejoin="round"/>
<path fill-rule="evenodd" clip-rule="evenodd" d="M5.25 18C6.07843 18 6.75 17.3284 6.75 16.5C6.75 15.6716 6.07843 15 5.25 15C4.42157 15 3.75 15.6716 3.75 16.5C3.75 17.3284 4.42157 18 5.25 18Z" stroke="#FB625B" stroke-width="1.5" stroke-linecap="round" stroke-linejoin="round"/>
<path d="M15.75 16.5H6.75" stroke="#FB625B" stroke-width="1.5" stroke-linecap="round" stroke-linejoin="round"/>
<path d="M3.75001 16.5H2.25001C1.42158 16.5 0.750005 15.8284 0.750005 15V11.408C0.748885 10.8162 0.922849 10.2372 1.25001 9.744L3.75001 5.25H11.206C12.1747 5.25 13.0838 5.71778 13.647 6.506L16.5 10.5H19.959C21.4255 10.5001 22.677 11.5604 22.918 13.007L23.25 15C23.25 15.8284 22.5784 16.5 21.75 16.5H18.75" stroke="#FB625B" stroke-width="1.5" stroke-linecap="round" stroke-linejoin="round"/>
<path d="M16.5 10.5H0.891998" stroke="#FB625B" stroke-width="1.5" stroke-linecap="round" stroke-linejoin="round"/>
<path d="M6.75 5.25V10.5" stroke="#FB625B" stroke-width="1.5" stroke-linecap="round" stroke-linejoin="round"/>
<path d="M3.75 5.25H1.5" stroke="#FB625B" stroke-width="1.5" stroke-linecap="round" stroke-linejoin="round"/>
</svg>
