<svg width="24" height="24" viewBox="0 0 24 24" fill="none" xmlns="http://www.w3.org/2000/svg">
<path d="M2.75 10.25H21.25C21.7804 10.25 22.2891 10.4607 22.6642 10.8358C23.0393 11.2109 23.25 11.7196 23.25 12.25V16C23.25 16.2652 23.1446 16.5196 22.9571 16.7071C22.7696 16.8946 22.5152 17 22.25 17H1.75C1.48478 17 1.23043 16.8946 1.04289 16.7071C0.855357 16.5196 0.75 16.2652 0.75 16V12.25C0.75 11.7196 0.960714 11.2109 1.33579 10.8358C1.71086 10.4607 2.21957 10.25 2.75 10.25V10.25Z" stroke="#FB625B" stroke-width="1.5" stroke-linecap="round" stroke-linejoin="round"/>
<path d="M1.5 16.967V18.5C1.5 18.8978 1.65804 19.2794 1.93934 19.5607C2.22064 19.842 2.60218 20 3 20C3.39782 20 3.77936 19.842 4.06066 19.5607C4.34196 19.2794 4.5 18.8978 4.5 18.5V17" stroke="#FB625B" stroke-width="1.5" stroke-linecap="round" stroke-linejoin="round"/>
<path d="M22.5 16.967V18.5C22.5 18.8978 22.342 19.2794 22.0607 19.5607C21.7794 19.842 21.3978 20 21 20C20.6022 20 20.2206 19.842 19.9393 19.5607C19.658 19.2794 19.5 18.8978 19.5 18.5V17" stroke="#FB625B" stroke-width="1.5" stroke-linecap="round" stroke-linejoin="round"/>
<path d="M19.875 13.25C19.9745 13.25 20.0698 13.2895 20.1402 13.3598C20.2105 13.4302 20.25 13.5255 20.25 13.625" stroke="#FB625B" stroke-width="1.5" stroke-linecap="round" stroke-linejoin="round"/>
<path d="M19.5 13.625C19.5 13.5255 19.5395 13.4302 19.6098 13.3598C19.6802 13.2895 19.7755 13.25 19.875 13.25" stroke="#FB625B" stroke-width="1.5" stroke-linecap="round" stroke-linejoin="round"/>
<path d="M19.875 14C19.7755 14 19.6802 13.9605 19.6098 13.8902C19.5395 13.8198 19.5 13.7245 19.5 13.625" stroke="#FB625B" stroke-width="1.5" stroke-linecap="round" stroke-linejoin="round"/>
<path d="M20.25 13.625C20.25 13.7245 20.2105 13.8198 20.1402 13.8902C20.0698 13.9605 19.9745 14 19.875 14" stroke="#FB625B" stroke-width="1.5" stroke-linecap="round" stroke-linejoin="round"/>
<path d="M4.125 13.25C4.02554 13.25 3.93016 13.2895 3.85983 13.3598C3.78951 13.4302 3.75 13.5255 3.75 13.625" stroke="#FB625B" stroke-width="1.5" stroke-linecap="round" stroke-linejoin="round"/>
<path d="M4.5 13.625C4.5 13.5255 4.46049 13.4302 4.39016 13.3598C4.31984 13.2895 4.22446 13.25 4.125 13.25" stroke="#FB625B" stroke-width="1.5" stroke-linecap="round" stroke-linejoin="round"/>
<path d="M4.125 14C4.22446 14 4.31984 13.9605 4.39016 13.8902C4.46049 13.8198 4.5 13.7245 4.5 13.625" stroke="#FB625B" stroke-width="1.5" stroke-linecap="round" stroke-linejoin="round"/>
<path d="M3.75 13.625C3.75 13.7245 3.78951 13.8198 3.85983 13.8902C3.93016 13.9605 4.02554 14 4.125 14" stroke="#FB625B" stroke-width="1.5" stroke-linecap="round" stroke-linejoin="round"/>
<path d="M21 10.25L19.3 6.46C19.1393 6.03118 18.8516 5.66161 18.4753 5.40071C18.0989 5.13981 17.6519 5.00001 17.194 5H6.809C6.35056 4.9994 5.90288 5.13892 5.52595 5.39986C5.14902 5.6608 4.86083 6.0307 4.7 6.46L3 10.25" stroke="#FB625B" stroke-width="1.5" stroke-linecap="round" stroke-linejoin="round"/>
</svg>
