<svg width="24" height="24" viewBox="0 0 24 24" fill="none" xmlns="http://www.w3.org/2000/svg">
<path d="M0.75 14.25V23.25" stroke="#FB625B" stroke-width="1.5" stroke-linecap="round" stroke-linejoin="round"/>
<path d="M0.75 21.75H17.25C17.25 20.0931 15.9069 18.75 14.25 18.75H10.5C10.5 17.0931 9.15685 15.75 7.5 15.75H0.75" stroke="#FB625B" stroke-width="1.5" stroke-linecap="round" stroke-linejoin="round"/>
<path d="M6.75 18.75H10.5" stroke="#FB625B" stroke-width="1.5" stroke-linecap="round" stroke-linejoin="round"/>
<path d="M20.24 18.008C22.4611 16.3535 23.5853 13.6066 23.1616 10.8696C22.7378 8.13263 20.8354 5.85431 18.218 4.94899L20.071 1.77899C20.1954 1.56688 20.1954 1.3041 20.071 1.09199C19.942 0.87806 19.7098 0.74805 19.46 0.749991H12.04C11.7909 0.748758 11.5596 0.878675 11.431 1.09199C11.3066 1.3041 11.3066 1.56688 11.431 1.77899L13.284 4.94899C10.2766 5.98868 8.25665 8.81792 8.25 12" stroke="#FB625B" stroke-width="1.5" stroke-linecap="round" stroke-linejoin="round"/>
<path d="M13.7 13.844C14.1395 14.4213 14.833 14.7479 15.558 14.719C16.697 14.719 17.621 14.026 17.621 13.172C17.621 12.318 16.697 11.626 15.558 11.626C14.419 11.626 13.5 10.933 13.5 10.078C13.5 9.223 14.424 8.531 15.562 8.531C16.2871 8.50161 16.9808 8.82831 17.42 9.406" stroke="#FB625B" stroke-width="1.5" stroke-linecap="round" stroke-linejoin="round"/>
<path d="M15.562 14.719V15.75" stroke="#FB625B" stroke-width="1.5" stroke-linecap="round" stroke-linejoin="round"/>
<path d="M15.562 7.5V8.531" stroke="#FB625B" stroke-width="1.5" stroke-linecap="round" stroke-linejoin="round"/>
</svg>
