<svg width="24" height="24" viewBox="0 0 24 24" fill="none" xmlns="http://www.w3.org/2000/svg">
<g clip-path="url(#clip0)">
<path d="M6.75 9L10.044 13.611C10.1796 13.8008 10.3569 13.9571 10.5623 14.0676C10.7677 14.1782 10.9958 14.2403 11.2289 14.249C11.462 14.2576 11.694 14.2128 11.9071 14.1178C12.1202 14.0228 12.3086 13.8802 12.458 13.701L23.25 0.749001" stroke="#FB625B" stroke-width="1.5" stroke-linecap="round" stroke-linejoin="round"/>
<path d="M16.783 3.824C14.644 2.50028 12.1005 1.9895 9.61631 2.38481C7.13212 2.78012 4.87278 4.05519 3.25033 5.97746C1.62788 7.89974 0.750434 10.3412 0.778005 12.8564C0.805576 15.3717 1.73633 17.7933 3.40052 19.6796C5.06472 21.5658 7.35146 22.7911 9.84372 23.1318C12.336 23.4726 14.8677 22.9062 16.9772 21.5359C19.0866 20.1656 20.6332 18.0827 21.335 15.6672C22.0368 13.2516 21.8469 10.6642 20.8 8.377" stroke="#FB625B" stroke-width="1.5" stroke-linecap="round" stroke-linejoin="round"/>
</g>
<defs>
<clipPath id="clip0">
<rect width="24" height="24" fill="white"/>
</clipPath>
</defs>
</svg>
