<svg width="24" height="24" viewBox="0 0 24 24" fill="none" xmlns="http://www.w3.org/2000/svg">
<path d="M6.75 11.053L9.2 14.534C9.38884 14.8153 9.70177 14.9881 10.0404 14.9983C10.379 15.0084 10.7017 14.8545 10.907 14.585L18.75 4.658" stroke="#FB625B" stroke-width="1.5" stroke-linecap="round" stroke-linejoin="round"/>
<path fill-rule="evenodd" clip-rule="evenodd" d="M3 0.749C2.17157 0.749 1.5 1.42057 1.5 2.249V11.249C1.5 16.062 8.734 21.418 11.193 23.009C11.6834 23.3289 12.3166 23.3289 12.807 23.009C15.266 21.418 22.5 16.062 22.5 11.249V2.249C22.5 1.85118 22.342 1.46964 22.0607 1.18834C21.7794 0.907035 21.3978 0.749 21 0.749L3 0.749Z" stroke="#FB625B" stroke-width="1.5" stroke-linecap="round" stroke-linejoin="round"/>
</svg>
