<svg width="24" height="25" viewBox="0 0 24 25" fill="none" xmlns="http://www.w3.org/2000/svg">
<path fill-rule="evenodd" clip-rule="evenodd" d="M10.25 24.247L6.4 19.115C6.01012 18.5952 5.99009 17.886 6.35 17.345V17.345C6.58391 16.9948 6.95153 16.7561 7.36665 16.685C7.78176 16.6139 8.20785 16.7166 8.545 16.969L10.245 18.247V8.50001C10.245 8.10132 10.4037 7.71903 10.6861 7.43758C10.9685 7.15613 11.3513 6.99868 11.75 7.00001V7.00001C12.5784 7.00001 13.25 7.67158 13.25 8.50001V14.5L17.424 15.428C18.8968 15.7553 19.8975 17.1254 19.761 18.628L19.25 24.25L10.25 24.247Z" stroke="#FB625B" stroke-width="1.5" stroke-linecap="round" stroke-linejoin="round"/>
<path d="M6.5 14.5999C3.71787 11.8694 3.49131 7.46282 5.97874 4.4614C8.46617 1.45998 12.8382 0.864486 16.0377 3.09131C19.2373 5.31814 20.1975 9.62479 18.247 12.9999" stroke="#FB625B" stroke-width="1.5" stroke-linecap="round" stroke-linejoin="round"/>
</svg>
