<svg width="24" height="24" viewBox="0 0 24 24" fill="none" xmlns="http://www.w3.org/2000/svg">
<path fill-rule="evenodd" clip-rule="evenodd" d="M12 23.251C18.2132 23.251 23.25 18.2142 23.25 12.001C23.25 5.78777 18.2132 0.750977 12 0.750977C5.7868 0.750977 0.75 5.78777 0.75 12.001C0.75 18.2142 5.7868 23.251 12 23.251Z" stroke="#FB625B" stroke-width="1.5" stroke-linecap="round" stroke-linejoin="round"/>
<path fill-rule="evenodd" clip-rule="evenodd" d="M11.388 5.93887C11.6034 6.17698 11.9094 6.31284 12.2305 6.31284C12.5516 6.31284 12.8576 6.17698 13.073 5.93887L13.618 5.33887C13.9402 4.98273 14.4515 4.86768 14.8952 5.05148C15.3389 5.23528 15.619 5.67823 15.595 6.15787L15.553 6.96987C15.5364 7.2908 15.6567 7.60371 15.8839 7.83095C16.1112 8.05818 16.4241 8.17844 16.745 8.16187L17.557 8.11987C18.0366 8.09582 18.4796 8.37599 18.6634 8.81967C18.8472 9.26336 18.7321 9.77469 18.376 10.0969L17.776 10.6419C17.5379 10.8572 17.402 11.1633 17.402 11.4844C17.402 11.8054 17.5379 12.1115 17.776 12.3269L18.376 12.8719C18.7321 13.1941 18.8472 13.7054 18.6634 14.1491C18.4796 14.5928 18.0366 14.8729 17.557 14.8489L16.745 14.8069C16.4239 14.7903 16.1108 14.9107 15.8835 15.1381C15.6563 15.3656 15.5361 15.6788 15.553 15.9999L15.595 16.8119C15.619 17.2915 15.3389 17.7345 14.8952 17.9183C14.4515 18.1021 13.9402 17.987 13.618 17.6309L13.073 17.0309C12.8576 16.7928 12.5516 16.6569 12.2305 16.6569C11.9094 16.6569 11.6034 16.7928 11.388 17.0309L10.843 17.6309C10.5208 17.987 10.0095 18.1021 9.5658 17.9183C9.12212 17.7345 8.84195 17.2915 8.866 16.8119L8.908 15.9999C8.92692 15.6776 8.80771 15.3625 8.5802 15.1335C8.35268 14.9044 8.0384 14.7831 7.716 14.7999L6.904 14.8419C6.42435 14.8659 5.9814 14.5858 5.7976 14.1421C5.6138 13.6984 5.72886 13.1871 6.085 12.8649L6.685 12.3199C6.92311 12.1045 7.05897 11.7984 7.05897 11.4774C7.05897 11.1563 6.92311 10.8502 6.685 10.6349L6.085 10.0899C5.732 9.76769 5.6184 9.25903 5.80078 8.81729C5.98317 8.37554 6.42253 8.09518 6.9 8.11587L7.712 8.15787C8.0336 8.17561 8.3476 8.05588 8.57574 7.82851C8.80388 7.60113 8.92466 7.28754 8.908 6.96587L8.866 6.15387C8.84195 5.67423 9.12212 5.23128 9.5658 5.04748C10.0095 4.86368 10.5208 4.97873 10.843 5.33487L11.388 5.93887Z" stroke="#FB625B" stroke-width="1.5" stroke-linecap="round" stroke-linejoin="round"/>
<path fill-rule="evenodd" clip-rule="evenodd" d="M12.23 13.731C13.4726 13.731 14.48 12.7236 14.48 11.481C14.48 10.2383 13.4726 9.23096 12.23 9.23096C10.9874 9.23096 9.98 10.2383 9.98 11.481C9.98 12.7236 10.9874 13.731 12.23 13.731Z" stroke="#FB625B" stroke-width="1.5" stroke-linecap="round" stroke-linejoin="round"/>
</svg>
