<svg xmlns="http://www.w3.org/2000/svg" width="24" height="24" fill="none" viewBox="0 0 24 24">
    <g clip-path="url(#clip0)">
        <path fill="#FB625B" stroke="#FB625B" stroke-linecap="round" stroke-linejoin="round" stroke-width="1.5" d="M15.04 22.39l.012.007c1.062.676 2.323.97 3.575.833 1.251-.138 2.419-.698 3.309-1.588l.774-.774c.346-.346.54-.815.54-1.304 0-.49-.194-.959-.54-1.305L19.449 15c-.346-.346-.815-.54-1.305-.54-.489 0-.958.194-1.304.54v0c-.171.171-.375.307-.598.4-.224.093-.464.14-.706.14-.242 0-.482-.047-.706-.14-.224-.093-.427-.229-.598-.4L9.014 9.781c-.346-.346-.54-.815-.54-1.305 0-.489.194-.958.54-1.304v0c.171-.171.307-.374.4-.598.093-.224.14-.464.14-.706 0-.242-.047-.482-.14-.706-.093-.224-.229-.427-.4-.598L5.754 1.3C5.408.954 4.939.76 4.449.76c-.489 0-.958.194-1.304.54l-.774.774c-.89.89-1.45 2.058-1.588 3.31-.137 1.25.156 2.512.832 3.574l.008.012c3.573 5.29 8.128 9.845 13.417 13.42v0z"/>
    </g>
    <defs>
        <clipPath id="clip0">
            <path fill="#fff" d="M0 0H24V24H0z"/>
        </clipPath>
    </defs>
</svg>
