<svg width="24" height="24" viewBox="0 0 24 24" fill="none" xmlns="http://www.w3.org/2000/svg">
<path d="M12 4.5C5.648 4.5 0.5 9.649 0.5 16V20.5H23.5V16C23.5 9.649 18.352 4.5 12 4.5Z" stroke="#FB625B" stroke-miterlimit="10" stroke-linecap="round" stroke-linejoin="round"/>
<path d="M12 17.5C12.8284 17.5 13.5 16.8284 13.5 16C13.5 15.1716 12.8284 14.5 12 14.5C11.1716 14.5 10.5 15.1716 10.5 16C10.5 16.8284 11.1716 17.5 12 17.5Z" stroke="#FB625B" stroke-miterlimit="10" stroke-linecap="round" stroke-linejoin="round"/>
<path d="M13.061 14.939L18.011 9.99" stroke="#FB625B" stroke-miterlimit="10" stroke-linecap="round" stroke-linejoin="round"/>
<path d="M2.5 16.5H4.5" stroke="#FB625B" stroke-miterlimit="10" stroke-linecap="round" stroke-linejoin="round"/>
<path d="M21.5 16.5H19.5" stroke="#FB625B" stroke-miterlimit="10" stroke-linecap="round" stroke-linejoin="round"/>
<path d="M20.776 12.365L18.929 13.13" stroke="#FB625B" stroke-miterlimit="10" stroke-linecap="round" stroke-linejoin="round"/>
<path d="M15.635 7.223L14.87 9.071" stroke="#FB625B" stroke-miterlimit="10" stroke-linecap="round" stroke-linejoin="round"/>
<path d="M12 6.5V8.5" stroke="#FB625B" stroke-miterlimit="10" stroke-linecap="round" stroke-linejoin="round"/>
<path d="M8.36499 7.223L9.12999 9.071" stroke="#FB625B" stroke-miterlimit="10" stroke-linecap="round" stroke-linejoin="round"/>
<path d="M5.28299 9.282L6.69499 10.697" stroke="#FB625B" stroke-miterlimit="10" stroke-linecap="round" stroke-linejoin="round"/>
<path d="M3.224 12.365L5.07 13.13" stroke="#FB625B" stroke-miterlimit="10" stroke-linecap="round" stroke-linejoin="round"/>
</svg>
