<svg width="24" height="25" viewBox="0 0 24 25" fill="none" xmlns="http://www.w3.org/2000/svg">
<path d="M22.5 17.248V12.748H18" stroke="#FB625B" stroke-width="1.5" stroke-linecap="round" stroke-linejoin="round"/>
<path d="M22.5 12.748L17.45 17.8C16.8648 18.385 16.0058 18.602 15.213 18.365L9.5 16.837C8.72384 16.6298 7.8961 16.852 7.328 17.42L1.5 23.252" stroke="#FB625B" stroke-width="1.5" stroke-linecap="round" stroke-linejoin="round"/>
<path d="M12 5.252H9.967C9.32438 5.25245 8.77227 5.70839 8.65032 6.33934C8.52838 6.97028 8.87083 7.59912 9.467 7.839L11.531 8.664C12.1286 8.90304 12.4723 9.53265 12.3502 10.1646C12.2281 10.7965 11.6746 11.2527 11.031 11.252H9" stroke="#FB625B" stroke-width="1.5" stroke-linecap="round" stroke-linejoin="round"/>
<path d="M10.5 5.252V4.502" stroke="#FB625B" stroke-width="1.5" stroke-linecap="round" stroke-linejoin="round"/>
<path d="M10.5 12.002V11.252" stroke="#FB625B" stroke-width="1.5" stroke-linecap="round" stroke-linejoin="round"/>
<path d="M17.852 9.737C18.5878 6.09579 16.5472 2.46458 13.0544 1.19964C9.56163 -0.0652927 5.66911 1.41723 3.90272 4.6852C2.13634 7.95318 3.02837 12.0218 6 14.251" stroke="#FB625B" stroke-width="1.5" stroke-linecap="round" stroke-linejoin="round"/>
</svg>
