<svg width="24" height="24" viewBox="0 0 24 24" fill="none" xmlns="http://www.w3.org/2000/svg">
<path d="M22.5 18.75V23.25H18" stroke="#FB625B" stroke-width="1.5" stroke-linecap="round" stroke-linejoin="round"/>
<path d="M22.5 23.25L17.45 18.2C16.8648 17.615 16.0058 17.398 15.213 17.635L9.5 19.161C8.72402 19.3688 7.8961 19.147 7.328 18.579L1.5 12.746" stroke="#FB625B" stroke-width="1.5" stroke-linecap="round" stroke-linejoin="round"/>
<path d="M3.148 9.739C2.4122 6.09779 4.45275 2.46658 7.94556 1.20164C11.4384 -0.0632938 15.3309 1.41923 17.0973 4.6872C18.8637 7.95518 17.9716 12.0238 15 14.253" stroke="#FB625B" stroke-width="1.5" stroke-linecap="round" stroke-linejoin="round"/>
<path d="M12 5.254H9.967C9.32438 5.25445 8.77227 5.71039 8.65032 6.34134C8.52838 6.97228 8.87083 7.60112 9.467 7.841L11.531 8.666C12.1286 8.90504 12.4723 9.53465 12.3502 10.1666C12.2281 10.7985 11.6746 11.2547 11.031 11.254H9" stroke="#FB625B" stroke-width="1.5" stroke-linecap="round" stroke-linejoin="round"/>
<path d="M10.5 5.254V4.504" stroke="#FB625B" stroke-width="1.5" stroke-linecap="round" stroke-linejoin="round"/>
<path d="M10.5 12.004V11.254" stroke="#FB625B" stroke-width="1.5" stroke-linecap="round" stroke-linejoin="round"/>
</svg>
