<?xml version="1.0" encoding="utf-8"?>
<!-- Generator: Adobe Illustrator 23.1.0, SVG Export Plug-In . SVG Version: 6.00 Build 0)  -->
<svg version="1.1" id="Layer_1" xmlns="http://www.w3.org/2000/svg" xmlns:xlink="http://www.w3.org/1999/xlink" x="0px" y="0px"
	 viewBox="0 0 24 24" style="enable-background:new 0 0 24 24;" xml:space="preserve">
<style type="text/css">
	.st0{fill:none;stroke:#FB625B;stroke-width:1.5;stroke-linecap:round;stroke-linejoin:round;}
</style>
<g id="Health-Beauty__x2F__Destistry__x2F__dentistry-tooth">
	<g id="Group_148">
		<g id="Regular_148">
			<path id="Shape_802" class="st0" d="M20,13.2c1.4-1.9,2.3-4.1,2.5-6.4c0-2.5-1.6-4.7-3.9-5.6S13.7,0.9,12,2.7
				c-1.7-1.8-4.3-2.4-6.6-1.5S1.5,4.3,1.5,6.7c0.2,2.3,1,4.6,2.5,6.4c0.3,0.4,0.4,1,0.2,1.5c-0.5,1.1-2.1,8.6,1,8.6
				c2.9,0,0.3-6,6.5-6h0.8c6.2,0,3.5,6,6.5,6c3.1,0,1.5-7.5,1-8.6C19.6,14.2,19.7,13.6,20,13.2z"/>
		</g>
	</g>
</g>
</svg>
