<svg width="24" height="24" viewBox="0 0 24 24" fill="none" xmlns="http://www.w3.org/2000/svg">
<path d="M19.875 15.75C19.6679 15.75 19.5 15.9179 19.5 16.125C19.5 16.3321 19.6679 16.5 19.875 16.5C20.0821 16.5 20.25 16.3321 20.25 16.125C20.25 15.9179 20.0821 15.75 19.875 15.75V15.75" stroke="#FB625B" stroke-width="1.5" stroke-linecap="round" stroke-linejoin="round"/>
<path fill-rule="evenodd" clip-rule="evenodd" d="M0.75 6C0.75 5.17157 1.42157 4.5 2.25 4.5H14.25C15.0784 4.5 15.75 5.17157 15.75 6V15C15.75 15.8284 15.0784 16.5 14.25 16.5H2.25C1.42157 16.5 0.75 15.8284 0.75 15V6Z" stroke="#FB625B" stroke-width="1.5" stroke-linecap="round" stroke-linejoin="round"/>
<path d="M18.75 6.75H21.75C22.5784 6.75 23.25 7.42157 23.25 8.25V18C23.25 18.8284 22.5784 19.5 21.75 19.5H17.25" stroke="#FB625B" stroke-width="1.5" stroke-linecap="round" stroke-linejoin="round"/>
<path d="M8.25 16.5V19.5" stroke="#FB625B" stroke-width="1.5" stroke-linecap="round" stroke-linejoin="round"/>
<path d="M5.25 19.5H11.25" stroke="#FB625B" stroke-width="1.5" stroke-linecap="round" stroke-linejoin="round"/>
<path d="M18.75 9.75H23.25" stroke="#FB625B" stroke-width="1.5" stroke-linecap="round" stroke-linejoin="round"/>
<path d="M18.75 12.75H23.25" stroke="#FB625B" stroke-width="1.5" stroke-linecap="round" stroke-linejoin="round"/>
</svg>
