<svg width="24" height="24" viewBox="0 0 24 24" fill="none" xmlns="http://www.w3.org/2000/svg">
<path d="M19.237 3.225C19.0973 3.03871 18.9161 2.8875 18.7078 2.78336C18.4995 2.67922 18.2699 2.625 18.037 2.625H6.03699C5.80412 2.625 5.57445 2.67922 5.36617 2.78336C5.15789 2.8875 4.97671 3.03871 4.83699 3.225L1.49999 7.676C1.29748 7.94619 1.19205 8.2768 1.20076 8.61434C1.20947 8.95189 1.33181 9.27662 1.54799 9.536L10.886 20.836C11.0268 21.0041 11.2027 21.1393 11.4014 21.2321C11.6001 21.3249 11.8167 21.3729 12.036 21.3729C12.2553 21.3729 12.4719 21.3249 12.6706 21.2321C12.8693 21.1393 13.0452 21.0041 13.186 20.836L22.524 9.536C22.7402 9.27662 22.8625 8.95189 22.8712 8.61434C22.8799 8.2768 22.7745 7.94619 22.572 7.676L19.237 3.225Z" stroke="#FB625B" stroke-width="1.5" stroke-linecap="round" stroke-linejoin="round"/>
<path d="M5.349 2.79201L12.037 21.375" stroke="#FB625B" stroke-width="1.5" stroke-linecap="round" stroke-linejoin="round"/>
<path d="M18.724 2.79201L12.037 21.375" stroke="#FB625B" stroke-width="1.5" stroke-linecap="round" stroke-linejoin="round"/>
<path d="M1.198 8.625H22.871" stroke="#FB625B" stroke-width="1.5" stroke-linecap="round" stroke-linejoin="round"/>
<path d="M7.53699 8.625L12.037 2.625L16.537 8.625" stroke="#FB625B" stroke-width="1.5" stroke-linecap="round" stroke-linejoin="round"/>
</svg>
