<svg width="24" height="24" viewBox="0 0 24 24" fill="none" xmlns="http://www.w3.org/2000/svg">
<path d="M4.409 7.08501C5.85874 7.08501 7.034 5.90975 7.034 4.46001C7.034 3.01026 5.85874 1.83501 4.409 1.83501C2.95925 1.83501 1.784 3.01026 1.784 4.46001C1.784 5.90975 2.95925 7.08501 4.409 7.08501Z" stroke="#FB625B" stroke-width="1.5" stroke-linecap="round" stroke-linejoin="round"/>
<path d="M10.428 21.574L9.90001 18.335H7.08101C6.41179 18.3351 5.76175 18.1114 5.23427 17.6995C4.7068 17.2877 4.33219 16.7113 4.17001 16.062L2.95401 11.2C2.90114 11.0072 2.88734 10.8058 2.91343 10.6076C2.93951 10.4094 3.00494 10.2184 3.10588 10.0459C3.20683 9.87332 3.34124 9.72269 3.50123 9.60283C3.66122 9.48297 3.84355 9.3963 4.03751 9.34791C4.23147 9.29952 4.43314 9.29039 4.63068 9.32105C4.82822 9.35171 5.01764 9.42155 5.18781 9.52646C5.35797 9.63137 5.50545 9.76924 5.62157 9.93196C5.7377 10.0947 5.82012 10.279 5.86401 10.474L7.07901 15.337H9.90001C10.6137 15.3345 11.3047 15.5875 11.8479 16.0503C12.3912 16.5131 12.751 17.155 12.862 17.86L13.39 21.1C13.4534 21.4928 13.3582 21.8947 13.1252 22.2172C12.8923 22.5398 12.5408 22.7566 12.148 22.82C11.7552 22.8834 11.3533 22.7881 11.0308 22.5552C10.7082 22.3223 10.4914 21.9708 10.428 21.578V21.574Z" stroke="#FB625B" stroke-width="1.5" stroke-linecap="round" stroke-linejoin="round"/>
<path d="M1.409 21.335H7.409" stroke="#FB625B" stroke-width="1.5" stroke-linecap="round" stroke-linejoin="round"/>
<path d="M21.712 2.039C21.1494 1.47659 20.3865 1.16064 19.591 1.16064C18.7955 1.16064 18.0326 1.47659 17.47 2.039L16.409 3.1L15.348 2.039C14.7838 1.48403 14.0231 1.17449 13.2317 1.1778C12.4403 1.18112 11.6822 1.49702 11.1227 2.05671C10.5631 2.61639 10.2474 3.3745 10.2443 4.16591C10.2412 4.95733 10.5509 5.71791 11.106 6.282L15.879 11.055C16.0196 11.1955 16.2102 11.2743 16.409 11.2743C16.6077 11.2743 16.7984 11.1955 16.939 11.055L21.712 6.282C21.9906 6.00342 22.2116 5.67268 22.3624 5.30867C22.5132 4.94466 22.5908 4.55451 22.5908 4.1605C22.5908 3.7665 22.5132 3.37635 22.3624 3.01234C22.2116 2.64833 21.9906 2.31759 21.712 2.039V2.039Z" stroke="#FB625B" stroke-width="1.5" stroke-linecap="round" stroke-linejoin="round"/>
<path d="M16.409 4.83501V7.83501" stroke="#FB625B" stroke-width="1.5" stroke-linecap="round" stroke-linejoin="round"/>
<path d="M14.909 6.33501H17.909" stroke="#FB625B" stroke-width="1.5" stroke-linecap="round" stroke-linejoin="round"/>
</svg>
