<svg width="24" height="24" viewBox="0 0 24 24" fill="none" xmlns="http://www.w3.org/2000/svg">
<path d="M11.25 6.185C12.6997 6.185 13.875 5.00975 13.875 3.56C13.875 2.11025 12.6997 0.934998 11.25 0.934998C9.80025 0.934998 8.625 2.11025 8.625 3.56C8.625 5.00975 9.80025 6.185 11.25 6.185Z" stroke="#FB625B" stroke-width="1.5" stroke-linecap="round" stroke-linejoin="round"/>
<path d="M17.408 22.231L15.572 18.56H11.25C10.8522 18.56 10.4706 18.402 10.1893 18.1207C9.90804 17.8394 9.75 17.4578 9.75 17.06V9.56C9.75 9.16217 9.90804 8.78064 10.1893 8.49934C10.4706 8.21803 10.8522 8.06 11.25 8.06C11.6478 8.06 12.0294 8.21803 12.3107 8.49934C12.592 8.78064 12.75 9.16217 12.75 9.56V15.56H16.5C16.7786 15.5599 17.0517 15.6374 17.2888 15.7838C17.5258 15.9303 17.7174 16.1398 17.842 16.389L20.092 20.889C20.27 21.2449 20.2992 21.657 20.1734 22.0345C20.0476 22.412 19.7769 22.724 19.421 22.902C19.0651 23.08 18.653 23.1092 18.2755 22.9834C17.898 22.8576 17.586 22.5869 17.408 22.231V22.231Z" stroke="#FB625B" stroke-width="1.5" stroke-linecap="round" stroke-linejoin="round"/>
<path d="M12.75 22.257C11.3717 23.0527 9.73371 23.2682 8.19647 22.8562C6.65924 22.4441 5.34864 21.4383 4.55299 20.06C3.75734 18.6817 3.54181 17.0437 3.95383 15.5065C4.36585 13.9693 5.37166 12.6587 6.74999 11.863" stroke="#FB625B" stroke-width="1.5" stroke-linecap="round" stroke-linejoin="round"/>
</svg>
