<svg width="24" height="24" viewBox="0 0 24 24" fill="none" xmlns="http://www.w3.org/2000/svg">
<path fill-rule="evenodd" clip-rule="evenodd" d="M22.125 12C22.1408 10.496 21.1914 9.15094 19.769 8.662C20.4456 7.30699 20.2018 5.67338 19.159 4.575C18.1384 3.49925 16.5238 3.24032 15.218 3.943C14.8149 2.49893 13.4993 1.5002 12 1.5002C10.5007 1.5002 9.18506 2.49893 8.782 3.943C7.47584 3.24052 5.86109 3.49941 4.84 4.575C3.79752 5.67361 3.5541 7.30719 4.231 8.662C2.81862 9.16395 1.87511 10.5006 1.87511 11.9995C1.87511 13.4984 2.81862 14.8351 4.231 15.337C3.5541 16.6918 3.79752 18.3254 4.84 19.424C5.86084 20.4999 7.47563 20.7592 8.782 20.057C9.18506 21.5011 10.5007 22.4998 12 22.4998C13.4993 22.4998 14.8149 21.5011 15.218 20.057C16.524 20.7594 18.1387 20.5001 19.159 19.424C20.2018 18.3256 20.4456 16.692 19.769 15.337C21.1913 14.8484 22.1406 13.5038 22.125 12Z" stroke="#FB625B" stroke-width="1.5" stroke-linecap="round" stroke-linejoin="round"/>
<path d="M8.625 15.75L16.125 8.25" stroke="#FB625B" stroke-width="1.5" stroke-linecap="round" stroke-linejoin="round"/>
<path fill-rule="evenodd" clip-rule="evenodd" d="M9.375 10.5C10.2034 10.5 10.875 9.82843 10.875 9C10.875 8.17157 10.2034 7.5 9.375 7.5C8.54657 7.5 7.875 8.17157 7.875 9C7.875 9.82843 8.54657 10.5 9.375 10.5Z" stroke="#FB625B" stroke-width="1.5" stroke-linecap="round" stroke-linejoin="round"/>
<path fill-rule="evenodd" clip-rule="evenodd" d="M15.375 16.5C16.2034 16.5 16.875 15.8284 16.875 15C16.875 14.1716 16.2034 13.5 15.375 13.5C14.5466 13.5 13.875 14.1716 13.875 15C13.875 15.8284 14.5466 16.5 15.375 16.5Z" stroke="#FB625B" stroke-width="1.5" stroke-linecap="round" stroke-linejoin="round"/>
</svg>
