<svg width="24" height="24" viewBox="0 0 24 24" fill="none" xmlns="http://www.w3.org/2000/svg">
<path d="M23.022 23.25L23.122 22.128C23.2585 20.6254 22.2578 19.2552 20.785 18.928L16.613 18V12C16.613 11.1716 15.9414 10.5 15.113 10.5C14.2846 10.5 13.613 11.1716 13.613 12V21.75L11.913 20.472C11.3031 20.0139 10.4491 20.0743 9.90971 20.6137C9.37034 21.1531 9.30993 22.0071 9.768 22.617L10.242 23.25" stroke="#FB625B" stroke-width="1.5" stroke-linecap="round" stroke-linejoin="round"/>
<path d="M10.613 14.25H2.363C1.53457 14.25 0.862999 13.5784 0.862999 12.75V2.25C0.862999 1.42157 1.53457 0.75 2.363 0.75H4.613" stroke="#FB625B" stroke-width="1.5" stroke-linecap="round" stroke-linejoin="round"/>
<path d="M16.613 0.75H18.863C19.6914 0.75 20.363 1.42157 20.363 2.25V12.75C20.363 13.5784 19.6914 14.25 18.863 14.25" stroke="#FB625B" stroke-width="1.5" stroke-linecap="round" stroke-linejoin="round"/>
<path d="M9.863 14.25V17.25" stroke="#FB625B" stroke-width="1.5" stroke-linecap="round" stroke-linejoin="round"/>
<path d="M7.613 17.25H10.613" stroke="#FB625B" stroke-width="1.5" stroke-linecap="round" stroke-linejoin="round"/>
<path d="M15.391 7.52801L15.766 6.52801C15.9382 6.06819 15.8744 5.55321 15.5953 5.14927C15.3162 4.74533 14.857 4.50357 14.366 4.50201H6.691C6.19963 4.50218 5.73949 4.743 5.45929 5.14665C5.17908 5.5503 5.11435 6.0656 5.286 6.52601L6.594 10.013C6.70313 10.3053 6.98201 10.4993 7.294 10.5H10.611" stroke="#FB625B" stroke-width="1.5" stroke-linecap="round" stroke-linejoin="round"/>
<path d="M6.776 4.5L8.276 0.75" stroke="#FB625B" stroke-width="1.5" stroke-linecap="round" stroke-linejoin="round"/>
<path d="M14.276 4.5L12.776 0.75" stroke="#FB625B" stroke-width="1.5" stroke-linecap="round" stroke-linejoin="round"/>
</svg>
