<svg width="24" height="24" viewBox="0 0 24 24" fill="none" xmlns="http://www.w3.org/2000/svg">
<path d="M15.75 5.25L13.5 12.75H7.5L6 8.25H14.85" stroke="#FB625B" stroke-width="1.5" stroke-linecap="round" stroke-linejoin="round"/>
<path d="M7.875 15C8.08211 15 8.25 15.1679 8.25 15.375C8.25 15.5821 8.08211 15.75 7.875 15.75C7.66789 15.75 7.5 15.5821 7.5 15.375C7.5 15.1679 7.66789 15 7.875 15" stroke="#FB625B" stroke-width="1.5" stroke-linecap="round" stroke-linejoin="round"/>
<path d="M13.125 15C13.3321 15 13.5 15.1679 13.5 15.375C13.5 15.5821 13.3321 15.75 13.125 15.75C12.9179 15.75 12.75 15.5821 12.75 15.375C12.75 15.1679 12.9179 15 13.125 15" stroke="#FB625B" stroke-width="1.5" stroke-linecap="round" stroke-linejoin="round"/>
<path d="M13.855 19.657C9.59488 21.2148 4.82337 19.6256 2.34808 15.8245C-0.127213 12.0234 0.349069 7.01682 3.49667 3.75065C6.64428 0.484476 11.6299 -0.176525 15.5198 2.15659C19.4098 4.4897 21.1743 9.19922 19.775 13.514" stroke="#FB625B" stroke-width="1.5" stroke-linecap="round" stroke-linejoin="round"/>
<path fill-rule="evenodd" clip-rule="evenodd" d="M16.356 16.355L19.007 23.25L20.598 20.598L23.25 19.007L16.356 16.355V16.355Z" stroke="#FB625B" stroke-width="1.5" stroke-linecap="round" stroke-linejoin="round"/>
<path d="M23.25 23.25L20.598 20.598" stroke="#FB625B" stroke-width="1.5" stroke-linecap="round" stroke-linejoin="round"/>
</svg>
