<svg width="24" height="25" viewBox="0 0 24 25" fill="none" xmlns="http://www.w3.org/2000/svg">
<path d="M16.875 1.72L14.625 8.92H8.625L7.125 4.6H15.975" stroke="#FB625B" stroke-width="1.5" stroke-linecap="round" stroke-linejoin="round"/>
<path d="M9 11.08C9.20711 11.08 9.375 11.2412 9.375 11.44C9.375 11.6388 9.20711 11.8 9 11.8C8.79289 11.8 8.625 11.6388 8.625 11.44C8.625 11.2412 8.79289 11.08 9 11.08" stroke="#FB625B" stroke-width="1.5" stroke-linecap="round" stroke-linejoin="round"/>
<path d="M14.25 11.08C14.4571 11.08 14.625 11.2412 14.625 11.44C14.625 11.6388 14.4571 11.8 14.25 11.8C14.0429 11.8 13.875 11.6388 13.875 11.44C13.875 11.2412 14.0429 11.08 14.25 11.08" stroke="#FB625B" stroke-width="1.5" stroke-linecap="round" stroke-linejoin="round"/>
<path d="M7.5 23.32H16.5" stroke="#FB625B" stroke-width="1.5" stroke-linecap="round" stroke-linejoin="round"/>
<path d="M0.75 15.4H23.25" stroke="#FB625B" stroke-width="1.5" stroke-linecap="round" stroke-linejoin="round"/>
<path d="M19.5 4.60001H21.75C22.5784 4.60001 23.25 5.24472 23.25 6.04001V17.56C23.25 18.3553 22.5784 19 21.75 19H2.25C1.42157 19 0.75 18.3553 0.75 17.56V6.04001C0.75 5.24472 1.42157 4.60001 2.25 4.60001H3.75" stroke="#FB625B" stroke-width="1.5" stroke-linecap="round" stroke-linejoin="round"/>
<path d="M12 23.32V19" stroke="#FB625B" stroke-width="1.5" stroke-linecap="round" stroke-linejoin="round"/>
</svg>
