<svg width="24" height="24" viewBox="0 0 24 24" fill="none" xmlns="http://www.w3.org/2000/svg">
<path d="M19.875 15.75C19.8008 15.75 19.7283 15.772 19.6667 15.8132C19.605 15.8544 19.5569 15.913 19.5285 15.9815C19.5002 16.05 19.4927 16.1254 19.5072 16.1982C19.5217 16.2709 19.5574 16.3377 19.6098 16.3902C19.6623 16.4426 19.7291 16.4783 19.8018 16.4928C19.8746 16.5073 19.95 16.4998 20.0185 16.4715C20.087 16.4431 20.1456 16.395 20.1868 16.3333C20.228 16.2717 20.25 16.1992 20.25 16.125C20.25 16.0255 20.2105 15.9302 20.1402 15.8598C20.0698 15.7895 19.9745 15.75 19.875 15.75Z" stroke="#FB625B" stroke-width="1.5" stroke-linecap="round" stroke-linejoin="round"/>
<path d="M14.25 4.5H2.25C1.42157 4.5 0.75 5.17157 0.75 6V15C0.75 15.8284 1.42157 16.5 2.25 16.5H14.25C15.0784 16.5 15.75 15.8284 15.75 15V6C15.75 5.17157 15.0784 4.5 14.25 4.5Z" stroke="#FB625B" stroke-width="1.5" stroke-linecap="round" stroke-linejoin="round"/>
<path d="M18.75 6.75H21.75C22.1478 6.75 22.5294 6.90804 22.8107 7.18934C23.092 7.47064 23.25 7.85218 23.25 8.25V18C23.25 18.3978 23.092 18.7794 22.8107 19.0607C22.5294 19.342 22.1478 19.5 21.75 19.5H17.25" stroke="#FB625B" stroke-width="1.5" stroke-linecap="round" stroke-linejoin="round"/>
<path d="M8.25 16.5V19.5" stroke="#FB625B" stroke-width="1.5" stroke-linecap="round" stroke-linejoin="round"/>
<path d="M5.25 19.5H11.25" stroke="#FB625B" stroke-width="1.5" stroke-linecap="round" stroke-linejoin="round"/>
<path d="M18.75 9.75H23.25" stroke="#FB625B" stroke-width="1.5" stroke-linecap="round" stroke-linejoin="round"/>
<path d="M18.75 12.75H23.25" stroke="#FB625B" stroke-width="1.5" stroke-linecap="round" stroke-linejoin="round"/>
</svg>
