<svg width="24" height="24" viewBox="0 0 24 24" fill="none" xmlns="http://www.w3.org/2000/svg">
<path fill-rule="evenodd" clip-rule="evenodd" d="M17.25 23.25C20.5637 23.25 23.25 20.5637 23.25 17.25C23.25 13.9363 20.5637 11.25 17.25 11.25C13.9363 11.25 11.25 13.9363 11.25 17.25C11.25 20.5637 13.9363 23.25 17.25 23.25Z" stroke="#FB625B" stroke-width="1.5" stroke-linecap="round" stroke-linejoin="round"/>
<path d="M19.924 15.506L17.019 19.379C16.8883 19.5527 16.6888 19.6613 16.4719 19.6768C16.2551 19.6923 16.0422 19.6133 15.888 19.46L14.388 17.96" stroke="#FB625B" stroke-width="1.5" stroke-linecap="round" stroke-linejoin="round"/>
<path d="M8.25 15.75H2.25C1.42157 15.75 0.75 15.0784 0.75 14.25V2.25C0.75 1.42157 1.42157 0.75 2.25 0.75H20.25C21.0784 0.75 21.75 1.42157 21.75 2.25V9" stroke="#FB625B" stroke-width="1.5" stroke-linecap="round" stroke-linejoin="round"/>
<path d="M21.411 1.29999L13.267 7.56399C12.0779 8.47873 10.4221 8.47873 9.233 7.56399L1.089 1.29999" stroke="#FB625B" stroke-width="1.5" stroke-linecap="round" stroke-linejoin="round"/>
</svg>
