<svg width="24" height="24" viewBox="0 0 24 24" fill="none" xmlns="http://www.w3.org/2000/svg">
<path fill-rule="evenodd" clip-rule="evenodd" d="M17.25 18C18.0784 18 18.75 17.3284 18.75 16.5C18.75 15.6716 18.0784 15 17.25 15C16.4216 15 15.75 15.6716 15.75 16.5C15.75 17.3284 16.4216 18 17.25 18Z" stroke="#FB625B" stroke-width="1.5" stroke-linecap="round" stroke-linejoin="round"/>
<path fill-rule="evenodd" clip-rule="evenodd" d="M18.524 10.7L18.966 12.153C19.1173 12.6534 19.6305 12.9511 20.14 12.834L21.612 12.493C22.1847 12.3639 22.7747 12.623 23.0672 13.1319C23.3598 13.6409 23.2867 14.2811 22.887 14.711L21.856 15.822C21.499 16.2059 21.499 16.8002 21.856 17.184L22.887 18.295C23.2867 18.7249 23.3598 19.3651 23.0672 19.8741C22.7747 20.383 22.1847 20.6421 21.612 20.513L20.14 20.172C19.6305 20.055 19.1173 20.3526 18.966 20.853L18.524 22.3C18.3553 22.8627 17.8375 23.2481 17.25 23.2481C16.6625 23.2481 16.1447 22.8627 15.976 22.3L15.534 20.847C15.3826 20.3466 14.8695 20.049 14.36 20.166L12.888 20.507C12.3153 20.6361 11.7253 20.3771 11.4327 19.8681C11.1402 19.3591 11.2133 18.7189 11.613 18.289L12.644 17.178C13.001 16.7942 13.001 16.1999 12.644 15.816L11.613 14.705C11.2133 14.2751 11.1402 13.6349 11.4327 13.1259C11.7253 12.617 12.3153 12.3579 12.888 12.487L14.36 12.828C14.8695 12.9451 15.3826 12.6474 15.534 12.147L15.976 10.694C16.146 10.1317 16.6648 9.74749 17.2522 9.74887C17.8397 9.75026 18.3567 10.1369 18.524 10.7V10.7Z" stroke="#FB625B" stroke-width="1.5" stroke-linecap="round" stroke-linejoin="round"/>
<path d="M8.25 15.75H2.25C1.42157 15.75 0.75 15.0784 0.75 14.25V2.25C0.75 1.42157 1.42157 0.75 2.25 0.75H20.25C21.0784 0.75 21.75 1.42157 21.75 2.25V9" stroke="#FB625B" stroke-width="1.5" stroke-linecap="round" stroke-linejoin="round"/>
<path d="M21.411 1.29999L13.267 7.56399C12.0779 8.47873 10.4221 8.47873 9.233 7.56399L1.089 1.29999" stroke="#FB625B" stroke-width="1.5" stroke-linecap="round" stroke-linejoin="round"/>
</svg>
