<svg xmlns="http://www.w3.org/2000/svg" width="24" height="24" fill="none" viewBox="0 0 24 24">
    <path fill="#D93D33" stroke="#D93D33" stroke-width=".2" d="M18.45 4.872l-.072-.07-.07.07-7.195 7.196-.071.07.07.071.68.679.07.07.07-.07 7.196-7.195.07-.071-.07-.07-.679-.68z"/>
    <path fill="#D93D33" stroke="#D93D33" stroke-width=".2" d="M19.2 9.7h.1V4.7H14.3V5.86H18.14V9.7h1.06zM12.58 5.76v-.1H7.2c-.871 0-1.54.669-1.54 1.54v9.6c0 .871.669 1.54 1.54 1.54h9.6c.871 0 1.54-.669 1.54-1.54v-5.38H17.18v5.38c0 .121-.04.215-.103.277-.063.063-.156.103-.277.103H7.2c-.121 0-.215-.04-.277-.103-.063-.062-.103-.156-.103-.277V7.2c0-.121.04-.215.103-.277.062-.063.156-.103.277-.103h5.38V5.76z"/>
</svg>
