<svg xmlns="http://www.w3.org/2000/svg" width="22" height="22" fill="none" viewBox="0 0 22 22">
    <path fill="#3f2a56" stroke="#3f2a56" stroke-width=".2" d="M16.918 4.46l-.071-.07-.07.07-6.597 6.596-.07.07.07.072.623.622.07.07.071-.07 6.596-6.596.07-.07-.07-.071-.622-.623z"/>
    <path fill="#3f2a56" stroke="#3f2a56" stroke-width=".2" d="M17.6 8.9h.1V4.3h-4.6v1.08h3.52V8.9h.98zM11.54 5.28v-.1H6.6c-.803 0-1.42.617-1.42 1.42v8.8c0 .803.617 1.42 1.42 1.42h8.8c.803 0 1.42-.617 1.42-1.42V10.46h-1.08V15.4c0 .11-.036.193-.092.248-.056.056-.139.092-.248.092H6.6c-.11 0-.193-.036-.248-.092-.056-.055-.092-.139-.092-.248V6.6c0-.11.036-.193.092-.248.055-.056.139-.092.248-.092H11.54v-.98z"/>
</svg>
