<svg width="24" height="24" viewBox="0 0 24 24" fill="none" xmlns="http://www.w3.org/2000/svg">
<path d="M11.307 23.25H3.807C2.15015 23.25 0.807 21.9069 0.807 20.25V3.75C0.807 2.09315 2.15015 0.75 3.807 0.75H11.307C12.9639 0.75 14.307 2.09315 14.307 3.75V6" stroke="#FB625B" stroke-width="1.5" stroke-linecap="round" stroke-linejoin="round"/>
<path d="M0.807 18.75H6.807" stroke="#FB625B" stroke-width="1.5" stroke-linecap="round" stroke-linejoin="round"/>
<path d="M23.193 16.152L20.748 13.706C19.7111 12.669 18.0764 12.5337 16.883 13.386L15.239 14.561L13.117 12.44C12.7445 12.0317 12.1777 11.8613 11.6419 11.9965C11.1061 12.1317 10.6879 12.5506 10.5538 13.0867C10.4196 13.6228 10.591 14.1893 11 14.561L14.712 18.273L13.467 18.688C12.6694 18.9508 12.2 19.7745 12.3804 20.5946C12.5609 21.4148 13.3328 21.9653 14.167 21.869L17.895 21.455" stroke="#FB625B" stroke-width="1.5" stroke-linecap="round" stroke-linejoin="round"/>
<path d="M9.061 16.651C7.41931 15.7081 6.54334 13.8385 6.86948 11.9736C7.19561 10.1087 8.65409 8.64739 10.5184 8.31762C12.3826 7.98784 14.2539 8.86016 15.2 10.5" stroke="#FB625B" stroke-width="1.5" stroke-linecap="round" stroke-linejoin="round"/>
</svg>
