<?xml version="1.0" encoding="utf-8"?>
<!-- Generator: Adobe Illustrator 23.1.0, SVG Export Plug-In . SVG Version: 6.00 Build 0)  -->
<svg version="1.1" id="Layer_1" xmlns="http://www.w3.org/2000/svg" xmlns:xlink="http://www.w3.org/1999/xlink" x="0px" y="0px"
	 viewBox="0 0 24 24" style="enable-background:new 0 0 24 24;" xml:space="preserve">
<style type="text/css">
	.st0{fill:none;stroke:#FB625B;stroke-width:1.5;stroke-linecap:round;stroke-linejoin:round;}
</style>
<g id="Food-Drinks__x2F__Appliances__x2F__appliances-fridge">
	<g id="Group_166">
		<g id="Regular_166">
			<path id="Rectangle-path_28" class="st0" d="M1,1.9c0-0.6,0.3-1,0.7-1h10c0.4,0,0.7,0.5,0.7,1v18.7c0,0.6-0.3,1-0.7,1h-10
				c-0.4,0-0.7-0.5-0.7-1V1.9z"/>
			<path id="Shape_917" class="st0" d="M3.1,21.7v1.5"/>
			<path id="Shape_918" class="st0" d="M10.4,21.7v1.5"/>
			<path id="Shape_919" class="st0" d="M1,8.3h11.5"/>
			<path id="Shape_920" class="st0" d="M4,12.8v4.5"/>
			<path id="Shape_921" class="st0" d="M4,3.8v1.5"/>
		</g>
	</g>
</g>
<g>
	<path class="st0" d="M21.4,13.3h-4.7c-0.2,0-0.5-0.1-0.6-0.3c-0.2-0.2-0.2-0.5-0.2-0.7l0.2-1.8c0.1-0.5,0.4-0.8,0.8-0.8h4.3
		c0.4,0,0.8,0.3,0.8,0.8l0.2,1.8c0,0.3,0,0.5-0.2,0.7C21.9,13.1,21.6,13.3,21.4,13.3z"/>
	<path class="st0" d="M19,19.6c-1.5,0.1-2.9-0.5-4-1.6c-0.2-0.2-0.3-0.6-0.2-0.9c0.1-0.3,0.3-0.6,0.6-0.6c0.3-0.1,0.6,0,0.8,0.2
		c0.8,0.7,1.8,1.1,2.8,1.1c1,0,2-0.3,2.8-1.1c0.3-0.4,0.8-0.4,1.2,0c0.3,0.4,0.3,0.9,0,1.3C21.9,19,20.5,19.6,19,19.6z"/>
	<path class="st0" d="M16.6,13.3l-0.4,3.3c0,0,0.1,0.1,0.1,0.1"/>
	<path class="st0" d="M21.8,16.7C21.9,16.6,21.9,16.6,21.8,16.7l-0.3-3.4"/>
	<path class="st0" d="M22.7,23.2l-0.6-4.5"/>
	<path class="st0" d="M15.9,18.7l-0.6,4.5"/>
</g>
</svg>
