<svg width="24" height="24" viewBox="0 0 24 24" fill="none" xmlns="http://www.w3.org/2000/svg">
<path d="M20.29 14.34L15.13 15.326" stroke="#FB625B" stroke-width="1.5" stroke-linecap="round" stroke-linejoin="round"/>
<path d="M14.416 8.478L10.948 9.624C10.6797 9.71235 10.3882 9.6989 10.1291 9.58623C9.87 9.47356 9.6614 9.26953 9.54302 9.013C9.41542 8.73918 9.39927 8.42648 9.49798 8.14098C9.5967 7.85547 9.80254 7.61953 10.072 7.483L13.431 5.794C13.7173 5.64962 14.0302 5.56553 14.3503 5.54695C14.6704 5.52838 14.9909 5.5757 15.292 5.686L20.265 7.505" stroke="#FB625B" stroke-width="1.5" stroke-linecap="round" stroke-linejoin="round"/>
<path d="M3.685 14.348H6.13L9.642 18.284C9.82085 18.4913 10.0588 18.6389 10.3239 18.707C10.5891 18.7751 10.8687 18.7606 11.1253 18.6652C11.382 18.5699 11.6033 18.3984 11.7596 18.1736C11.916 17.9489 11.9998 17.6818 12 17.408V16.793L12.175 16.863C12.4262 16.9635 12.6982 17.0009 12.9673 16.9719C13.2363 16.943 13.4941 16.8485 13.7182 16.6969C13.9423 16.5452 14.1258 16.341 14.2526 16.102C14.3795 15.863 14.4459 15.5966 14.446 15.326H14.935C15.2075 15.3258 15.4745 15.2498 15.7062 15.1065C15.9379 14.9632 16.1252 14.7582 16.247 14.5145C16.3689 14.2708 16.4205 13.998 16.3961 13.7267C16.3717 13.4553 16.2723 13.1961 16.109 12.978L12.97 8.956" stroke="#FB625B" stroke-width="1.5" stroke-linecap="round" stroke-linejoin="round"/>
<path d="M10.583 7.225L10.225 6.93C9.86425 6.66436 9.428 6.52104 8.98 6.521C8.71305 6.5209 8.44858 6.57217 8.201 6.672L3.75 8.452" stroke="#FB625B" stroke-width="1.5" stroke-linecap="round" stroke-linejoin="round"/>
<path d="M0.75 6.75H2.75C3.00393 6.73942 3.25172 6.82986 3.43913 7.00153C3.62654 7.17319 3.73832 7.41211 3.75 7.666V14.083C3.73832 14.337 3.62657 14.576 3.43919 14.7478C3.25181 14.9196 3.00403 15.0103 2.75 15H0.75" stroke="#FB625B" stroke-width="1.5" stroke-linecap="round" stroke-linejoin="round"/>
<path d="M23.25 15H21.25C20.996 15.0103 20.7482 14.9196 20.5608 14.7478C20.3734 14.576 20.2617 14.337 20.25 14.083V7.666C20.2617 7.41211 20.3735 7.17319 20.5609 7.00153C20.7483 6.82986 20.9961 6.73942 21.25 6.75H23.25" stroke="#FB625B" stroke-width="1.5" stroke-linecap="round" stroke-linejoin="round"/>
<path d="M12 16.793L11.022 15.815" stroke="#FB625B" stroke-width="1.5" stroke-linecap="round" stroke-linejoin="round"/>
<path d="M14.446 15.326L12.978 13.858" stroke="#FB625B" stroke-width="1.5" stroke-linecap="round" stroke-linejoin="round"/>
</svg>
