<svg width="24" height="24" viewBox="0 0 24 24" fill="none" xmlns="http://www.w3.org/2000/svg">
<path d="M22.651 5.357C22.243 4.55882 21.6525 3.86812 20.9275 3.34099C20.2025 2.81386 19.3633 2.46516 18.4782 2.32321C17.5931 2.18127 16.687 2.25007 15.8335 2.52405C14.98 2.79802 14.2031 3.26943 13.566 3.9L12 5.329L10.434 3.9C9.79668 3.26954 9.01963 2.7983 8.16597 2.52455C7.31231 2.25081 6.40612 2.18227 5.52101 2.32451C4.63589 2.46676 3.7968 2.81576 3.0719 3.34319C2.34699 3.87062 1.75672 4.5616 1.34901 5.36C0.816802 6.41443 0.632977 7.61057 0.824006 8.77615C1.01503 9.94173 1.57106 11.0166 2.41201 11.846L12 21.75L21.588 11.843C22.429 11.0136 22.985 9.93873 23.176 8.77315C23.367 7.60757 23.1832 6.41143 22.651 5.357V5.357Z" stroke="#FB625B" stroke-width="1.5" stroke-linecap="round" stroke-linejoin="round"/>
<path d="M5.25 10.5H8.018C8.08769 10.5 8.15601 10.5193 8.21534 10.5559C8.27467 10.5924 8.32268 10.6447 8.354 10.707L10.127 14.253C10.1594 14.3175 10.2096 14.3713 10.2718 14.4079C10.334 14.4446 10.4054 14.4625 10.4775 14.4595C10.5496 14.4566 10.6194 14.4329 10.6783 14.3913C10.7373 14.3497 10.783 14.2919 10.81 14.225L13.19 8.275C13.217 8.20806 13.2627 8.15033 13.3217 8.10873C13.3806 8.06713 13.4504 8.04343 13.5225 8.04048C13.5946 8.03752 13.666 8.05543 13.7282 8.09206C13.7904 8.1287 13.8406 8.18249 13.873 8.247L14.9 10.293C14.9313 10.3552 14.9793 10.4076 15.0387 10.4441C15.098 10.4807 15.1663 10.5 15.236 10.5H18.75" stroke="#FB625B" stroke-width="1.5" stroke-linecap="round" stroke-linejoin="round"/>
</svg>
