<svg width="24" height="24" viewBox="0 0 24 24" fill="none" xmlns="http://www.w3.org/2000/svg">
<path d="M15.75 8.25L8.25 0.75L0.75 8.25" stroke="#FB625B" stroke-width="1.5" stroke-linecap="round" stroke-linejoin="round"/>
<path d="M8.25 15.75H3.75C3.35218 15.75 2.97064 15.592 2.68934 15.3107C2.40804 15.0294 2.25 14.6478 2.25 14.25V6.75" stroke="#FB625B" stroke-width="1.5" stroke-linecap="round" stroke-linejoin="round"/>
<path d="M14.25 6.75V9.75" stroke="#FB625B" stroke-width="1.5" stroke-linecap="round" stroke-linejoin="round"/>
<path d="M21 15.75V14.25C21 13.8522 20.842 13.4706 20.5607 13.1893C20.2794 12.908 19.8978 12.75 19.5 12.75H13.5C13.1022 12.75 12.7206 12.908 12.4393 13.1893C12.158 13.4706 12 13.8522 12 14.25V15.75L9.75 18.757V21.75H23.25V18.757L21 15.75Z" stroke="#FB625B" stroke-width="1.5" stroke-linecap="round" stroke-linejoin="round"/>
<path d="M12 15.75H21" stroke="#FB625B" stroke-width="1.5" stroke-linecap="round" stroke-linejoin="round"/>
<path d="M9.75 18.75H12.75" stroke="#FB625B" stroke-width="1.5" stroke-linecap="round" stroke-linejoin="round"/>
<path d="M20.25 18.75H23.25" stroke="#FB625B" stroke-width="1.5" stroke-linecap="round" stroke-linejoin="round"/>
<path d="M11.25 21.75V23.25" stroke="#FB625B" stroke-width="1.5" stroke-linecap="round" stroke-linejoin="round"/>
<path d="M21.75 21.75V23.25" stroke="#FB625B" stroke-width="1.5" stroke-linecap="round" stroke-linejoin="round"/>
<path d="M5.60001 8.6C6.30313 7.89774 7.25625 7.5033 8.25001 7.5033C9.24376 7.5033 10.1969 7.89774 10.9 8.6" stroke="#FB625B" stroke-width="1.5" stroke-linecap="round" stroke-linejoin="round"/>
<path d="M8.25 10.875C8.17583 10.875 8.10333 10.897 8.04166 10.9382C7.97999 10.9794 7.93193 11.038 7.90355 11.1065C7.87516 11.175 7.86774 11.2504 7.88221 11.3232C7.89668 11.3959 7.93239 11.4627 7.98484 11.5152C8.03728 11.5676 8.1041 11.6033 8.17684 11.6178C8.24958 11.6323 8.32498 11.6248 8.39351 11.5965C8.46203 11.5681 8.5206 11.52 8.5618 11.4583C8.60301 11.3967 8.625 11.3242 8.625 11.25C8.625 11.1505 8.58549 11.0552 8.51517 10.9848C8.44484 10.9145 8.34946 10.875 8.25 10.875Z" fill="#FB625B" stroke="#FB625B" stroke-width="1.5" stroke-linecap="round" stroke-linejoin="round"/>
</svg>
