<svg width="24" height="25" viewBox="0 0 24 25" fill="none" xmlns="http://www.w3.org/2000/svg">
<path fill-rule="evenodd" clip-rule="evenodd" d="M6.038 6.25888C6.594 9.33952 8.548 11.4496 12 12.52C15.452 11.4496 17.406 9.33952 17.962 6.25888C18.0287 5.84223 17.902 5.41842 17.6151 5.09926C17.3282 4.78009 16.9101 4.59763 16.471 4.6H7.529C7.08989 4.59763 6.67175 4.78009 6.38489 5.09926C6.09802 5.41842 5.97124 5.84223 6.038 6.25888Z" stroke="#FB625B" stroke-width="1.5" stroke-linecap="round" stroke-linejoin="round"/>
<path d="M3.75 1.71997H20.25" stroke="#FB625B" stroke-width="1.5" stroke-linecap="round" stroke-linejoin="round"/>
<path fill-rule="evenodd" clip-rule="evenodd" d="M7.529 20.44C7.09009 20.4423 6.67215 20.26 6.38532 19.9411C6.09849 19.6221 5.97157 19.1986 6.038 18.7821C6.594 15.7015 8.548 13.5914 12 12.52C15.452 13.5914 17.406 15.7015 17.962 18.7821C18.0284 19.1986 17.9015 19.6221 17.6147 19.9411C17.3278 20.26 16.9099 20.4423 16.471 20.44H7.529Z" stroke="#FB625B" stroke-width="1.5" stroke-linecap="round" stroke-linejoin="round"/>
<path d="M3.75 23.3199H20.25" stroke="#FB625B" stroke-width="1.5" stroke-linecap="round" stroke-linejoin="round"/>
</svg>
