<svg width="24" height="24" viewBox="0 0 24 24" fill="none" xmlns="http://www.w3.org/2000/svg">
<path d="M3.75 14V21.5C3.75 22.3284 4.42157 23 5.25 23H18.75C19.5784 23 20.25 22.3284 20.25 21.5V14" stroke="#FB625B" stroke-width="1.5" stroke-linecap="round" stroke-linejoin="round"/>
<path d="M0.75 12.629L10.939 2.43901C11.2203 2.1575 11.602 1.99933 12 1.99933C12.398 1.99933 12.7797 2.1575 13.061 2.43901L23.25 12.629" stroke="#FB625B" stroke-width="1.5" stroke-linecap="round" stroke-linejoin="round"/>
<path d="M16.5 5.879V3.5H20.25V9.629" stroke="#FB625B" stroke-width="1.5" stroke-linecap="round" stroke-linejoin="round"/>
<path fill-rule="evenodd" clip-rule="evenodd" d="M15.93 11.845C15.5714 11.4687 15.0743 11.2557 14.5545 11.2557C14.0347 11.2557 13.5376 11.4687 13.179 11.845L12 13.064L10.821 11.845C10.4624 11.4687 9.96531 11.2557 9.4455 11.2557C8.9257 11.2557 8.42859 11.4687 8.07 11.845C7.31 12.6411 7.31 13.8939 8.07 14.69L11.581 18.321C11.6903 18.4356 11.8417 18.5004 12 18.5004C12.1583 18.5004 12.3097 18.4356 12.419 18.321L15.93 14.69C16.69 13.8939 16.69 12.6411 15.93 11.845Z" stroke="#FB625B" stroke-width="1.5" stroke-linecap="round" stroke-linejoin="round"/>
</svg>
