<svg width="24" height="24" viewBox="0 0 24 24" fill="none" xmlns="http://www.w3.org/2000/svg">
<path fill-rule="evenodd" clip-rule="evenodd" d="M11.566 1.01697C11.6486 0.85308 11.8165 0.749695 12 0.749695C12.1835 0.749695 12.3514 0.85308 12.434 1.01697L13.443 3.05097C13.5138 3.19249 13.6494 3.29037 13.806 3.31297L16.07 3.63997C16.2504 3.66531 16.401 3.79034 16.459 3.96297C16.516 4.13506 16.4689 4.32455 16.338 4.44997L14.7 6.04397C14.5877 6.15232 14.5361 6.30909 14.562 6.46297L14.95 8.70997C14.9799 8.88935 14.9045 9.07002 14.756 9.17497C14.6065 9.28169 14.4097 9.29522 14.247 9.20997L12.226 8.15597C12.0847 8.08095 11.9153 8.08095 11.774 8.15597L9.75801 9.20997C9.59532 9.29522 9.3985 9.28169 9.24901 9.17497C9.1005 9.07002 9.02512 8.88935 9.05501 8.70997L9.44301 6.46297C9.46895 6.30909 9.41731 6.15232 9.30501 6.04397L7.66201 4.44997C7.53114 4.32455 7.48406 4.13506 7.54101 3.96297C7.59907 3.79034 7.74965 3.66531 7.93001 3.63997L10.194 3.31297C10.3506 3.29037 10.4862 3.19249 10.557 3.05097L11.566 1.01697Z" stroke="#FB625B" stroke-width="1.5" stroke-linecap="round" stroke-linejoin="round"/>
<path d="M6.32201 10.1L5.45901 9.64996C5.31707 9.57597 5.14794 9.57597 5.00601 9.64996L2.99101 10.7C2.82804 10.785 2.63124 10.7719 2.48101 10.666C2.33251 10.5606 2.25749 10.3795 2.28801 10.2L2.67501 7.95396C2.70155 7.80022 2.65025 7.64332 2.53801 7.53496L0.894007 5.94396C0.763929 5.81807 0.71731 5.62887 0.774007 5.45696C0.832063 5.28433 0.982645 5.15929 1.16301 5.13396L3.42601 4.80696C3.58299 4.78467 3.71903 4.68675 3.79001 4.54496L4.80001 2.51096C4.88232 2.34685 5.05041 2.24344 5.23401 2.24396" stroke="#FB625B" stroke-width="1.5" stroke-linecap="round" stroke-linejoin="round"/>
<path d="M17.678 10.1L18.541 9.64896C18.6829 9.57497 18.8521 9.57497 18.994 9.64896L21.009 10.7C21.172 10.785 21.3688 10.7719 21.519 10.666C21.6675 10.5606 21.7425 10.3795 21.712 10.2L21.325 7.95396C21.2985 7.80022 21.3498 7.64332 21.462 7.53496L23.106 5.93996C23.2361 5.81407 23.2827 5.62487 23.226 5.45296C23.168 5.28033 23.0174 5.15529 22.837 5.12996L20.574 4.80296C20.417 4.78067 20.281 4.68275 20.21 4.54096L19.2 2.51096C19.1177 2.34685 18.9496 2.24344 18.766 2.24396" stroke="#FB625B" stroke-width="1.5" stroke-linecap="round" stroke-linejoin="round"/>
<path d="M17.027 23.243C15.7589 21.7936 13.9268 20.9622 12.001 20.9622C10.0752 20.9622 8.24308 21.7936 6.97501 23.243" stroke="#FB625B" stroke-width="1.5" stroke-linecap="round" stroke-linejoin="round"/>
<path fill-rule="evenodd" clip-rule="evenodd" d="M12 19.461C14.2782 19.461 16.125 17.6142 16.125 15.336C16.125 13.0578 14.2782 11.211 12 11.211C9.72183 11.211 7.875 13.0578 7.875 15.336C7.875 17.6142 9.72183 19.461 12 19.461Z" stroke="#FB625B" stroke-width="1.5" stroke-linecap="round" stroke-linejoin="round"/>
</svg>
