<svg width="24" height="24" viewBox="0 0 24 24" fill="none" xmlns="http://www.w3.org/2000/svg">
<path d="M10.082 9.5C9.23575 8.54814 8.02364 8.00247 6.75 8H5.25C2.76472 8 0.75 10.0147 0.75 12.5C0.75 14.9853 2.76472 17 5.25 17H6.75C8.02353 16.997 9.23544 16.4514 10.082 15.5" stroke="#FB625B" stroke-width="1.5" stroke-linecap="round" stroke-linejoin="round"/>
<path d="M13.918 9.5C14.7642 8.54803 15.9763 8.00234 17.25 8H18.75C21.2353 8 23.25 10.0147 23.25 12.5C23.25 14.9853 21.2353 17 18.75 17H17.25C15.9764 16.9973 14.7644 16.4517 13.918 15.5" stroke="#FB625B" stroke-width="1.5" stroke-linecap="round" stroke-linejoin="round"/>
<path d="M6.75 12.499H17.25" stroke="#FB625B" stroke-width="1.5" stroke-linecap="round" stroke-linejoin="round"/>
</svg>
