<svg width="24" height="25" viewBox="0 0 24 25" fill="none" xmlns="http://www.w3.org/2000/svg">
<path fill-rule="evenodd" clip-rule="evenodd" d="M21.75 21.761C21.75 22.5894 21.0784 23.261 20.25 23.261H3.75C2.92157 23.261 2.25 22.5894 2.25 21.761V2.261C2.25 1.43257 2.92157 0.761002 3.75 0.761002H14.379C14.7765 0.761086 15.1578 0.918983 15.439 1.2L21.311 7.072C21.592 7.3532 21.7499 7.73445 21.75 8.132V21.761Z" stroke="#FB625B" stroke-width="1.5" stroke-linecap="round" stroke-linejoin="round"/>
<path d="M21.75 8.261H15.75C14.9216 8.261 14.25 7.58943 14.25 6.761V0.761002" stroke="#FB625B" stroke-width="1.5" stroke-linecap="round" stroke-linejoin="round"/>
<path d="M9.669 9.619L7.537 12.461C7.4065 12.6348 7.20703 12.7434 6.99025 12.7588C6.77347 12.7741 6.56069 12.6947 6.407 12.541L5.25 11.385" stroke="#FB625B" stroke-width="1.5" stroke-linecap="round" stroke-linejoin="round"/>
<path d="M9.669 16.369L7.537 19.211C7.4065 19.3848 7.20703 19.4934 6.99025 19.5088C6.77347 19.5241 6.56069 19.4447 6.407 19.291L5.25 18.134" stroke="#FB625B" stroke-width="1.5" stroke-linecap="round" stroke-linejoin="round"/>
<path d="M12.75 12.761H17.25" stroke="#FB625B" stroke-width="1.5" stroke-linecap="round" stroke-linejoin="round"/>
<path d="M12.75 18.761H17.25" stroke="#FB625B" stroke-width="1.5" stroke-linecap="round" stroke-linejoin="round"/>
</svg>
