<svg width="24" height="24" viewBox="0 0 24 24" fill="none" xmlns="http://www.w3.org/2000/svg">
<path fill-rule="evenodd" clip-rule="evenodd" d="M13.068 12.418C12.7861 12.7038 12.4014 12.8647 12 12.8647C11.5986 12.8647 11.2139 12.7038 10.932 12.418L5.608 7.01799C4.4629 5.91662 4.17518 4.19482 4.9 2.78099V2.78099C5.46767 1.71836 6.50092 0.983537 7.691 0.796094C8.88109 0.608652 10.0902 0.990295 10.957 1.82699L12 2.84099L13.044 1.82699C13.9108 0.990295 15.1199 0.608652 16.31 0.796094C17.5001 0.983537 18.5333 1.71836 19.101 2.78099V2.78099C19.8276 4.19604 19.5393 5.92021 18.392 7.02199L13.068 12.418Z" stroke="#FB625B" stroke-width="1.5" stroke-linecap="round" stroke-linejoin="round"/>
<path d="M3.75 23.25L1.736 20.869C1.09773 20.0711 0.750003 19.0798 0.75 18.058V12.886C0.75 12.0576 1.42157 11.386 2.25 11.386V11.386C3.07843 11.386 3.75 12.0576 3.75 12.886V16.636" stroke="#FB625B" stroke-width="1.5" stroke-linecap="round" stroke-linejoin="round"/>
<path d="M8.25 23.25V20.25C8.25039 19.3602 7.98696 18.4902 7.493 17.75L6.351 16.04C6.15325 15.7125 5.83009 15.4801 5.45663 15.397C5.08318 15.3139 4.69198 15.3873 4.374 15.6V15.6C3.78976 15.9917 3.58689 16.7561 3.9 17.386L5.252 19.636" stroke="#FB625B" stroke-width="1.5" stroke-linecap="round" stroke-linejoin="round"/>
<path d="M20.25 23.25L22.264 20.869C22.9023 20.0711 23.25 19.0798 23.25 18.058V12.886C23.25 12.0576 22.5784 11.386 21.75 11.386V11.386C20.9216 11.386 20.25 12.0576 20.25 12.886V16.636" stroke="#FB625B" stroke-width="1.5" stroke-linecap="round" stroke-linejoin="round"/>
<path d="M15.75 23.25V20.25C15.7496 19.3601 16.013 18.4901 16.507 17.75L17.649 16.038C17.8459 15.7096 18.1687 15.4763 18.5422 15.3922C18.9157 15.3081 19.3074 15.3807 19.626 15.593V15.593C20.2136 15.9845 20.4177 16.7524 20.102 17.384L18.75 19.634" stroke="#FB625B" stroke-width="1.5" stroke-linecap="round" stroke-linejoin="round"/>
</svg>
