<svg width="24" height="24" viewBox="0 0 24 24" fill="none" xmlns="http://www.w3.org/2000/svg">
<path fill-rule="evenodd" clip-rule="evenodd" d="M16.307 2.83802C15.9494 2.69502 15.5506 2.69502 15.193 2.83802L8.807 5.39302C8.44944 5.53603 8.05057 5.53603 7.693 5.39302L1.779 3.02702C1.54728 2.93416 1.28455 2.96267 1.07814 3.10308C0.871741 3.24349 0.748728 3.47739 0.750002 3.72702V18.1C0.7499 18.7135 1.12338 19.2652 1.693 19.493L7.693 21.893C8.05057 22.036 8.44944 22.036 8.807 21.893L15.193 19.338C15.5506 19.195 15.9494 19.195 16.307 19.338L22.221 21.7C22.4527 21.7929 22.7155 21.7644 22.9219 21.624C23.1283 21.4836 23.2513 21.2497 23.25 21V6.63102C23.2501 6.01754 22.8766 5.46583 22.307 5.23802L16.307 2.83802Z" stroke="#FB625B" stroke-width="1.5" stroke-linecap="round" stroke-linejoin="round"/>
<path d="M8.25 5.5V22" stroke="#FB625B" stroke-width="1.5" stroke-linecap="round" stroke-linejoin="round"/>
<path d="M15.75 2.73102V19.231" stroke="#FB625B" stroke-width="1.5" stroke-linecap="round" stroke-linejoin="round"/>
</svg>
