<svg width="24" height="25" viewBox="0 0 24 25" fill="none" xmlns="http://www.w3.org/2000/svg">
<path d="M12.722 16.51L12.711 20.989C12.4864 22.301 11.349 23.2601 10.018 23.26H3.483C1.974 23.26 0.750552 22.037 0.75 20.528V4.99301C0.750552 3.48384 1.97383 2.26056 3.483 2.26001H9.75" stroke="#FB625B" stroke-width="1.5" stroke-linecap="round" stroke-linejoin="round"/>
<path d="M6.75 19.885C6.54289 19.885 6.375 20.0529 6.375 20.26C6.375 20.4671 6.54289 20.635 6.75 20.635C6.95711 20.635 7.125 20.4671 7.125 20.26C7.125 20.0529 6.95711 19.885 6.75 19.885V19.885" stroke="#FB625B" stroke-width="1.5" stroke-linecap="round" stroke-linejoin="round"/>
<path d="M3.75 14.26V14.26C3.75 12.6032 5.09315 11.26 6.75 11.26V11.26C8.40685 11.26 9.75 12.6032 9.75 14.26V14.26" stroke="#FB625B" stroke-width="1.5" stroke-linecap="round" stroke-linejoin="round"/>
<path fill-rule="evenodd" clip-rule="evenodd" d="M6.75 11.26C7.99264 11.26 9 10.2527 9 9.01001C9 7.76737 7.99264 6.76001 6.75 6.76001C5.50736 6.76001 4.5 7.76737 4.5 9.01001C4.5 10.2527 5.50736 11.26 6.75 11.26Z" stroke="#FB625B" stroke-width="1.5" stroke-linecap="round" stroke-linejoin="round"/>
<path fill-rule="evenodd" clip-rule="evenodd" d="M18 0.760004C15.9396 0.750533 14.066 1.95255 13.2157 3.82932C12.3655 5.70609 12.6973 7.90728 14.063 9.45L13.406 13.229L16.829 11.119C18.7941 11.5701 20.8439 10.8551 22.1021 9.27954C23.3603 7.704 23.6041 5.54681 22.7294 3.73016C21.8547 1.91352 20.0163 0.758939 18 0.760004Z" stroke="#FB625B" stroke-width="1.5" stroke-linecap="round" stroke-linejoin="round"/>
</svg>
