<svg width="24" height="25" viewBox="0 0 24 25" fill="none" xmlns="http://www.w3.org/2000/svg">
<path d="M3.046 10.061C2.90716 6.78299 4.57686 3.69278 7.39482 2.01238C10.2128 0.331975 13.7252 0.331975 16.5432 2.01238C19.3611 3.69278 21.0308 6.78299 20.892 10.061" stroke="#FB625B" stroke-width="1.5" stroke-linecap="round" stroke-linejoin="round"/>
<path d="M19.589 18.273C18.2082 20.2141 16.1081 21.5219 13.757 21.905" stroke="#FB625B" stroke-width="1.5" stroke-linecap="round" stroke-linejoin="round"/>
<path fill-rule="evenodd" clip-rule="evenodd" d="M5.775 15.85C5.86468 16.4418 5.71656 17.045 5.363 17.528C4.82794 18.2574 3.9048 18.5907 3.02717 18.3713C2.14955 18.1519 1.49185 17.4234 1.363 16.528L0.776002 12.649C0.685772 12.0572 0.833937 11.4537 1.188 10.971C1.72254 10.2406 2.64613 9.90656 3.52423 10.1261C4.40233 10.3456 5.06007 11.075 5.188 11.971L5.775 15.85Z" stroke="#FB625B" stroke-width="1.5" stroke-linecap="round" stroke-linejoin="round"/>
<path fill-rule="evenodd" clip-rule="evenodd" d="M18.225 15.85C18.1353 16.4418 18.2834 17.045 18.637 17.528C19.1721 18.2574 20.0952 18.5907 20.9728 18.3713C21.8505 18.1519 22.5082 17.4234 22.637 16.528L23.223 12.649C23.3132 12.0572 23.1651 11.4537 22.811 10.971C22.2765 10.2406 21.3529 9.90656 20.4748 10.1261C19.5967 10.3456 18.9389 11.075 18.811 11.971L18.225 15.85Z" stroke="#FB625B" stroke-width="1.5" stroke-linecap="round" stroke-linejoin="round"/>
<path fill-rule="evenodd" clip-rule="evenodd" d="M11.969 23.261C12.9963 23.261 13.829 22.4215 13.829 21.386C13.829 20.3505 12.9963 19.511 11.969 19.511C10.9418 19.511 10.109 20.3505 10.109 21.386C10.109 22.4215 10.9418 23.261 11.969 23.261Z" stroke="#FB625B" stroke-width="1.5" stroke-linecap="round" stroke-linejoin="round"/>
</svg>
