<svg width="25" height="24" viewBox="0 0 25 24" fill="none" xmlns="http://www.w3.org/2000/svg">
<path fill-rule="evenodd" clip-rule="evenodd" d="M12.75 0.749988C8.93933 0.744494 5.42568 2.80692 3.5728 6.1368C1.71991 9.46667 1.81953 13.5397 3.833 16.775L0.75 23.25L7.224 20.166C11.0101 22.5209 15.8706 22.2279 19.3464 19.4351C22.8222 16.6424 24.1551 11.959 22.6708 7.75458C21.1865 3.55015 17.2087 0.741629 12.75 0.749988Z" stroke="#FB625B" stroke-width="1.5" stroke-linecap="round" stroke-linejoin="round"/>
<path d="M12.75 15C12.5429 15 12.375 15.1679 12.375 15.375C12.375 15.5821 12.5429 15.75 12.75 15.75C12.9571 15.75 13.125 15.5821 13.125 15.375C13.125 15.1679 12.9571 15 12.75 15" stroke="#FB625B" stroke-width="1.5" stroke-linecap="round" stroke-linejoin="round"/>
<path d="M9.75 9.75C9.75 8.09315 11.0931 6.75 12.75 6.75C14.4069 6.75 15.75 8.09315 15.75 9.75C15.75 11.4069 14.4069 12.75 12.75 12.75" stroke="#FB625B" stroke-width="1.5" stroke-linecap="round" stroke-linejoin="round"/>
</svg>
