<svg width="24" height="24" viewBox="0 0 24 24" fill="none" xmlns="http://www.w3.org/2000/svg">
<path d="M9.754 23.25H3.754C2.09714 23.25 0.753998 21.9069 0.753998 20.25V3.75C0.753998 2.09315 2.09714 0.75 3.754 0.75H11.254C12.9109 0.75 14.254 2.09315 14.254 3.75V9.75" stroke="#FB625B" stroke-width="1.5" stroke-linecap="round" stroke-linejoin="round"/>
<path d="M0.753998 18.75H9.754" stroke="#FB625B" stroke-width="1.5" stroke-linecap="round" stroke-linejoin="round"/>
<path d="M9.379 6.75H7.346C6.70338 6.75045 6.15127 7.20639 6.02932 7.83734C5.90738 8.46828 6.24983 9.09712 6.846 9.337L8.91 10.162C9.50756 10.401 9.85128 11.0307 9.72919 11.6626C9.60711 12.2945 9.0536 12.7507 8.41 12.75H6.379" stroke="#FB625B" stroke-width="1.5" stroke-linecap="round" stroke-linejoin="round"/>
<path d="M7.879 6.75V6" stroke="#FB625B" stroke-width="1.5" stroke-linecap="round" stroke-linejoin="round"/>
<path d="M7.879 13.5V12.75" stroke="#FB625B" stroke-width="1.5" stroke-linecap="round" stroke-linejoin="round"/>
<path fill-rule="evenodd" clip-rule="evenodd" d="M21.526 13.507H14.474C14.0884 13.5224 13.7778 13.8287 13.757 14.214L12.757 22.378C12.727 22.5907 12.7876 22.8062 12.9241 22.972C13.0607 23.1378 13.2605 23.2386 13.475 23.25H22.523C22.7375 23.2386 22.9373 23.1378 23.0739 22.972C23.2104 22.8062 23.271 22.5907 23.241 22.378L22.241 14.214C22.2202 13.8294 21.9108 13.5234 21.526 13.507Z" stroke="#FB625B" stroke-width="1.5" stroke-linecap="round" stroke-linejoin="round"/>
<path d="M19.84 16.478C19.6693 17.3599 18.8983 17.9977 18 18V18C17.1049 17.9981 16.3354 17.365 16.161 16.487" stroke="#FB625B" stroke-width="1.5" stroke-linecap="round" stroke-linejoin="round"/>
</svg>
