<svg width="24" height="24" viewBox="0 0 24 24" fill="none" xmlns="http://www.w3.org/2000/svg">
<path d="M15.375 15V19.767C15.3744 21.2762 14.1512 22.4994 12.642 22.5H6.107C4.598 22.4994 3.375 21.276 3.375 19.767V4.232C3.375 2.72316 4.59816 1.5 6.107 1.5H13.875" stroke="#FB625B" stroke-width="1.5" stroke-linecap="round" stroke-linejoin="round"/>
<path d="M3.375 18H15.375" stroke="#FB625B" stroke-width="1.5" stroke-linecap="round" stroke-linejoin="round"/>
<path d="M20.625 1.5L18.375 9H12.375L10.875 4.5H19.725" stroke="#FB625B" stroke-width="1.5" stroke-linecap="round" stroke-linejoin="round"/>
<path d="M12.75 11.25C12.9571 11.25 13.125 11.4179 13.125 11.625C13.125 11.8321 12.9571 12 12.75 12C12.5429 12 12.375 11.8321 12.375 11.625C12.375 11.4179 12.5429 11.25 12.75 11.25" stroke="#FB625B" stroke-width="1.5" stroke-linecap="round" stroke-linejoin="round"/>
<path d="M18 11.25C18.2071 11.25 18.375 11.4179 18.375 11.625C18.375 11.8321 18.2071 12 18 12C17.7929 12 17.625 11.8321 17.625 11.625C17.625 11.4179 17.7929 11.25 18 11.25" stroke="#FB625B" stroke-width="1.5" stroke-linecap="round" stroke-linejoin="round"/>
</svg>
