<svg width="24" height="25" viewBox="0 0 24 25" fill="none" xmlns="http://www.w3.org/2000/svg">
<path d="M23.136 24.25L23.236 23.127C23.3725 21.6244 22.3718 20.2543 20.899 19.927L17.428 19.116V13.375C17.4175 12.8693 17.2058 12.3886 16.8398 12.0395C16.4738 11.6904 15.9837 11.5016 15.478 11.515C14.984 11.4945 14.5047 11.686 14.1609 12.0414C13.817 12.3967 13.6413 12.8819 13.678 13.375V22.575L12.2 21.472C11.5898 21.0163 10.7376 21.0776 10.199 21.616C9.66031 22.1544 9.59858 23.0066 10.054 23.617L10.529 24.25" stroke="#FB625B" stroke-width="1.5" stroke-linecap="round" stroke-linejoin="round"/>
<path d="M9 18.25C4.74014 18.2487 1.18173 15.0043 0.787915 10.7627C0.394097 6.52109 3.29438 2.67708 7.48117 1.8915C11.668 1.10593 15.7644 3.63713 16.935 7.73301" stroke="#FB625B" stroke-width="1.5" stroke-linecap="round" stroke-linejoin="round"/>
<path d="M11.357 6.46401H8.048C7.66664 6.43345 7.29108 6.57178 7.02065 6.8424C6.75022 7.11302 6.61217 7.48868 6.643 7.87001C6.643 9.41001 11.357 10.589 11.357 12.13C11.3624 12.503 11.2167 12.8622 10.953 13.126C10.6892 13.3897 10.3299 13.5355 9.957 13.53H6.643" stroke="#FB625B" stroke-width="1.5" stroke-linecap="round" stroke-linejoin="round"/>
<path d="M9 6.46401V4.69601" stroke="#FB625B" stroke-width="1.5" stroke-linecap="round" stroke-linejoin="round"/>
<path d="M9 15.303V13.535" stroke="#FB625B" stroke-width="1.5" stroke-linecap="round" stroke-linejoin="round"/>
</svg>
