<svg width="25" height="24" viewBox="0 0 25 24" fill="none" xmlns="http://www.w3.org/2000/svg">
<path d="M14.236 0.816986C14.485 0.844986 14.736 0.879986 14.979 0.923986" stroke="#FB625B" stroke-width="1.5" stroke-linecap="round" stroke-linejoin="round"/>
<path d="M19.111 2.61099L19.725 3.04199" stroke="#FB625B" stroke-width="1.5" stroke-linecap="round" stroke-linejoin="round"/>
<path d="M22.728 6.345C22.854 6.561 22.972 6.782 23.084 7.006" stroke="#FB625B" stroke-width="1.5" stroke-linecap="round" stroke-linejoin="round"/>
<path d="M9.94899 22.822C9.70627 22.762 9.46803 22.6851 9.23599 22.592" stroke="#FB625B" stroke-width="1.5" stroke-linecap="round" stroke-linejoin="round"/>
<path d="M5.434 20.258L4.899 19.734" stroke="#FB625B" stroke-width="1.5" stroke-linecap="round" stroke-linejoin="round"/>
<path d="M2.47699 15.986C2.38766 15.7507 2.30666 15.5137 2.23399 15.275" stroke="#FB625B" stroke-width="1.5" stroke-linecap="round" stroke-linejoin="round"/>
<path fill-rule="evenodd" clip-rule="evenodd" d="M18.25 23.25C21.5637 23.25 24.25 20.5637 24.25 17.25C24.25 13.9363 21.5637 11.25 18.25 11.25C14.9363 11.25 12.25 13.9363 12.25 17.25C12.25 20.5637 14.9363 23.25 18.25 23.25Z" stroke="#FB625B" stroke-width="1.5" stroke-linecap="round" stroke-linejoin="round"/>
<path d="M20.924 15.505L18.019 19.379C17.8883 19.5528 17.6887 19.6615 17.4717 19.6768C17.2548 19.6922 17.0419 19.6127 16.888 19.459L15.388 17.959" stroke="#FB625B" stroke-width="1.5" stroke-linecap="round" stroke-linejoin="round"/>
<path d="M9.222 3.75H7.189C6.54638 3.75045 5.99427 4.20639 5.87232 4.83734C5.75038 5.46828 6.09283 6.09712 6.689 6.337L8.753 7.162C9.35056 7.40104 9.69428 8.03066 9.57219 8.66257C9.45011 9.29448 8.8966 9.75075 8.253 9.75H6.222" stroke="#FB625B" stroke-width="1.5" stroke-linecap="round" stroke-linejoin="round"/>
<path d="M7.722 3.75V3" stroke="#FB625B" stroke-width="1.5" stroke-linecap="round" stroke-linejoin="round"/>
<path d="M7.722 10.5V9.75" stroke="#FB625B" stroke-width="1.5" stroke-linecap="round" stroke-linejoin="round"/>
<path fill-rule="evenodd" clip-rule="evenodd" d="M7.722 12.75C11.0357 12.75 13.722 10.0637 13.722 6.75C13.722 3.43629 11.0357 0.75 7.722 0.75C4.40829 0.75 1.722 3.43629 1.722 6.75C1.722 10.0637 4.40829 12.75 7.722 12.75Z" stroke="#FB625B" stroke-width="1.5" stroke-linecap="round" stroke-linejoin="round"/>
</svg>
