<svg width="24" height="25" viewBox="0 0 24 25" fill="none" xmlns="http://www.w3.org/2000/svg">
<path d="M10.5 23.32H3.684" stroke="#FB625B" stroke-width="1.5" stroke-linecap="round" stroke-linejoin="round"/>
<path fill-rule="evenodd" clip-rule="evenodd" d="M13.1 16.001C13.2319 15.6403 13.5869 15.3993 13.985 15.4H22.313C22.6123 15.3989 22.8943 15.5343 23.073 15.7648C23.249 15.9927 23.2972 16.2891 23.202 16.5578L20.8 23.32H10.5L13.1 16.001Z" stroke="#FB625B" stroke-width="1.5" stroke-linecap="round" stroke-linejoin="round"/>
<path d="M16.891 18.1341C17.4433 18.1341 17.891 18.5639 17.891 19.0941C17.891 19.6243 17.4433 20.0541 16.891 20.0541C16.3387 20.0541 15.891 19.6243 15.891 19.0941C15.891 18.5639 16.3387 18.1341 16.891 18.1341" stroke="#FB625B" stroke-width="1.5" stroke-linecap="round" stroke-linejoin="round"/>
<path d="M0.75 23.32C0.751244 21.2597 1.77197 19.3224 3.50007 18.1006C5.22816 16.8789 7.4581 16.5178 9.508 17.128" stroke="#FB625B" stroke-width="1.5" stroke-linecap="round" stroke-linejoin="round"/>
<path d="M3.945 9.42975C5.92565 11.3987 8.96874 11.9858 11.588 10.9043" stroke="#FB625B" stroke-width="1.5" stroke-linecap="round" stroke-linejoin="round"/>
<path fill-rule="evenodd" clip-rule="evenodd" d="M7.5 15.4C9.77817 15.4 11.625 13.6271 11.625 11.44C11.625 9.25296 9.77817 7.48001 7.5 7.48001C5.22183 7.48001 3.375 9.25296 3.375 11.44C3.375 13.6271 5.22183 15.4 7.5 15.4Z" stroke="#FB625B" stroke-width="1.5" stroke-linecap="round" stroke-linejoin="round"/>
<path d="M19.125 3.16001H16.5C15.8559 3.15804 15.3013 3.59597 15.1791 4.20307C15.0569 4.81018 15.4015 5.41495 16 5.64353L18.655 6.43553C19.2526 6.66501 19.5963 7.26944 19.4742 7.87607C19.3521 8.48271 18.7986 8.92073 18.155 8.92001H15" stroke="#FB625B" stroke-width="1.5" stroke-linecap="round" stroke-linejoin="round"/>
<path d="M17.25 3.16V1.72" stroke="#FB625B" stroke-width="1.5" stroke-linecap="round" stroke-linejoin="round"/>
<path d="M17.25 10.36V8.92001" stroke="#FB625B" stroke-width="1.5" stroke-linecap="round" stroke-linejoin="round"/>
</svg>
