<svg width="24" height="24" viewBox="0 0 24 24" fill="none" xmlns="http://www.w3.org/2000/svg">
<path d="M0.75 20.25C0.75 16.5221 3.77208 13.5 7.5 13.5C11.2279 13.5 14.25 16.5221 14.25 20.25" stroke="#FB625B" stroke-width="1.5" stroke-linecap="round" stroke-linejoin="round"/>
<path d="M3.945 5.78101C5.92533 7.83187 8.96805 8.44344 11.587 7.31701" stroke="#FB625B" stroke-width="1.5" stroke-linecap="round" stroke-linejoin="round"/>
<path fill-rule="evenodd" clip-rule="evenodd" d="M7.5 12C9.77817 12 11.625 10.1532 11.625 7.875C11.625 5.59683 9.77817 3.75 7.5 3.75C5.22183 3.75 3.375 5.59683 3.375 7.875C3.375 10.1532 5.22183 12 7.5 12Z" stroke="#FB625B" stroke-width="1.5" stroke-linecap="round" stroke-linejoin="round"/>
<path d="M15 13.6671C17.0024 13.2134 19.1025 13.6948 20.7074 14.9754C22.3123 16.256 23.2479 18.1969 23.25 20.2501" stroke="#FB625B" stroke-width="1.5" stroke-linecap="round" stroke-linejoin="round"/>
<path d="M14.251 4.41604C15.8858 3.35391 18.0409 3.58127 19.4181 4.96116C20.7952 6.34104 21.0183 8.49665 19.9529 10.1293C18.8876 11.762 16.8246 12.4259 15.007 11.721" stroke="#FB625B" stroke-width="1.5" stroke-linecap="round" stroke-linejoin="round"/>
<path d="M20.612 8.20007L20.623 8.97807C20.5841 10.1293 20.8831 11.2667 21.483 12.2501" stroke="#FB625B" stroke-width="1.5" stroke-linecap="round" stroke-linejoin="round"/>
<path d="M14.247 7.86705C15.1166 7.5426 15.8911 7.00561 16.5 6.30505C17.5328 7.50143 19.0316 8.19397 20.612 8.20505" stroke="#FB625B" stroke-width="1.5" stroke-linecap="round" stroke-linejoin="round"/>
</svg>
