<svg width="24" height="24" viewBox="0 0 24 24" fill="none" xmlns="http://www.w3.org/2000/svg">
<path fill-rule="evenodd" clip-rule="evenodd" d="M21.75 8.25H13.5L12 9.749L10.5 8.249H2.25C1.42157 8.249 0.75 7.57743 0.75 6.749V2.25C0.75 1.42157 1.42157 0.75 2.25 0.75H21.75C22.5784 0.75 23.25 1.42157 23.25 2.25V6.75C23.25 7.57843 22.5784 8.25 21.75 8.25Z" stroke="#FB625B" stroke-width="1.5" stroke-linecap="round" stroke-linejoin="round"/>
<path fill-rule="evenodd" clip-rule="evenodd" d="M3.375 19.5C4.82475 19.5 6 18.3247 6 16.875C6 15.4253 4.82475 14.25 3.375 14.25C1.92525 14.25 0.75 15.4253 0.75 16.875C0.75 18.3247 1.92525 19.5 3.375 19.5Z" stroke="#FB625B" stroke-width="1.5" stroke-linecap="round" stroke-linejoin="round"/>
<path d="M7.514 22.9829C6.97684 21.7279 5.89899 20.7845 4.58383 20.4184C3.26867 20.0523 1.85841 20.303 0.75 21.0999" stroke="#FB625B" stroke-width="1.5" stroke-linecap="round" stroke-linejoin="round"/>
<path fill-rule="evenodd" clip-rule="evenodd" d="M20.625 19.5C22.0747 19.5 23.25 18.3247 23.25 16.875C23.25 15.4253 22.0747 14.25 20.625 14.25C19.1753 14.25 18 15.4253 18 16.875C18 18.3247 19.1753 19.5 20.625 19.5Z" stroke="#FB625B" stroke-width="1.5" stroke-linecap="round" stroke-linejoin="round"/>
<path d="M16.486 22.9829C17.0232 21.7279 18.101 20.7845 19.4162 20.4184C20.7313 20.0523 22.1416 20.303 23.25 21.0999" stroke="#FB625B" stroke-width="1.5" stroke-linecap="round" stroke-linejoin="round"/>
<path fill-rule="evenodd" clip-rule="evenodd" d="M12 19.5C13.864 19.5 15.375 17.989 15.375 16.125C15.375 14.261 13.864 12.75 12 12.75C10.136 12.75 8.625 14.261 8.625 16.125C8.625 17.989 10.136 19.5 12 19.5Z" stroke="#FB625B" stroke-width="1.5" stroke-linecap="round" stroke-linejoin="round"/>
<path d="M16.714 23.249C15.5623 21.8264 13.8298 21 11.9995 21C10.1692 21 8.43673 21.8264 7.285 23.249" stroke="#FB625B" stroke-width="1.5" stroke-linecap="round" stroke-linejoin="round"/>
</svg>
