<svg width="24" height="24" viewBox="0 0 24 24" fill="none" xmlns="http://www.w3.org/2000/svg">
<path d="M18.75 14.25H16.717C16.0744 14.2504 15.5223 14.7064 15.4003 15.3373C15.2784 15.9683 15.6208 16.5971 16.217 16.837L18.281 17.663C18.8772 17.9029 19.2196 18.5317 19.0977 19.1627C18.9757 19.7936 18.4236 20.2496 17.781 20.25H15.75" stroke="#FB625B" stroke-width="1.5" stroke-linecap="round" stroke-linejoin="round"/>
<path d="M17.25 14.25V13.5" stroke="#FB625B" stroke-width="1.5" stroke-linecap="round" stroke-linejoin="round"/>
<path d="M17.25 21V20.25" stroke="#FB625B" stroke-width="1.5" stroke-linecap="round" stroke-linejoin="round"/>
<path fill-rule="evenodd" clip-rule="evenodd" d="M17.25 23.25C20.5637 23.25 23.25 20.5637 23.25 17.25C23.25 13.9363 20.5637 11.25 17.25 11.25C13.9363 11.25 11.25 13.9363 11.25 17.25C11.25 20.5637 13.9363 23.25 17.25 23.25Z" stroke="#FB625B" stroke-width="1.5" stroke-linecap="round" stroke-linejoin="round"/>
<path d="M8.25 20.25H2.25C1.8492 20.26 1.46184 20.1052 1.17834 19.8217C0.894844 19.5382 0.740017 19.1508 0.75 18.75V3.857C0.721335 2.99936 1.39242 2.2804 2.25 2.25H17.25C18.1076 2.2804 18.7787 2.99936 18.75 3.857V8.25" stroke="#FB625B" stroke-width="1.5" stroke-linecap="round" stroke-linejoin="round"/>
<path d="M5.25 0.75V5.25" stroke="#FB625B" stroke-width="1.5" stroke-linecap="round" stroke-linejoin="round"/>
<path d="M9.75 0.75V5.25" stroke="#FB625B" stroke-width="1.5" stroke-linecap="round" stroke-linejoin="round"/>
<path d="M14.25 0.75V5.25" stroke="#FB625B" stroke-width="1.5" stroke-linecap="round" stroke-linejoin="round"/>
</svg>
