<svg width="24" height="25" viewBox="0 0 24 25" fill="none" xmlns="http://www.w3.org/2000/svg">
<path fill-rule="evenodd" clip-rule="evenodd" d="M22.494 22.748C22.494 23.5764 21.8224 24.248 20.994 24.248H2.994C2.16558 24.248 1.494 23.5764 1.494 22.748V3.248C1.494 2.41957 2.16558 1.748 2.994 1.748H17.994C18.3852 1.74804 18.7609 1.90091 19.041 2.174L22.041 5.057C22.3306 5.33929 22.494 5.72657 22.494 6.131V22.748Z" stroke="#FB625B" stroke-width="1.5" stroke-linecap="round" stroke-linejoin="round"/>
<path fill-rule="evenodd" clip-rule="evenodd" d="M9.49 8.085C9.41871 7.56785 9.24572 7.06994 8.981 6.62C8.70711 6.16566 8.22219 5.8805 7.692 5.862C7.00821 5.93563 6.46209 6.46485 6.367 7.146C6.29254 7.81562 6.46578 8.48934 6.854 9.04C8.07742 10.4486 9.39226 11.7752 10.79 13.011C12.3552 14.2793 14.1262 15.27 16.026 15.94C16.5465 16.1831 17.1156 16.3041 17.69 16.294C18.2775 16.2704 18.7854 15.8769 18.955 15.314C19.0187 14.8546 18.8346 14.3959 18.471 14.108C18.1097 13.8292 17.6845 13.645 17.234 13.572C15.441 13.3101 13.611 13.5044 11.913 14.137C10.291 14.637 5.551 16.203 5.769 20.188C5.775 20.288 5.762 20.95 6.616 20.854C7.32635 20.7154 7.94597 20.2852 8.324 19.668C9.417 18.125 9.531 16.158 9.674 14.337C9.88494 12.2539 9.82309 10.1521 9.49 8.085Z" stroke="#FB625B" stroke-width="1.5" stroke-linecap="round" stroke-linejoin="round"/>
</svg>
