<svg width="25" height="25" viewBox="0 0 25 25" fill="none" xmlns="http://www.w3.org/2000/svg">
<path d="M4.503 20.498V12.998" stroke="#FB625B" stroke-width="1.5" stroke-linecap="round" stroke-linejoin="round"/>
<path d="M4.5 13H5.25C6.49264 13 7.5 14.0074 7.5 15.25C7.5 16.4926 6.49264 17.5 5.25 17.5H4.5" stroke="#FB625B" stroke-width="1.5" stroke-linecap="round" stroke-linejoin="round"/>
<path d="M10.503 20.498V12.998" stroke="#FB625B" stroke-width="1.5" stroke-linecap="round" stroke-linejoin="round"/>
<path d="M10.5 13H11.25C12.4926 13 13.5 14.0074 13.5 15.25C13.5 16.4926 12.4926 17.5 11.25 17.5H10.5" stroke="#FB625B" stroke-width="1.5" stroke-linecap="round" stroke-linejoin="round"/>
<path d="M18.003 20.498V12.998" stroke="#FB625B" stroke-width="1.5" stroke-linecap="round" stroke-linejoin="round"/>
<path d="M16.503 12.998H19.503" stroke="#FB625B" stroke-width="1.5" stroke-linecap="round" stroke-linejoin="round"/>
<path fill-rule="evenodd" clip-rule="evenodd" d="M22.814 6.55899C23.095 6.84018 23.2529 7.22144 23.253 7.61899V22C23.2525 22.5969 23.0148 23.1691 22.5922 23.5907C22.1697 24.0124 21.5969 24.2488 21 24.248H3C1.75931 24.2463 0.754102 23.2407 0.753 22V3.99999C0.751895 2.75774 1.75775 1.74964 3 1.74799H17.382C17.7795 1.74807 18.1608 1.90597 18.442 2.18699L22.814 6.55899Z" stroke="#FB625B" stroke-width="1.5" stroke-linecap="round" stroke-linejoin="round"/>
<path d="M17.253 1.74799V6.24799C17.253 7.07641 17.9246 7.74799 18.753 7.74799H23.253" stroke="#FB625B" stroke-width="1.5" stroke-linecap="round" stroke-linejoin="round"/>
</svg>
