<svg width="24" height="25" viewBox="0 0 24 25" fill="none" xmlns="http://www.w3.org/2000/svg">
<path fill-rule="evenodd" clip-rule="evenodd" d="M9.16401 14.293C10.0321 13.3962 11.457 13.3553 12.375 14.201C13.22 15.1189 13.1792 16.543 12.283 17.411C11.402 18.294 7.53101 19.043 7.53101 19.043C7.53101 19.043 8.28301 15.174 9.16401 14.293Z" stroke="#FB625B" stroke-width="1.5" stroke-linecap="round" stroke-linejoin="round"/>
<path d="M12.73 6.568L16.369 2.929C16.6447 2.65329 17.0186 2.49839 17.4085 2.49839C17.7984 2.49839 18.1723 2.65329 18.448 2.929L19.488 3.969" stroke="#FB625B" stroke-width="1.5" stroke-linecap="round" stroke-linejoin="round"/>
<path fill-rule="evenodd" clip-rule="evenodd" d="M11.17 12.286L19.488 3.969C20.3505 3.11076 21.7445 3.11076 22.607 3.969V3.969C23.4641 4.832 23.4641 6.225 22.607 7.088L14.289 15.405L11.17 12.286Z" stroke="#FB625B" stroke-width="1.5" stroke-linecap="round" stroke-linejoin="round"/>
<path d="M16.369 7.088L19.488 10.207" stroke="#FB625B" stroke-width="1.5" stroke-linecap="round" stroke-linejoin="round"/>
<path d="M21.22 14.5C21.22 18.541 21.645 20.825 19.462 23.008L18.33 24.139C18.2591 24.2089 18.1636 24.2481 18.064 24.248H1.125C0.973431 24.2479 0.836844 24.1565 0.778858 24.0165C0.720872 23.8764 0.752891 23.7152 0.860002 23.608L1.46 23.008C3.725 20.743 3.22 19.294 3.22 7.234C3.22 4.086 5.568 2.4 6.22 1.748H10.668" stroke="#FB625B" stroke-width="1.5" stroke-linecap="round" stroke-linejoin="round"/>
</svg>
