<svg xmlns="http://www.w3.org/2000/svg" width="40" height="40" fill="none" viewBox="0 0 40 40">
    <path fill="#FB625B" d="M16.547 6.553c-4.28.123-8.337 1.937-11.282 5.044C2.32 14.705.726 18.853.833 23.133v2.072c0 1.63.483 3.222 1.388 4.577.905 1.355 2.191 2.41 3.696 3.034 1.505.624 3.162.787 4.76.47 1.597-.319 3.065-1.103 4.217-2.255 1.152-1.152 1.937-2.62 2.254-4.218.318-1.598.155-3.254-.469-4.76-.623-1.504-1.68-2.79-3.034-3.696-1.355-.904-2.947-1.387-4.577-1.387-.626.002-1.25.08-1.858.233-.08.02-.163.016-.24-.011-.077-.027-.145-.077-.194-.142-.05-.066-.078-.144-.083-.226-.005-.082.014-.163.055-.234.972-1.755 2.39-3.222 4.11-4.252 1.72-1.031 3.683-1.59 5.689-1.618.552 0 1.082-.22 1.473-.61.39-.39.61-.92.61-1.473s-.22-1.083-.61-1.473c-.39-.391-.92-.61-1.473-.61zM37.083 10.72c.553 0 1.083-.22 1.474-.61.39-.39.61-.92.61-1.473s-.22-1.083-.61-1.473c-.391-.391-.921-.61-1.474-.61-4.28.122-8.336 1.936-11.28 5.044-2.946 3.107-4.54 7.255-4.433 11.535v2.072c0 1.63.482 3.222 1.387 4.577.905 1.354 2.191 2.41 3.696 3.034 1.506.624 3.162.787 4.76.47 1.597-.318 3.065-1.103 4.217-2.255 1.152-1.151 1.937-2.619 2.255-4.217.318-1.598.155-3.254-.468-4.759-.624-1.505-1.68-2.792-3.034-3.697-1.355-.905-2.947-1.388-4.576-1.388-.627.002-1.252.08-1.86.233-.08.02-.163.016-.24-.01-.077-.028-.145-.078-.194-.143-.049-.066-.078-.144-.082-.226-.006-.082.013-.163.054-.234.972-1.755 2.39-3.222 4.11-4.252 1.72-1.031 3.683-1.59 5.688-1.618z"/>
</svg>
