<svg width="24" height="24" viewBox="0 0 24 24" fill="none" xmlns="http://www.w3.org/2000/svg">
<path d="M12 6.5C13.3807 6.5 14.5 5.38071 14.5 4C14.5 2.61929 13.3807 1.5 12 1.5C10.6193 1.5 9.5 2.61929 9.5 4C9.5 5.38071 10.6193 6.5 12 6.5Z" stroke="#FB625B" stroke-miterlimit="10" stroke-linejoin="round"/>
<path d="M19 6.5C19.8284 6.5 20.5 5.82843 20.5 5C20.5 4.17157 19.8284 3.5 19 3.5C18.1716 3.5 17.5 4.17157 17.5 5C17.5 5.82843 18.1716 6.5 19 6.5Z" stroke="#FB625B" stroke-miterlimit="10" stroke-linejoin="round"/>
<path d="M5 6.5C5.82843 6.5 6.5 5.82843 6.5 5C6.5 4.17157 5.82843 3.5 5 3.5C4.17157 3.5 3.5 4.17157 3.5 5C3.5 5.82843 4.17157 6.5 5 6.5Z" stroke="#FB625B" stroke-miterlimit="10" stroke-linejoin="round"/>
<path d="M17 18.698C20.848 19.022 23.5 19.708 23.5 20.5C23.5 21.604 18.352 22.5 12 22.5C5.649 22.5 0.5 21.604 0.5 20.5C0.5 19.71 3.135 19.027 6.958 18.702" stroke="#FB625B" stroke-miterlimit="10" stroke-linecap="round" stroke-linejoin="round"/>
<path d="M14.5 17.5H9.5V11C9.5 9.619 10.619 8.5 12 8.5C13.381 8.5 14.5 9.619 14.5 11V17.5Z" stroke="#FB625B" stroke-miterlimit="10" stroke-linejoin="round"/>
<path d="M20.5 15.5H17.5V10C17.5 9.172 18.172 8.5 19 8.5C19.828 8.5 20.5 9.172 20.5 10V15.5Z" stroke="#FB625B" stroke-miterlimit="10" stroke-linejoin="round"/>
<path d="M6.5 15.5H3.5V10C3.5 9.172 4.172 8.5 5 8.5C5.828 8.5 6.5 9.172 6.5 10V15.5Z" stroke="#FB625B" stroke-miterlimit="10" stroke-linejoin="round"/>
</svg>
