<svg width="24" height="24" viewBox="0 0 24 24" fill="none" xmlns="http://www.w3.org/2000/svg">
<path fill-rule="evenodd" clip-rule="evenodd" d="M9 3.75H6.75V1.5C6.75 1.08579 6.41421 0.75 6 0.75H4.5C4.08579 0.75 3.75 1.08579 3.75 1.5V3.75H1.5C1.08579 3.75 0.75 4.08579 0.75 4.5V6C0.75 6.41421 1.08579 6.75 1.5 6.75H3.75V9C3.75 9.41421 4.08579 9.75 4.5 9.75H6C6.41421 9.75 6.75 9.41421 6.75 9V6.75H9C9.41421 6.75 9.75 6.41421 9.75 6V4.5C9.75 4.08579 9.41421 3.75 9 3.75Z" stroke="#FB625B" stroke-width="1.5" stroke-linecap="round" stroke-linejoin="round"/>
<path d="M14.25 20.2499H5.25C3.59315 20.2499 2.25 18.9068 2.25 17.2499V15.7499C2.25 14.0931 3.59315 12.7499 5.25 12.7499H12.9C13.9407 12.7494 14.9071 12.2108 15.455 11.3259C15.6329 11.0337 15.7858 10.7269 15.912 10.4089C16.2552 9.55718 17.0817 8.99949 18 8.99993C18.6095 8.95459 19.2085 9.17704 19.6407 9.60922C20.0729 10.0414 20.2953 10.6404 20.25 11.2499C20.25 12.0784 20.9216 12.7499 21.75 12.7499C22.5784 12.7499 23.25 13.4215 23.25 14.2499C23.25 15.0784 22.5784 15.7499 21.75 15.7499H19.5L17.364 18.7379C16.8299 19.6729 15.8358 20.2499 14.759 20.2499H14.25" stroke="#FB625B" stroke-width="1.5" stroke-linecap="round" stroke-linejoin="round"/>
<path d="M0.75 10.5C0.75 10.5 0.75 13.746 3.283 13.485" stroke="#FB625B" stroke-width="1.5" stroke-linecap="round" stroke-linejoin="round"/>
<path d="M14.25 20.25V23.25" stroke="#FB625B" stroke-width="1.5" stroke-linecap="round" stroke-linejoin="round"/>
<path d="M17.25 23.25L16.522 19.677" stroke="#FB625B" stroke-width="1.5" stroke-linecap="round" stroke-linejoin="round"/>
<path d="M3.75 19.8491V23.2501" stroke="#FB625B" stroke-width="1.5" stroke-linecap="round" stroke-linejoin="round"/>
<path d="M6.75 20.25V23.25" stroke="#FB625B" stroke-width="1.5" stroke-linecap="round" stroke-linejoin="round"/>
<path d="M18.488 17.1661L14.105 12.4961" stroke="#FB625B" stroke-width="1.5" stroke-linecap="round" stroke-linejoin="round"/>
</svg>
