<svg width="24" height="24" viewBox="0 0 24 24" fill="none" xmlns="http://www.w3.org/2000/svg">
<path d="M15 15.75V20.518C15 21.2427 14.712 21.9378 14.1995 22.4502C13.6869 22.9625 12.9917 23.2503 12.267 23.25H5.733C5.00826 23.2503 4.3131 22.9625 3.80054 22.4502C3.28797 21.9378 3 21.2427 3 20.518V4.983C3 3.47361 4.22361 2.25 5.733 2.25H7.5" stroke="#FB625B" stroke-width="1.5" stroke-linecap="round" stroke-linejoin="round"/>
<path d="M3 18.75H15" stroke="#FB625B" stroke-width="1.5" stroke-linecap="round" stroke-linejoin="round"/>
<path fill-rule="evenodd" clip-rule="evenodd" d="M15 12.75C18.3137 12.75 21 10.0637 21 6.75C21 3.43629 18.3137 0.75 15 0.75C11.6863 0.75 9 3.43629 9 6.75C9 10.0637 11.6863 12.75 15 12.75Z" stroke="#FB625B" stroke-width="1.5" stroke-linecap="round" stroke-linejoin="round"/>
<path d="M17.674 5.006L14.774 8.879C14.6433 9.05267 14.4438 9.16127 14.2269 9.1768C14.0101 9.19233 13.7972 9.11327 13.643 8.96L12.143 7.46" stroke="#FB625B" stroke-width="1.5" stroke-linecap="round" stroke-linejoin="round"/>
</svg>
