<svg width="24" height="24" viewBox="0 0 24 24" fill="none" xmlns="http://www.w3.org/2000/svg">
<path d="M18 11.289V20.518C17.9994 22.027 16.776 23.25 15.267 23.25H8.733C8.00826 23.2503 7.3131 22.9625 6.80054 22.4502C6.28797 21.9378 6 21.2427 6 20.518V9.02899" stroke="#FB625B" stroke-width="1.5" stroke-linecap="round" stroke-linejoin="round"/>
<path d="M6.00101 18.75H18.001" stroke="#FB625B" stroke-width="1.5" stroke-linecap="round" stroke-linejoin="round"/>
<path d="M11.945 10.556C12.3882 11.0012 12.9908 11.251 13.619 11.25H15V14.25L18.039 11.25H20.131C21.439 11.25 22.4995 10.19 22.5 8.882V5.369C22.5 4.06103 21.44 3.00055 20.132 3H16.5" stroke="#FB625B" stroke-width="1.5" stroke-linecap="round" stroke-linejoin="round"/>
<path d="M15.376 6.75C15.1689 6.75 15.001 6.91789 15.001 7.125C15.001 7.33211 15.1689 7.5 15.376 7.5C15.5831 7.5 15.751 7.33211 15.751 7.125C15.751 6.91789 15.5831 6.75 15.376 6.75" stroke="#FB625B" stroke-width="1.5" stroke-linecap="round" stroke-linejoin="round"/>
<path d="M19.126 6.75C18.9189 6.75 18.751 6.91789 18.751 7.125C18.751 7.33211 18.9189 7.5 19.126 7.5C19.3331 7.5 19.501 7.33211 19.501 7.125C19.501 6.91789 19.3331 6.75 19.126 6.75" stroke="#FB625B" stroke-width="1.5" stroke-linecap="round" stroke-linejoin="round"/>
<path fill-rule="evenodd" clip-rule="evenodd" d="M3.869 0.75H10.382C11.6904 0.75 12.751 1.81064 12.751 3.119V5.882C12.7504 7.18997 11.69 8.25 10.382 8.25H8.251V11.25L5.211 8.25H3.869C3.24079 8.25027 2.63823 8.0009 2.19392 7.55678C1.74962 7.11267 1.5 6.51021 1.5 5.882V3.119C1.5 1.81064 2.56064 0.75 3.869 0.75Z" stroke="#FB625B" stroke-width="1.5" stroke-linecap="round" stroke-linejoin="round"/>
<path d="M9.12601 4.5C9.33311 4.5 9.50101 4.66789 9.50101 4.875C9.50101 5.08211 9.33311 5.25 9.12601 5.25C8.9189 5.25 8.75101 5.08211 8.75101 4.875C8.75101 4.66789 8.9189 4.5 9.12601 4.5" stroke="#FB625B" stroke-width="1.5" stroke-linecap="round" stroke-linejoin="round"/>
<path d="M5.12601 4.5C5.33311 4.5 5.50101 4.66789 5.50101 4.875C5.50101 5.08211 5.33311 5.25 5.12601 5.25C4.9189 5.25 4.75101 5.08211 4.75101 4.875C4.75101 4.66789 4.9189 4.5 5.12601 4.5" stroke="#FB625B" stroke-width="1.5" stroke-linecap="round" stroke-linejoin="round"/>
</svg>
