<svg width="24" height="24" viewBox="0 0 24 24" fill="none" xmlns="http://www.w3.org/2000/svg">
<path d="M8.25 15L9.923 13.745C10.2681 13.4865 10.7043 13.3814 11.1293 13.4542C11.5543 13.527 11.9306 13.7714 12.17 14.13V14.13C12.5211 14.6569 12.5211 15.3431 12.17 15.87L10.525 18.337C10.02 19.0944 9.29722 19.6809 8.452 20.019L6 21V23.25" stroke="#FB625B" stroke-width="1.5" stroke-linecap="round" stroke-linejoin="round"/>
<path d="M9 9.75L5.4 11.291C4.33804 11.7464 3.49195 12.5928 3.037 13.655L1.864 16.4C1.6237 16.9606 1.49986 17.5641 1.5 18.174V23.25" stroke="#FB625B" stroke-width="1.5" stroke-linecap="round" stroke-linejoin="round"/>
<path d="M9 14.438V3.75C9 2.09315 10.3431 0.75 12 0.75H19.5C21.1569 0.75 22.5 2.09315 22.5 3.75V20.25C22.5 21.9069 21.1569 23.25 19.5 23.25H12C10.3431 23.25 9 21.9069 9 20.25V19.75" stroke="#FB625B" stroke-width="1.5" stroke-linecap="round" stroke-linejoin="round"/>
<path d="M10.214 18.75H22.5" stroke="#FB625B" stroke-width="1.5" stroke-linecap="round" stroke-linejoin="round"/>
</svg>
