<svg width="24" height="24" viewBox="0 0 24 24" fill="none" xmlns="http://www.w3.org/2000/svg">
<path d="M15.375 14.25V20.518C15.375 21.2427 15.087 21.9378 14.5745 22.4502C14.0619 22.9625 13.3667 23.2503 12.642 23.25H6.108C5.38326 23.2503 4.6881 22.9625 4.17554 22.4502C3.66297 21.9378 3.375 21.2427 3.375 20.518V4.983C3.375 3.47361 4.59861 2.25 6.108 2.25H12.375" stroke="#FB625B" stroke-width="1.5" stroke-linecap="round" stroke-linejoin="round"/>
<path d="M3.375 18.75H15.375" stroke="#FB625B" stroke-width="1.5" stroke-linecap="round" stroke-linejoin="round"/>
<path d="M16.125 9C16.125 10.2426 17.1324 11.25 18.375 11.25C19.6176 11.25 20.625 10.2426 20.625 9C20.625 7.75736 19.6176 6.75 18.375 6.75C17.1324 6.75 16.125 5.74264 16.125 4.5C16.125 3.25736 17.1324 2.25 18.375 2.25C19.6176 2.25 20.625 3.25736 20.625 4.5" stroke="#FB625B" stroke-width="1.5" stroke-linecap="round" stroke-linejoin="round"/>
<path d="M18.375 0.75V2.25" stroke="#FB625B" stroke-width="1.5" stroke-linecap="round" stroke-linejoin="round"/>
<path d="M18.375 11.25V12.75" stroke="#FB625B" stroke-width="1.5" stroke-linecap="round" stroke-linejoin="round"/>
</svg>
