<svg width="24" height="24" viewBox="0 0 24 24" fill="none" xmlns="http://www.w3.org/2000/svg">
<path d="M12.75 14.25V20.518C12.75 22.0268 11.5268 23.25 10.018 23.25H3.483C1.974 23.25 0.750552 22.027 0.75 20.518V4.983C0.750552 3.47383 1.97383 2.25055 3.483 2.25H6" stroke="#FB625B" stroke-width="1.5" stroke-linecap="round" stroke-linejoin="round"/>
<path d="M0.75 18.75H12.75" stroke="#FB625B" stroke-width="1.5" stroke-linecap="round" stroke-linejoin="round"/>
<path fill-rule="evenodd" clip-rule="evenodd" d="M20.25 0.75H12C10.3431 0.75 9 2.09315 9 3.75V8.25C9 9.90685 10.3431 11.25 12 11.25H15.75V15L19.5 11.25H20.25C21.9069 11.25 23.25 9.90685 23.25 8.25V3.75C23.25 2.09315 21.9069 0.75 20.25 0.75Z" stroke="#FB625B" stroke-width="1.5" stroke-linecap="round" stroke-linejoin="round"/>
<path d="M12.375 5.625C12.1679 5.625 12 5.79289 12 6C12 6.20711 12.1679 6.375 12.375 6.375C12.5821 6.375 12.75 6.20711 12.75 6C12.75 5.79289 12.5821 5.625 12.375 5.625" stroke="#FB625B" stroke-width="1.5" stroke-linecap="round" stroke-linejoin="round"/>
<path d="M16.125 5.625C15.9179 5.625 15.75 5.79289 15.75 6C15.75 6.20711 15.9179 6.375 16.125 6.375C16.3321 6.375 16.5 6.20711 16.5 6C16.5 5.79289 16.3321 5.625 16.125 5.625" stroke="#FB625B" stroke-width="1.5" stroke-linecap="round" stroke-linejoin="round"/>
<path d="M19.875 5.625C19.6679 5.625 19.5 5.79289 19.5 6C19.5 6.20711 19.6679 6.375 19.875 6.375C20.0821 6.375 20.25 6.20711 20.25 6C20.25 5.79289 20.0821 5.625 19.875 5.625" stroke="#FB625B" stroke-width="1.5" stroke-linecap="round" stroke-linejoin="round"/>
</svg>
