<svg width="24" height="25" viewBox="0 0 24 25" fill="none" xmlns="http://www.w3.org/2000/svg">
<path d="M14.25 16.75V21.518C14.25 22.2427 13.962 22.9378 13.4495 23.4502C12.9369 23.9625 12.2417 24.2503 11.517 24.25H4.983C4.25826 24.2503 3.5631 23.9625 3.05054 23.4502C2.53797 22.9378 2.25 22.2427 2.25 21.518V5.983C2.25 4.47361 3.47361 3.25 4.983 3.25H6.75" stroke="#FB625B" stroke-width="1.5" stroke-linecap="round" stroke-linejoin="round"/>
<path d="M2.25 19.75H14.25" stroke="#FB625B" stroke-width="1.5" stroke-linecap="round" stroke-linejoin="round"/>
<path fill-rule="evenodd" clip-rule="evenodd" d="M15.75 10C16.9926 10 18 8.99264 18 7.75C18 6.50736 16.9926 5.5 15.75 5.5C14.5074 5.5 13.5 6.50736 13.5 7.75C13.5 8.99264 14.5074 10 15.75 10Z" stroke="#FB625B" stroke-width="1.5" stroke-linecap="round" stroke-linejoin="round"/>
<path d="M18 7.75001V8.87501C17.9997 9.37237 18.1972 9.84944 18.5489 10.2011C18.9006 10.5528 19.3776 10.7503 19.875 10.75V10.75C20.3724 10.7503 20.8494 10.5528 21.2011 10.2011C21.5528 9.84944 21.7503 9.37237 21.75 8.87501V8.02901C21.8039 4.70636 19.2231 1.93475 15.905 1.75201C12.8257 1.65314 10.1719 3.90253 9.76502 6.95643C9.35809 10.0103 11.3302 12.8761 14.328 13.587C15.3049 13.8168 16.3232 13.8041 17.294 13.55" stroke="#FB625B" stroke-width="1.5" stroke-linecap="round" stroke-linejoin="round"/>
</svg>
