<svg width="24" height="24" viewBox="0 0 24 24" fill="none" xmlns="http://www.w3.org/2000/svg">
<path fill-rule="evenodd" clip-rule="evenodd" d="M12.37 21.79L12.38 21.797C14.16 22.9303 16.4884 22.6746 17.98 21.182L18.609 20.553C18.8905 20.2716 19.0487 19.89 19.0487 19.492C19.0487 19.094 18.8905 18.7123 18.609 18.431L15.956 15.78C15.6747 15.4985 15.293 15.3403 14.895 15.3403C14.497 15.3403 14.1153 15.4985 13.834 15.78V15.78C13.2483 16.3655 12.2988 16.3655 11.713 15.78L7.471 11.537C6.88543 10.9512 6.88543 10.0017 7.471 9.41598V9.41598C7.75251 9.13464 7.91068 8.75297 7.91068 8.35498C7.91068 7.95698 7.75251 7.57531 7.471 7.29398L4.819 4.64298C4.23325 4.0574 3.28375 4.0574 2.698 4.64298L2.068 5.27198C0.575691 6.76381 0.320397 9.09223 1.454 10.872L1.46 10.882C4.36618 15.1818 8.06968 18.8846 12.37 21.79V21.79Z" stroke="#FB625B" stroke-width="1.5" stroke-linecap="round" stroke-linejoin="round"/>
<path d="M12.75 3.75C13.05 2.85 13.413 1.5 15.071 1.5V1.5C16.2742 1.50055 17.2494 2.4758 17.25 3.679V3.679C17.2493 4.20398 17.0408 4.70734 16.67 5.079L12.75 9H17.25" stroke="#FB625B" stroke-width="1.5" stroke-linecap="round" stroke-linejoin="round"/>
<path d="M23.25 7.5H19.5L23.25 1.5V9" stroke="#FB625B" stroke-width="1.5" stroke-linecap="round" stroke-linejoin="round"/>
</svg>
