<svg width="24" height="24" viewBox="0 0 24 24" fill="none" xmlns="http://www.w3.org/2000/svg">
<path fill-rule="evenodd" clip-rule="evenodd" d="M19.75 8.25C19.75 12.471 16.817 14.899 14.619 17.25C13.303 18.658 12.25 23.25 12.25 23.25C12.25 23.25 11.2 18.661 9.887 17.257C7.687 14.907 4.75 12.475 4.75 8.25C4.75 4.10786 8.10786 0.75 12.25 0.75C16.3921 0.75 19.75 4.10786 19.75 8.25Z" stroke="#FB625B" stroke-width="1.5" stroke-linecap="round" stroke-linejoin="round"/>
<path fill-rule="evenodd" clip-rule="evenodd" d="M12.25 11.25C13.9069 11.25 15.25 9.90685 15.25 8.25C15.25 6.59315 13.9069 5.25 12.25 5.25C10.5931 5.25 9.25 6.59315 9.25 8.25C9.25 9.90685 10.5931 11.25 12.25 11.25Z" stroke="#FB625B" stroke-width="1.5" stroke-linecap="round" stroke-linejoin="round"/>
</svg>
