<?xml version="1.0" encoding="utf-8"?>
<!-- Generator: Adobe Illustrator 23.1.0, SVG Export Plug-In . SVG Version: 6.00 Build 0)  -->
<svg version="1.1" id="Layer_1" xmlns="http://www.w3.org/2000/svg" xmlns:xlink="http://www.w3.org/1999/xlink" x="0px" y="0px"
	 viewBox="0 0 24 25" style="enable-background:new 0 0 24 25;" xml:space="preserve">
<style type="text/css">
	.st0{fill:none;stroke:#FB625B;stroke-width:1.5;stroke-linecap:round;stroke-linejoin:round;}
</style>
<path class="st0" d="M6.7,6.5C7,4.1,8.8,2.1,11.2,1.8c2.4-0.3,4.7,1,5.6,3.3c0.9,2.3,0.1,4.8-1.9,6.2"/>
<path class="st0" d="M7.4,4.3C9.1,6,11.3,7,13.7,7c1.2,0,2.3-0.2,3.4-0.7"/>
<path class="st0" d="M10.8,10.8c-0.8,0-1.5,0.7-1.5,1.5s0.7,1.5,1.5,1.5c0.8,0,1.5-0.7,1.5-1.5S11.7,10.8,10.8,10.8z"/>
<path class="st0" d="M9.3,12.3H7.8c-1.7,0-3-1.3-3-3V8.2"/>
<path class="st0" d="M21.7,24.3c0-3.6-2-7-5.3-8.6"/>
<path class="st0" d="M7.4,15.6c-3.2,1.7-5.2,5-5.2,8.6"/>
</svg>
