<?xml version="1.0" encoding="utf-8"?>
<!-- Generator: Adobe Illustrator 23.1.0, SVG Export Plug-In . SVG Version: 6.00 Build 0)  -->
<svg version="1.1" id="Layer_1" xmlns="http://www.w3.org/2000/svg" xmlns:xlink="http://www.w3.org/1999/xlink" x="0px" y="0px"
	 viewBox="0 0 24 24" style="enable-background:new 0 0 24 24;" xml:space="preserve">
<style type="text/css">
	.st0{fill:none;stroke:#FB625B;stroke-width:1.5;stroke-linecap:round;stroke-linejoin:round;}
</style>
<path class="st0" d="M21.6,23.3c-1.7-3.7-5.4-6-9.5-6c-4.1,0-7.7,2.3-9.5,6"/>
<path class="st0" d="M18,19c1.2-0.2,2.3-0.5,3.4-1c0.7-0.3,1.1-1.2,0.8-2l-1.4-3.2c-0.2-0.6-0.4-1.2-0.4-1.8V9
	c0-4.6-3.7-8.3-8.3-8.3C7.6,0.8,3.9,4.4,3.9,9"/>
<path class="st0" d="M11.4,13.9c-0.2,0-0.4,0.2-0.4,0.4c0,0.2,0.2,0.4,0.4,0.4c0.2,0,0.4-0.2,0.4-0.4C11.8,14,11.6,13.9,11.4,13.9
	L11.4,13.9"/>
<path class="st0" d="M5.4,11.3c0,1.7,1.3,3,3,3h3"/>
<path class="st0" d="M14.4,15.2c1.8-0.9,3-2.7,3-4.7c-2.9,0-5.3-2.4-5.3-5.3c0,2.3-1.5,4.4-3.8,5"/>
<path class="st0" d="M16.4,18.2c-1.3,2.1-4.3,2.1-4.3,5.1c0-3-3-3-4.3-5.1"/>
<path class="st0" d="M18,19c1.2-0.2,2.3-0.5,3.4-1c0.7-0.3,1.1-1.2,0.8-2l-1.4-3.2"/>
<path class="st0" d="M3.1,13.7l-1,2.3c-0.3,0.8,0,1.6,0.8,2c1.1,0.5,2.2,0.8,3.4,1"/>
</svg>
