<svg width="25" height="24" viewBox="0 0 25 24" fill="none" xmlns="http://www.w3.org/2000/svg">
<path d="M5.67 22.63V23.38C6.08422 23.38 6.42 23.0442 6.42 22.63H5.67ZM0.810002 22.63H0.0600021C0.0600021 23.0442 0.395789 23.38 0.810002 23.38L0.810002 22.63ZM0.810002 8.70001V7.95001C0.395789 7.95001 0.0600021 8.28579 0.0600021 8.70001H0.810002ZM5.67 8.70001H6.42C6.42 8.28579 6.08422 7.95001 5.67 7.95001V8.70001ZM15.76 13.24V13.99C16.1742 13.99 16.51 13.6542 16.51 13.24H15.76ZM13.62 22.63V23.38C14.0342 23.38 14.37 23.0442 14.37 22.63H13.62ZM8.51 22.63H7.76C7.76 23.0442 8.09579 23.38 8.51 23.38V22.63ZM8.51 8.7V7.95C8.09579 7.95 7.76 8.28579 7.76 8.7H8.51ZM13.62 8.7H14.37C14.37 8.28579 14.0342 7.95 13.62 7.95V8.7ZM13.62 10.29H12.87C12.87 10.5821 13.0396 10.8476 13.3045 10.9704C13.5695 11.0933 13.8817 11.0511 14.1046 10.8624L13.62 10.29ZM17.9 8.69V7.93994L17.8903 7.94007L17.9 8.69ZM23.27 22.63V23.38C23.6842 23.38 24.02 23.0442 24.02 22.63H23.27ZM17.9 22.63H17.15C17.15 23.0442 17.4858 23.38 17.9 23.38V22.63ZM17.9 15.38L17.15 15.3765V15.38H17.9ZM15.76 13.23L15.76 12.48C15.3458 12.48 15.01 12.8158 15.01 13.23H15.76ZM5.76 3.88H6.51C6.51 3.46579 6.17422 3.13 5.76 3.13V3.88ZM3.26 1.38L3.266 0.630005H3.26V1.38ZM5.74 3.88L4.99 3.87998C4.99 4.0789 5.06901 4.26967 5.20966 4.41033C5.35032 4.55098 5.54109 4.63 5.74 4.63V3.88ZM5.67 21.88H0.810002V23.38H5.67V21.88ZM1.56 22.63V8.70001H0.0600021V22.63H1.56ZM0.810002 9.45001H5.67V7.95001H0.810002V9.45001ZM4.92 8.70001V22.63H6.42V8.70001H4.92ZM15.76 12.49C14.1639 12.49 12.87 13.7839 12.87 15.38H14.37C14.37 14.6123 14.9923 13.99 15.76 13.99V12.49ZM12.87 15.38V22.63H14.37V15.38H12.87ZM13.62 21.88H8.51V23.38H13.62V21.88ZM9.26 22.63V8.7H7.76V22.63H9.26ZM8.51 9.45H13.62V7.95H8.51V9.45ZM12.87 8.7V10.29H14.37V8.7H12.87ZM14.1046 10.8624C15.1694 9.96097 16.5147 9.45807 17.9097 9.43994L17.8903 7.94007C16.147 7.96272 14.466 8.59114 13.1354 9.71758L14.1046 10.8624ZM17.9 9.44C19.2857 9.44 20.4067 9.94565 21.1956 10.9003C21.998 11.8712 22.52 13.3849 22.52 15.5H24.02C24.02 13.1551 23.442 11.2638 22.3519 9.94473C21.2483 8.60936 19.6843 7.94 17.9 7.94V9.44ZM22.52 15.5V22.63H24.02V15.5H22.52ZM23.27 21.88H17.9V23.38H23.27V21.88ZM18.65 22.63V15.38H17.15V22.63H18.65ZM18.65 15.3835C18.6536 14.6147 18.3507 13.8761 17.8083 13.3312L16.7452 14.3894C17.0061 14.6515 17.1517 15.0067 17.15 15.3765L18.65 15.3835ZM17.8083 13.3312C17.266 12.7863 16.5288 12.48 15.76 12.48L15.76 13.98C16.1298 13.98 16.4843 14.1273 16.7452 14.3894L17.8083 13.3312ZM15.01 13.23V13.24H16.51V13.23H15.01ZM5.01 3.88C5.01 4.8465 4.2265 5.63 3.26 5.63V7.13C5.05493 7.13 6.51 5.67493 6.51 3.88H5.01ZM3.26 5.63C2.2935 5.63 1.51 4.8465 1.51 3.88H0.0100021C0.0100021 5.67493 1.46508 7.13 3.26 7.13V5.63ZM1.51 3.88C1.51 2.91351 2.2935 2.13 3.26 2.13V0.630005C1.46508 0.630005 0.0100021 2.08508 0.0100021 3.88H1.51ZM3.254 2.12998C4.21503 2.13767 4.99003 2.91892 4.99 3.87998L6.49 3.88003C6.49006 2.09521 5.05077 0.644307 3.266 0.630029L3.254 2.12998ZM5.74 4.63H5.76V3.13H5.74V4.63Z" fill="#FB625B"/>
</svg>
