<svg width="24" height="24" viewBox="0 0 24 24" fill="none" xmlns="http://www.w3.org/2000/svg">
<path d="M9.92799 3.93201C7.36012 4.00555 4.92606 5.0938 3.15894 6.95838C1.39183 8.82296 0.435702 11.3119 0.499993 13.88V15.123C0.499795 16.1005 0.789495 17.0562 1.33245 17.869C1.87541 18.6819 2.64724 19.3155 3.55031 19.6896C4.45338 20.0638 5.44714 20.1618 6.40588 19.9711C7.36463 19.7804 8.2453 19.3097 8.93651 18.6185C9.62773 17.9273 10.0984 17.0466 10.2891 16.0879C10.4797 15.1292 10.3818 14.1354 10.0076 13.2323C9.63344 12.3292 8.99986 11.5574 8.187 11.0145C7.37414 10.4715 6.41851 10.1818 5.44099 10.182C5.06501 10.183 4.69056 10.23 4.32599 10.322C4.27832 10.334 4.22818 10.3316 4.18184 10.3152C4.1355 10.2988 4.09503 10.2691 4.06547 10.2299C4.03591 10.1906 4.01858 10.1435 4.01565 10.0944C4.01272 10.0454 4.02432 9.99651 4.04899 9.95401C4.63191 8.90118 5.48259 8.021 6.51494 7.40254C7.54729 6.78408 8.72469 6.44927 9.92799 6.43201C10.2595 6.43201 10.5775 6.30031 10.8119 6.06589C11.0463 5.83147 11.178 5.51353 11.178 5.18201C11.178 4.85049 11.0463 4.53254 10.8119 4.29812C10.5775 4.0637 10.2595 3.93201 9.92799 3.93201Z" fill="#FB625B"/>
<path d="M22.25 6.43201C22.5815 6.43201 22.8995 6.30031 23.1339 6.06589C23.3683 5.83147 23.5 5.51353 23.5 5.18201C23.5 4.85049 23.3683 4.53254 23.1339 4.29812C22.8995 4.0637 22.5815 3.93201 22.25 3.93201C19.6822 4.00581 17.2483 5.09414 15.4812 6.95866C13.7142 8.82319 12.758 11.312 12.822 13.88V15.123C12.8218 16.1005 13.1115 17.0561 13.6544 17.8689C14.1973 18.6817 14.9691 19.3153 15.8721 19.6895C16.7751 20.0637 17.7688 20.1617 18.7275 19.9712C19.6862 19.7806 20.5669 19.31 21.2582 18.6189C21.9494 17.9278 22.4202 17.0472 22.611 16.0885C22.8017 15.1298 22.7039 14.1361 22.3299 13.233C21.9559 12.3299 21.3225 11.558 20.5097 11.015C19.697 10.4719 18.7415 10.182 17.764 10.182C17.3877 10.183 17.0129 10.23 16.648 10.322C16.6004 10.334 16.5503 10.3317 16.5041 10.3153C16.4578 10.2989 16.4174 10.2693 16.388 10.23C16.3586 10.1907 16.3413 10.1436 16.3383 10.0945C16.3352 10.0455 16.3466 9.99666 16.371 9.95401C16.9539 8.90118 17.8046 8.021 18.8369 7.40254C19.8693 6.78408 21.0467 6.44927 22.25 6.43201Z" fill="#FB625B"/>
</svg>
