<?xml version="1.0" encoding="utf-8"?>
<!-- Generator: Adobe Illustrator 23.1.0, SVG Export Plug-In . SVG Version: 6.00 Build 0)  -->
<svg version="1.1" id="Layer_1" xmlns="http://www.w3.org/2000/svg" xmlns:xlink="http://www.w3.org/1999/xlink" x="0px" y="0px"
	 viewBox="0 0 25 25" style="enable-background:new 0 0 25 25;" xml:space="preserve">
<style type="text/css">
	.st0{fill:none;stroke:#FB625B;stroke-width:1.5;stroke-linecap:round;stroke-linejoin:round;}
	.st1{fill:none;stroke:#000000;stroke-width:1.5;stroke-linecap:round;stroke-linejoin:round;}
</style>
<g id="Social-Medias-Rewards-Rating__x2F__Rating__x2F__rating-star-bubble-1">
	<g id="Group_70">
		<g id="rating-star-bubble-1">
			<path id="Shape_241" class="st0" d="M13.1,7.3l1.4,3h2.4c0.3,0,0.5,0.2,0.6,0.4c0.1,0.2,0,0.5-0.1,0.7l-2.2,1.9l1.2,2.8
				c0.1,0.3,0,0.6-0.2,0.7c-0.2,0.2-0.5,0.2-0.8,0.1l-2.9-1.6l-2.9,1.6C9.3,17.1,9,17,8.8,16.8c-0.2-0.2-0.3-0.5-0.2-0.7l1.2-2.8
				l-2.2-1.9c-0.2-0.2-0.2-0.5-0.1-0.7c0.1-0.2,0.3-0.4,0.6-0.4h2.4l1.4-3c0.1-0.2,0.3-0.4,0.6-0.4C12.8,6.9,13,7.1,13.1,7.3z"/>
			<path id="Shape_242" class="st0" d="M13.1,1.5L15,3.7c0.2,0.2,0.5,0.3,0.7,0.2l2.8-0.6c0.2,0,0.4,0,0.6,0.1
				c0.2,0.1,0.3,0.3,0.3,0.6l0.3,2.9c0,0.3,0.2,0.5,0.5,0.6l2.6,1.1C23,8.6,23.1,8.8,23.2,9c0.1,0.2,0,0.4-0.1,0.6l-1.5,2.5
				c-0.1,0.2-0.1,0.5,0,0.8l1.5,2.5c0.1,0.2,0.1,0.4,0.1,0.6c-0.1,0.2-0.2,0.4-0.4,0.5l-2.6,1.1c-0.3,0.1-0.4,0.4-0.5,0.6l-0.3,2.9
				c0,0.2-0.1,0.4-0.3,0.6c-0.2,0.1-0.4,0.2-0.6,0.1l-2.8-0.6c-0.3-0.1-0.6,0-0.7,0.2l-1.9,2.2c-0.1,0.2-0.4,0.3-0.6,0.3
				c-0.2,0-0.4-0.1-0.6-0.3L10,21.3c-0.2-0.2-0.5-0.3-0.7-0.2l-2.8,0.6c-0.2,0-0.4,0-0.6-0.1c-0.2-0.1-0.3-0.3-0.3-0.6l-0.3-2.9
				c0-0.3-0.2-0.5-0.5-0.6l-2.6-1.1C2,16.4,1.9,16.2,1.8,16c-0.1-0.2,0-0.4,0.1-0.6l1.5-2.5c0.1-0.2,0.1-0.5,0-0.8L1.9,9.6
				C1.8,9.5,1.7,9.2,1.8,9C1.9,8.8,2,8.6,2.2,8.5l2.6-1.1c0.3-0.1,0.4-0.4,0.5-0.6l0.3-2.9c0-0.2,0.1-0.4,0.3-0.6
				c0.2-0.1,0.4-0.2,0.6-0.1l2.8,0.6C9.6,4,9.9,3.9,10,3.7l1.9-2.2c0.1-0.2,0.4-0.3,0.6-0.3C12.7,1.2,12.9,1.3,13.1,1.5L13.1,1.5z"
				/>
		</g>
	</g>
</g>
<g id="Social-Medias-Rewards-Rating__x2F__Rating__x2F__rating-star-bubble-1_1_">
	<g id="Group_70_1_">
		<g id="rating-star-bubble-1_1_">
			<path id="Shape_241_1_" class="st1" d="M391.6,770.8l1.4,3h2.4c0.3,0,0.5,0.2,0.6,0.4c0.1,0.2,0,0.5-0.1,0.7l-2.2,1.9l1.2,2.8
				c0.1,0.3,0,0.6-0.2,0.7c-0.2,0.2-0.5,0.2-0.8,0.1l-2.9-1.6l-2.9,1.6c-0.2,0.1-0.6,0.1-0.8-0.1c-0.2-0.2-0.3-0.5-0.2-0.7l1.2-2.8
				l-2.2-1.9c-0.2-0.2-0.2-0.5-0.1-0.7c0.1-0.2,0.3-0.4,0.6-0.4h2.4l1.4-3c0.1-0.2,0.3-0.4,0.6-0.4
				C391.3,770.4,391.5,770.6,391.6,770.8z"/>
			<path id="Shape_242_1_" class="st1" d="M391.6,765l1.9,2.2c0.2,0.2,0.5,0.3,0.7,0.2l2.8-0.6c0.2,0,0.4,0,0.6,0.1
				c0.2,0.1,0.3,0.3,0.3,0.6l0.3,2.9c0,0.3,0.2,0.5,0.5,0.6l2.6,1.1c0.2,0.1,0.4,0.3,0.4,0.5c0.1,0.2,0,0.4-0.1,0.6l-1.5,2.5
				c-0.1,0.2-0.1,0.5,0,0.8l1.5,2.5c0.1,0.2,0.1,0.4,0.1,0.6c-0.1,0.2-0.2,0.4-0.4,0.5l-2.6,1.1c-0.3,0.1-0.4,0.4-0.5,0.6l-0.3,2.9
				c0,0.2-0.1,0.4-0.3,0.6c-0.2,0.1-0.4,0.2-0.6,0.1l-2.8-0.6c-0.3-0.1-0.6,0-0.7,0.2l-1.9,2.2c-0.1,0.2-0.4,0.3-0.6,0.3
				c-0.2,0-0.4-0.1-0.6-0.3l-1.9-2.2c-0.2-0.2-0.5-0.3-0.7-0.2l-2.8,0.6c-0.2,0-0.4,0-0.6-0.1c-0.2-0.1-0.3-0.3-0.3-0.6l-0.3-2.8
				c0-0.3-0.2-0.5-0.5-0.6l-2.6-1.1c-0.2-0.1-0.4-0.3-0.4-0.5c-0.1-0.2,0-0.4,0.1-0.6l1.5-2.5c0.1-0.2,0.1-0.5,0-0.8l-1.5-2.4
				c-0.1-0.2-0.1-0.4-0.1-0.6c0.1-0.2,0.2-0.4,0.4-0.5l2.6-1.1c0.3-0.1,0.4-0.4,0.5-0.6l0.3-2.9c0-0.2,0.1-0.4,0.3-0.6
				c0.2-0.1,0.4-0.2,0.6-0.1l2.8,0.6c0.3,0.1,0.6,0,0.7-0.2l1.9-2.2c0.1-0.2,0.4-0.3,0.6-0.3C391.2,764.7,391.4,764.8,391.6,765
				L391.6,765z"/>
		</g>
	</g>
</g>
</svg>
