<?xml version="1.0" encoding="utf-8"?>
<!-- Generator: Adobe Illustrator 23.1.0, SVG Export Plug-In . SVG Version: 6.00 Build 0)  -->
<svg version="1.1" id="Layer_1" xmlns="http://www.w3.org/2000/svg" xmlns:xlink="http://www.w3.org/1999/xlink" x="0px" y="0px"
	 viewBox="0 0 24 24" style="enable-background:new 0 0 24 24;" xml:space="preserve">
<style type="text/css">
	.st0{fill:none;stroke:#FB625B;stroke-width:1.5;stroke-linecap:round;stroke-linejoin:round;}
</style>
<g id="Social-Medias-Rewards-Rating__x2F__Rating__x2F__rating-star-winner">
	<g id="Group_82">
		<g id="rating-star-winner">
			<path id="Shape_271" class="st0" d="M18.8,12.4l1.3,2.3h2.5c0.3,0,0.5,0.2,0.6,0.4c0.1,0.3,0,0.6-0.1,0.7l-2.3,2.5l1.3,2.9
				c0.1,0.3,0,0.6-0.2,0.8c-0.2,0.2-0.5,0.2-0.8,0.1L18,20.3L14.9,22c-0.3,0.1-0.6,0.1-0.8-0.1c-0.2-0.2-0.3-0.5-0.2-0.8l1.2-2.8"/>
			<path id="Shape_272" class="st0" d="M5.2,12.4l-1.3,2.3H1.4c-0.3,0-0.5,0.2-0.6,0.4c-0.1,0.3,0,0.6,0.1,0.7l2.3,2.5L2,21.2
				c-0.1,0.3,0,0.6,0.2,0.8c0.2,0.2,0.5,0.2,0.8,0.1L6,20.3l3,1.7c0.3,0.1,0.6,0.1,0.8-0.1c0.2-0.2,0.3-0.5,0.2-0.8l-1.2-2.8"/>
			<path id="Shape_273" class="st0" d="M12.4,2.1l2,4l3.8,0.4c0.2,0,0.3,0.1,0.4,0.3c0.1,0.2,0,0.4-0.1,0.5l-3.2,3.2l1.2,4.3
				c0.1,0.2,0,0.4-0.2,0.5c-0.1,0.1-0.4,0.1-0.5,0.1l-3.9-1.9l-3.9,1.9c-0.2,0.1-0.4,0.1-0.5-0.1c-0.1-0.1-0.2-0.3-0.2-0.5l1.2-4.3
				L5.4,7.3C5.3,7.2,5.2,7,5.3,6.8c0.1-0.2,0.2-0.3,0.4-0.3l3.8-0.4l2-4c0.1-0.2,0.2-0.3,0.4-0.3C12.1,1.9,12.3,2,12.4,2.1z"/>
		</g>
	</g>
</g>
</svg>
