<svg width="24" height="24" viewBox="0 0 24 24" fill="none" xmlns="http://www.w3.org/2000/svg">
<path fill-rule="evenodd" clip-rule="evenodd" d="M15 22.5H9L9.75 18H14.25L15 22.5V22.5Z" stroke="#FB625B" stroke-width="1.5" stroke-linecap="round" stroke-linejoin="round"/>
<path d="M6.75 22.5H17.25" stroke="#FB625B" stroke-width="1.5" stroke-linecap="round" stroke-linejoin="round"/>
<path fill-rule="evenodd" clip-rule="evenodd" d="M0.75 4.5C0.75 2.84315 2.09315 1.5 3.75 1.5H20.25C21.9069 1.5 23.25 2.84315 23.25 4.5V15C23.25 16.6569 21.9069 18 20.25 18H3.75C2.09315 18 0.75 16.6569 0.75 15V4.5Z" stroke="#FB625B" stroke-width="1.5" stroke-linecap="round" stroke-linejoin="round"/>
<path fill-rule="evenodd" clip-rule="evenodd" d="M6.75 7.5C6.75 6.67157 7.42157 6 8.25 6H15.75C16.5784 6 17.25 6.67157 17.25 7.5V12C17.25 12.8284 16.5784 13.5 15.75 13.5H8.25C7.42157 13.5 6.75 12.8284 6.75 12V7.5Z" stroke="#FB625B" stroke-width="1.5" stroke-linecap="round" stroke-linejoin="round"/>
<path d="M7.13 6.50299L12 10.5L16.869 6.50399" stroke="#FB625B" stroke-width="1.5" stroke-linecap="round" stroke-linejoin="round"/>
</svg>
