<svg width="24" height="24" viewBox="0 0 24 24" fill="none" xmlns="http://www.w3.org/2000/svg">
<path fill-rule="evenodd" clip-rule="evenodd" d="M17.25 12C17.25 14.8995 14.8995 17.25 12 17.25C9.10051 17.25 6.75 14.8995 6.75 12C6.75 9.10051 9.10051 6.75 12 6.75C14.8995 6.75 17.25 9.10051 17.25 12Z" stroke="#FB625B" stroke-width="1.5" stroke-linecap="round" stroke-linejoin="round"/>
<path d="M17.25 12V14.25C17.25 15.9069 18.5931 17.25 20.25 17.25C21.9069 17.25 23.25 15.9069 23.25 14.25V12C23.2498 6.78306 19.6627 2.25085 14.5852 1.05236C9.50783 -0.146134 4.27267 2.30362 1.93958 6.96979C-0.393502 11.636 0.787796 17.2939 4.79304 20.6368C8.79828 23.9796 14.5763 24.13 18.75 21" stroke="#FB625B" stroke-width="1.5" stroke-linecap="round" stroke-linejoin="round"/>
</svg>
