<svg width="24" height="24" viewBox="0 0 24 24" fill="none" xmlns="http://www.w3.org/2000/svg">
<path fill-rule="evenodd" clip-rule="evenodd" d="M2.724 0.826994C2.26662 0.674658 1.76391 0.75143 1.37284 1.03333C0.981784 1.31524 0.750045 1.76792 0.75 2.24999V19.5C0.749925 20.0929 1.09913 20.6303 1.641 20.871L6.947 23.121C7.30202 23.278 7.70394 23.292 8.069 23.16L15.212 20.316C15.5586 20.1899 15.9396 20.196 16.282 20.333L21.193 22.263C21.655 22.4478 22.1786 22.3914 22.5907 22.1125C23.0028 21.8337 23.2498 21.3686 23.25 20.871V4.11599C23.2501 3.45348 22.8156 2.86936 22.181 2.67899L16.161 0.872994C15.8923 0.792609 15.6065 0.789145 15.336 0.862994L7.936 2.94699C7.65031 3.02495 7.34795 3.0166 7.067 2.92299L2.724 0.826994Z" stroke="#FB625B" stroke-width="1.5" stroke-linecap="round" stroke-linejoin="round"/>
<path fill-rule="evenodd" clip-rule="evenodd" d="M3.75 4.5V18.75L7.5 20.25L15.75 17.25L20.25 18.75V5.25L15.75 3.75L7.5 6L3.75 4.5V4.5Z" stroke="#FB625B" stroke-width="1.5" stroke-linecap="round" stroke-linejoin="round"/>
<path d="M3.75 9.879L7.5 11.379L11.25 9.879" stroke="#FB625B" stroke-width="1.5" stroke-linecap="round" stroke-linejoin="round"/>
<path d="M14.25 4.159V8.063" stroke="#FB625B" stroke-width="1.5" stroke-linecap="round" stroke-linejoin="round"/>
<path d="M3.75 14.379L7.5 15.75L9.75 15.129V19.432" stroke="#FB625B" stroke-width="1.5" stroke-linecap="round" stroke-linejoin="round"/>
<path d="M14.25 17.795V14.25L15.75 13.5L20.25 15" stroke="#FB625B" stroke-width="1.5" stroke-linecap="round" stroke-linejoin="round"/>
</svg>
