<svg width="24" height="24" viewBox="0 0 24 24" fill="none" xmlns="http://www.w3.org/2000/svg">
<path d="M18 4.06599C15.0624 1.77255 11.0744 1.35432 7.72489 2.98845C4.3754 4.62257 2.25046 8.02314 2.25 11.75V14" stroke="#FB625B" stroke-width="1.5" stroke-linecap="round" stroke-linejoin="round"/>
<path d="M6 19.439C8.93852 21.7322 12.9272 22.1495 16.2768 20.5143C19.6264 18.8791 21.7507 15.4774 21.75 11.75V9.5" stroke="#FB625B" stroke-width="1.5" stroke-linecap="round" stroke-linejoin="round"/>
<path d="M0.75 12.5L2.25 14L3.75 12.5" stroke="#FB625B" stroke-width="1.5" stroke-linecap="round" stroke-linejoin="round"/>
<path d="M23.25 11L21.75 9.5L20.25 11" stroke="#FB625B" stroke-width="1.5" stroke-linecap="round" stroke-linejoin="round"/>
<path d="M15 13.25V15.5C15 15.9142 14.6642 16.25 14.25 16.25H9.75C9.33579 16.25 9 15.9142 9 15.5V13.25" stroke="#FB625B" stroke-width="1.5" stroke-linecap="round" stroke-linejoin="round"/>
<path d="M7.5 11L12 7.25L16.5 11" stroke="#FB625B" stroke-width="1.5" stroke-linecap="round" stroke-linejoin="round"/>
</svg>
