<svg width="24" height="25" viewBox="0 0 24 25" fill="none" xmlns="http://www.w3.org/2000/svg">
<path d="M8.353 0.75L12.755 3.685L8.842 7.109" stroke="#FB625B" stroke-width="1.5" stroke-linecap="round" stroke-linejoin="round"/>
<path d="M20.066 18.675C17.5638 22.655 12.5844 24.2924 8.2084 22.5742C3.8324 20.8561 1.29729 16.2682 2.17144 11.6489C3.04558 7.02971 7.08178 3.6854 11.783 3.685H12.755" stroke="#FB625B" stroke-width="1.5" stroke-linecap="round" stroke-linejoin="round"/>
<path d="M21.565 13.467C21.5656 14.2924 21.4621 15.1145 21.257 15.914" stroke="#FB625B" stroke-width="1.5" stroke-linecap="round" stroke-linejoin="round"/>
<path d="M20.065 8.26001C20.5126 8.9698 20.8665 9.73447 21.118 10.535" stroke="#FB625B" stroke-width="1.5" stroke-linecap="round" stroke-linejoin="round"/>
<path d="M16.31 4.793C16.9653 5.13574 17.5795 5.55174 18.141 6.033" stroke="#FB625B" stroke-width="1.5" stroke-linecap="round" stroke-linejoin="round"/>
<path d="M14.815 15.75V18C14.815 18.4142 14.4792 18.75 14.065 18.75H9.56499C9.15078 18.75 8.81499 18.4142 8.81499 18V15.75" stroke="#FB625B" stroke-width="1.5" stroke-linecap="round" stroke-linejoin="round"/>
<path d="M7.31499 13.5L11.815 9.75L16.315 13.5" stroke="#FB625B" stroke-width="1.5" stroke-linecap="round" stroke-linejoin="round"/>
</svg>
