<?xml version="1.0" encoding="utf-8"?>
<!-- Generator: Adobe Illustrator 23.1.0, SVG Export Plug-In . SVG Version: 6.00 Build 0)  -->
<svg version="1.1" id="Layer_1" xmlns="http://www.w3.org/2000/svg" xmlns:xlink="http://www.w3.org/1999/xlink" x="0px" y="0px"
	 viewBox="0 0 24 24" style="enable-background:new 0 0 24 24;" xml:space="preserve">
<style type="text/css">
	.st0{fill:none;stroke:#FB625B;stroke-width:1.5;stroke-linecap:round;stroke-linejoin:round;}
</style>
<path class="st0" d="M8.3,19.5h-3c-0.8,0-1.5-0.7-1.5-1.5v-7.5"/>
<path class="st0" d="M0.8,9l8.8-7.4c0.6-0.5,1.4-0.5,1.9,0l7.3,6.2"/>
<path class="st0" d="M15.8,1.5h3v3"/>
<g>
	<path class="st0" d="M15,18h-3.8v3.8"/>
	<path class="st0" d="M22.7,18.8c-0.8,2.4-3.1,3.9-5.7,3.8c-2.5-0.2-4.6-2-5.1-4.5"/>
	<path class="st0" d="M19.5,15h3.8v-3.8"/>
	<path class="st0" d="M11.8,14.3c0.8-2.4,3.1-3.9,5.7-3.8c2.5,0.2,4.6,2,5.1,4.5"/>
</g>
</svg>
