<?xml version="1.0" encoding="utf-8"?>
<!-- Generator: Adobe Illustrator 23.1.0, SVG Export Plug-In . SVG Version: 6.00 Build 0)  -->
<svg version="1.1" id="Layer_1" xmlns="http://www.w3.org/2000/svg" xmlns:xlink="http://www.w3.org/1999/xlink" x="0px" y="0px"
	 viewBox="0 0 24 24" style="enable-background:new 0 0 24 24;" xml:space="preserve">
<style type="text/css">
	.st0{fill:none;stroke:#FB625B;stroke-width:1.5;stroke-linecap:round;stroke-linejoin:round;}
</style>
<path class="st0" d="M8.3,19.8h-3c-0.8,0-1.5-0.7-1.5-1.5v-7.5"/>
<path class="st0" d="M0.8,9.3l8.8-7.4c0.6-0.5,1.4-0.5,1.9,0L18.7,8"/>
<path class="st0" d="M15.8,1.8h3v3"/>
<path class="st0" d="M18.8,13.8h-2c-0.6,0-1.2,0.5-1.3,1.1c-0.1,0.6,0.2,1.3,0.8,1.5l2.1,0.8c0.6,0.2,0.9,0.9,0.8,1.5
	c-0.1,0.6-0.7,1.1-1.3,1.1h-2"/>
<path class="st0" d="M17.3,13.8V13"/>
<path class="st0" d="M17.3,20.5v-0.8"/>
<path class="st0" d="M17.3,22.8c3.3,0,6-2.7,6-6s-2.7-6-6-6s-6,2.7-6,6S13.9,22.8,17.3,22.8z"/>
</svg>
