<svg width="24" height="25" viewBox="0 0 24 25" fill="none" xmlns="http://www.w3.org/2000/svg">
<path d="M11.25 19H21.75C22.5784 19 23.25 18.3553 23.25 17.56V3.15997C23.25 2.36468 22.5784 1.71997 21.75 1.71997H6.75C5.92157 1.71997 5.25 2.36468 5.25 3.15997V13.24" stroke="#FB625B" stroke-width="1.5" stroke-linecap="round" stroke-linejoin="round"/>
<path d="M0.75 19V17.56" stroke="#FB625B" stroke-width="1.5" stroke-linecap="round" stroke-linejoin="round"/>
<path d="M0.75 14.68C0.75 13.8847 1.42157 13.24 2.25 13.24" stroke="#FB625B" stroke-width="1.5" stroke-linecap="round" stroke-linejoin="round"/>
<path d="M11.25 19V17.56" stroke="#FB625B" stroke-width="1.5" stroke-linecap="round" stroke-linejoin="round"/>
<path d="M11.25 14.68C11.25 13.8847 10.5784 13.24 9.75 13.24" stroke="#FB625B" stroke-width="1.5" stroke-linecap="round" stroke-linejoin="round"/>
<path d="M0.75 21.8799C0.75 22.6752 1.42157 23.3199 2.25 23.3199" stroke="#FB625B" stroke-width="1.5" stroke-linecap="round" stroke-linejoin="round"/>
<path d="M11.25 21.8799C11.25 22.6752 10.5784 23.3199 9.75 23.3199" stroke="#FB625B" stroke-width="1.5" stroke-linecap="round" stroke-linejoin="round"/>
<path d="M5.25 13.24H6.75" stroke="#FB625B" stroke-width="1.5" stroke-linecap="round" stroke-linejoin="round"/>
<path d="M5.25 23.3199H6.75" stroke="#FB625B" stroke-width="1.5" stroke-linecap="round" stroke-linejoin="round"/>
<path d="M15.75 4.59998H19.5C19.9142 4.59998 20.25 4.92233 20.25 5.31998V8.91998" stroke="#FB625B" stroke-width="1.5" stroke-linecap="round" stroke-linejoin="round"/>
<path d="M20.031 4.81116L13.5 11.08" stroke="#FB625B" stroke-width="1.5" stroke-linecap="round" stroke-linejoin="round"/>
</svg>
