<svg width="24" height="25" viewBox="0 0 24 25" fill="none" xmlns="http://www.w3.org/2000/svg">
<path fill-rule="evenodd" clip-rule="evenodd" d="M16.5 23.32H10.5L11.25 19H15.75L16.5 23.32V23.32Z" stroke="#FB625B" stroke-width="1.5" stroke-linecap="round" stroke-linejoin="round"/>
<path d="M8.25 23.3199H18.75" stroke="#FB625B" stroke-width="1.5" stroke-linecap="round" stroke-linejoin="round"/>
<path d="M11.25 6.03998H21.75C22.5784 6.03998 23.25 6.68469 23.25 7.47998V17.56C23.25 18.3553 22.5784 19 21.75 19H5.25C4.42157 19 3.75 18.3553 3.75 17.56V16.12" stroke="#FB625B" stroke-width="1.5" stroke-linecap="round" stroke-linejoin="round"/>
<path d="M3.75 16.12H23.25" stroke="#FB625B" stroke-width="1.5" stroke-linecap="round" stroke-linejoin="round"/>
<path fill-rule="evenodd" clip-rule="evenodd" d="M0.75 3.21997C0.75 2.39154 1.42157 1.71997 2.25 1.71997H6.75C7.57843 1.71997 8.25 2.39154 8.25 3.21997V11.74C8.25 12.5684 7.57843 13.24 6.75 13.24H2.25C1.42157 13.24 0.75 12.5684 0.75 11.74V3.21997Z" stroke="#FB625B" stroke-width="1.5" stroke-linecap="round" stroke-linejoin="round"/>
<path d="M0.75 10.36H8.25" stroke="#FB625B" stroke-width="1.5" stroke-linecap="round" stroke-linejoin="round"/>
</svg>
