<svg width="24" height="24" viewBox="0 0 24 24" fill="none" xmlns="http://www.w3.org/2000/svg">
<path d="M4.807 13.042L0.75 18L4.5 18.75L6 23.25L9.944 16.992" stroke="#FB625B" stroke-width="1.5" stroke-linecap="round" stroke-linejoin="round"/>
<path d="M19.193 13.042L23.25 18L19.5 18.75L18 23.25L14.056 16.992" stroke="#FB625B" stroke-width="1.5" stroke-linecap="round" stroke-linejoin="round"/>
<path d="M12 17.25C16.5563 17.25 20.25 13.5563 20.25 9C20.25 4.44365 16.5563 0.75 12 0.75C7.44365 0.75 3.75 4.44365 3.75 9C3.75 13.5563 7.44365 17.25 12 17.25Z" stroke="#FB625B" stroke-width="1.5" stroke-linecap="round" stroke-linejoin="round"/>
<path d="M7.5 12.15V7.95H8.1C8.89565 7.95 9.65871 7.63393 10.2213 7.07132C10.7839 6.50871 11.1 5.74565 11.1 4.95C11.1 4.63174 11.2264 4.32652 11.4515 4.10147C11.6765 3.87643 11.9817 3.75 12.3 3.75C12.732 3.75 13.1464 3.92163 13.4519 4.22712C13.7574 4.53262 13.929 4.94696 13.929 5.379V6.15C13.929 6.30913 13.9922 6.46174 14.1047 6.57426C14.2173 6.68679 14.3699 6.75 14.529 6.75H14.7C14.9515 6.75001 15.2001 6.80271 15.43 6.90471C15.6599 7.0067 15.8658 7.15573 16.0345 7.34218C16.2033 7.52863 16.3311 7.74837 16.4097 7.98723C16.4883 8.22609 16.516 8.47878 16.491 8.729L16.305 10.589C16.2457 11.1812 15.9686 11.7302 15.5273 12.1295C15.086 12.5289 14.5121 12.75 13.917 12.75H11.436C11.2131 12.7501 10.9913 12.7191 10.777 12.658L9.323 12.242C9.10867 12.1809 8.88687 12.1499 8.664 12.15H7.5" stroke="#FB625B" stroke-width="1.5" stroke-linecap="round" stroke-linejoin="round"/>
</svg>
