<svg width="24" height="25" viewBox="0 0 24 25" fill="none" xmlns="http://www.w3.org/2000/svg">
<path fill-rule="evenodd" clip-rule="evenodd" d="M0.75 3.24707C0.75 2.41864 1.42157 1.74707 2.25 1.74707H21.75C22.5784 1.74707 23.25 2.41864 23.25 3.24707V22.7471C23.25 23.5755 22.5784 24.2471 21.75 24.2471H2.25C1.42157 24.2471 0.75 23.5755 0.75 22.7471V3.24707Z" stroke="#FB625B" stroke-width="1.5" stroke-linecap="round" stroke-linejoin="round"/>
<path fill-rule="evenodd" clip-rule="evenodd" d="M7.5 19.7471C8.74264 19.7471 9.75 18.7397 9.75 17.4971C9.75 16.2544 8.74264 15.2471 7.5 15.2471C6.25736 15.2471 5.25 16.2544 5.25 17.4971C5.25 18.7397 6.25736 19.7471 7.5 19.7471Z" stroke="#FB625B" stroke-width="1.5" stroke-linecap="round" stroke-linejoin="round"/>
<path d="M5.205 11.126C7.80145 10.212 10.6928 10.9517 12.5313 13.0003C14.3698 15.0489 14.7936 18.0032 13.605 20.486" stroke="#FB625B" stroke-width="1.5" stroke-linecap="round" stroke-linejoin="round"/>
<path d="M5.35899 6.44502C9.18942 5.70902 13.1283 7.00432 15.7742 9.87011C18.4202 12.7359 19.3977 16.7654 18.359 20.525" stroke="#FB625B" stroke-width="1.5" stroke-linecap="round" stroke-linejoin="round"/>
</svg>
