<svg width="24" height="24" viewBox="0 0 24 24" fill="none" xmlns="http://www.w3.org/2000/svg">
<path fill-rule="evenodd" clip-rule="evenodd" d="M12 15.0881C13.6569 15.0881 15 13.745 15 12.0881C15 10.4313 13.6569 9.08813 12 9.08813C10.3431 9.08813 9 10.4313 9 12.0881C9 13.745 10.3431 15.0881 12 15.0881Z" stroke="#FB625B" stroke-width="1.5" stroke-linecap="round" stroke-linejoin="round"/>
<path fill-rule="evenodd" clip-rule="evenodd" d="M1.026 11.459C0.850218 11.6207 0.750191 11.8487 0.750191 12.0875C0.750191 12.3264 0.850218 12.5543 1.026 12.716L4.144 15.574C4.33687 15.7508 4.61597 15.797 4.85552 15.6918C5.09506 15.5865 5.2498 15.3497 5.25 15.088V9.08803C5.2506 8.82602 5.09615 8.58846 4.85643 8.48269C4.61672 8.37692 4.33714 8.42297 4.144 8.60003L1.026 11.459Z" stroke="#FB625B" stroke-width="1.5" stroke-linecap="round" stroke-linejoin="round"/>
<path fill-rule="evenodd" clip-rule="evenodd" d="M22.973 12.716C23.1493 12.5546 23.2498 12.3266 23.2498 12.0875C23.2498 11.8485 23.1493 11.6204 22.973 11.459L19.856 8.60003C19.663 8.42309 19.3837 8.37698 19.144 8.48249C18.9044 8.58801 18.7498 8.8252 18.75 9.08703V15.087C18.7497 15.3487 18.9042 15.5858 19.1437 15.6911C19.3832 15.7965 19.6624 15.7501 19.855 15.573L22.973 12.716Z" stroke="#FB625B" stroke-width="1.5" stroke-linecap="round" stroke-linejoin="round"/>
</svg>
