<svg width="24" height="25" viewBox="0 0 24 25" fill="none" xmlns="http://www.w3.org/2000/svg">
<path fill-rule="evenodd" clip-rule="evenodd" d="M12.09 15.998C13.7469 15.998 15.09 14.6549 15.09 12.998C15.09 11.3412 13.7469 9.99805 12.09 9.99805C10.4331 9.99805 9.09 11.3412 9.09 12.998C9.09 14.6549 10.4331 15.998 12.09 15.998Z" stroke="#FB625B" stroke-width="1.5" stroke-linecap="round" stroke-linejoin="round"/>
<path fill-rule="evenodd" clip-rule="evenodd" d="M12.718 2.0241C12.5563 1.84832 12.3284 1.74829 12.0895 1.74829C11.8507 1.74829 11.6227 1.84832 11.461 2.0241L8.6 5.1421C8.4227 5.3355 8.37679 5.61556 8.48307 5.85545C8.58935 6.09534 8.82763 6.24949 9.09 6.2481H15.09C15.3517 6.2479 15.5885 6.09316 15.6937 5.85362C15.799 5.61407 15.7528 5.33497 15.576 5.1421L12.718 2.0241Z" stroke="#FB625B" stroke-width="1.5" stroke-linecap="round" stroke-linejoin="round"/>
<path fill-rule="evenodd" clip-rule="evenodd" d="M11.461 23.9711C11.6224 24.1474 11.8504 24.2478 12.0895 24.2478C12.3285 24.2478 12.5566 24.1474 12.718 23.9711L15.576 20.8531C15.7531 20.6604 15.7994 20.3813 15.6941 20.1417C15.5887 19.9022 15.3517 19.7477 15.09 19.7481H9.09C8.82804 19.747 8.59026 19.901 8.48407 20.1405C8.37788 20.38 8.42337 20.6596 8.6 20.8531L11.461 23.9711Z" stroke="#FB625B" stroke-width="1.5" stroke-linecap="round" stroke-linejoin="round"/>
</svg>
