<svg width="24" height="24" viewBox="0 0 24 24" fill="none" xmlns="http://www.w3.org/2000/svg">
<path fill-rule="evenodd" clip-rule="evenodd" d="M17.174 8.25H4.561C3.7902 8.28165 3.1691 8.89281 3.125 9.663L1.125 21.505C1.06496 21.9306 1.18635 22.3619 1.45958 22.6937C1.73281 23.0254 2.13278 23.2273 2.562 23.25H19.173C19.6022 23.2273 20.0022 23.0254 20.2754 22.6937C20.5487 22.3619 20.67 21.9306 20.61 21.505L18.61 9.663C18.5659 8.89281 17.9448 8.28165 17.174 8.25Z" stroke="#FB625B" stroke-width="1.5" stroke-linecap="round" stroke-linejoin="round"/>
<path d="M14.553 5.307C14.215 3.53718 12.6698 2.25535 10.868 2.25V2.25C9.07337 2.2554 7.53215 3.52705 7.186 5.288" stroke="#FB625B" stroke-width="1.5" stroke-linecap="round" stroke-linejoin="round"/>
<path fill-rule="evenodd" clip-rule="evenodd" d="M20.618 0.75L18.368 3V5.25H20.618L22.868 3L20.618 0.75V0.75Z" stroke="#FB625B" stroke-width="1.5" stroke-linecap="round" stroke-linejoin="round"/>
</svg>
