<svg width="24" height="24" viewBox="0 0 24 24" fill="none" xmlns="http://www.w3.org/2000/svg">
<path fill-rule="evenodd" clip-rule="evenodd" d="M4.785 0.75C4.37579 0.758401 4.0167 1.02481 3.89 1.414L2.376 5.691C2.21298 6.1526 2.20805 6.6553 2.362 7.12C2.69648 8.21694 3.69747 8.97514 4.844 9C6.35387 8.94251 7.53246 7.67401 7.479 6.164C7.42554 7.67401 8.60413 8.94251 10.114 9C11.624 8.94251 12.8029 7.67418 12.75 6.164C12.6965 7.67401 13.8751 8.94251 15.385 9C16.895 8.94251 18.0739 7.67418 18.021 6.164C17.9675 7.67401 19.1461 8.94251 20.656 9C21.8024 8.97483 22.8032 8.21675 23.138 7.12C23.2919 6.6553 23.287 6.1526 23.124 5.691L21.61 1.414C21.4824 1.02328 21.121 0.756593 20.71 0.75L4.785 0.75Z" stroke="#FB625B" stroke-width="1.5" stroke-linecap="round" stroke-linejoin="round"/>
<path d="M3.75 12V8.74402" stroke="#FB625B" stroke-width="1.5" stroke-linecap="round" stroke-linejoin="round"/>
<path d="M21.75 8.74402V19.5C21.75 20.3284 21.0784 21 20.25 21H15.75" stroke="#FB625B" stroke-width="1.5" stroke-linecap="round" stroke-linejoin="round"/>
<path fill-rule="evenodd" clip-rule="evenodd" d="M3.75 22.5C4.01357 22.5042 4.27545 22.5429 4.529 22.615L6.346 23.134C6.61357 23.2109 6.89059 23.25 7.169 23.25H9.612C11.1527 23.25 12.4429 22.083 12.597 20.55L12.747 18C12.8036 16.9253 12.091 15.9612 11.047 15.7L10.319 15.54C9.98518 15.4569 9.75091 15.157 9.751 14.813V13.125C9.751 12.5037 9.24732 12 8.626 12C8.00468 12 7.501 12.5037 7.501 13.125V13.9C7.501 15.9711 5.82207 17.65 3.751 17.65L3.75 22.5Z" stroke="#FB625B" stroke-width="1.5" stroke-linecap="round" stroke-linejoin="round"/>
<path d="M0.75 16.5H3.75V23.25H0.75" stroke="#FB625B" stroke-width="1.5" stroke-linecap="round" stroke-linejoin="round"/>
</svg>
