<svg width="24" height="24" viewBox="0 0 24 24" fill="none" xmlns="http://www.w3.org/2000/svg">
<path fill-rule="evenodd" clip-rule="evenodd" d="M11.564 13.768C11.6471 13.6037 11.8155 13.5002 11.9995 13.5002C12.1836 13.5002 12.352 13.6037 12.435 13.768L13.448 15.81C13.5193 15.9521 13.6556 16.0503 13.813 16.073L16.085 16.401C16.2664 16.4264 16.4179 16.5523 16.476 16.726C16.5328 16.8987 16.4858 17.0887 16.355 17.215L14.705 18.815C14.5925 18.9241 14.5409 19.0815 14.567 19.236L14.956 21.491C14.987 21.6711 14.9114 21.8529 14.762 21.958C14.6117 22.0646 14.4144 22.0781 14.251 21.993L12.227 20.934C12.0847 20.86 11.9153 20.86 11.773 20.934L9.74901 21.993C9.5856 22.0781 9.38828 22.0646 9.23801 21.958C9.08857 21.8529 9.01305 21.6711 9.04401 21.491L9.43201 19.236C9.45853 19.0817 9.40728 18.9242 9.29501 18.815L7.64501 17.215C7.51379 17.0889 7.46672 16.8987 7.52401 16.726C7.5816 16.5523 7.73277 16.4263 7.91401 16.401L10.186 16.073C10.3436 16.0503 10.4802 15.9521 10.552 15.81L11.564 13.768Z" stroke="#FB625B" stroke-width="1.5" stroke-linecap="round" stroke-linejoin="round"/>
<path d="M6 23.25H3.75C2.92157 23.25 2.25 22.5784 2.25 21.75V12.75" stroke="#FB625B" stroke-width="1.5" stroke-linecap="round" stroke-linejoin="round"/>
<path d="M21.75 12.75V21.75C21.75 22.5784 21.0784 23.25 20.25 23.25H18" stroke="#FB625B" stroke-width="1.5" stroke-linecap="round" stroke-linejoin="round"/>
<path fill-rule="evenodd" clip-rule="evenodd" d="M21.148 0.75H2.852C2.50038 0.749942 2.19579 0.993864 2.119 1.337L0.75 7.5C0.75 8.74264 1.75736 9.75 3 9.75C4.24264 9.75 5.25 8.74264 5.25 7.5C5.25 8.74264 6.25736 9.75 7.5 9.75C8.74264 9.75 9.75 8.74264 9.75 7.5C9.75 8.74264 10.7574 9.75 12 9.75C13.2426 9.75 14.25 8.74264 14.25 7.5C14.25 8.74264 15.2574 9.75 16.5 9.75C17.7426 9.75 18.75 8.74264 18.75 7.5C18.75 8.74264 19.7574 9.75 21 9.75C22.2426 9.75 23.25 8.74264 23.25 7.5L21.88 1.337C21.804 0.993808 21.4995 0.749658 21.148 0.75Z" stroke="#FB625B" stroke-width="1.5" stroke-linecap="round" stroke-linejoin="round"/>
</svg>
