<svg width="24" height="24" viewBox="0 0 24 24" fill="none" xmlns="http://www.w3.org/2000/svg">
<path fill-rule="evenodd" clip-rule="evenodd" d="M5.25 6.75C6.90685 6.75 8.25 5.40685 8.25 3.75C8.25 2.09315 6.90685 0.75 5.25 0.75C3.59315 0.75 2.25 2.09315 2.25 3.75C2.25 5.40685 3.59315 6.75 5.25 6.75Z" stroke="#FB625B" stroke-width="1.5" stroke-linecap="round" stroke-linejoin="round"/>
<path fill-rule="evenodd" clip-rule="evenodd" d="M7.5 23.25L8.25 15.75H9.75V12.75C9.75 10.2647 7.73528 8.25 5.25 8.25C2.76472 8.25 0.75 10.2647 0.75 12.75V15.75H2.25L3 23.25H7.5Z" stroke="#FB625B" stroke-width="1.5" stroke-linecap="round" stroke-linejoin="round"/>
<path d="M23.25 6.75C23.25 10.0637 20.5637 12.75 17.25 12.75C13.9363 12.75 11.25 10.0637 11.25 6.75C11.25 3.43629 13.9363 0.75 17.25 0.75" stroke="#FB625B" stroke-width="1.5" stroke-linecap="round" stroke-linejoin="round"/>
<path d="M23.25 2.24902L17.78 7.71902C17.6395 7.85972 17.4488 7.93878 17.25 7.93878C17.0512 7.93878 16.8605 7.85972 16.72 7.71902L15 6.00002" stroke="#FB625B" stroke-width="1.5" stroke-linecap="round" stroke-linejoin="round"/>
</svg>
