<svg width="24" height="24" viewBox="0 0 24 24" fill="none" xmlns="http://www.w3.org/2000/svg">
<path fill-rule="evenodd" clip-rule="evenodd" d="M12 23.2499C10.8283 23.0822 9.75989 22.4875 9 21.5799C8.33408 20.9152 7.38783 20.6134 6.46 20.7699L5.82 20.8799C5.37696 20.9673 4.92016 20.8204 4.61118 20.4911C4.3022 20.1617 4.1846 19.6965 4.3 19.2599C4.40325 18.8254 4.14843 18.3861 3.72 18.2599L1.72 17.8499C1.37907 17.7496 1.13657 17.4477 1.11204 17.0932C1.08751 16.7387 1.28614 16.4063 1.61 16.2599C2.52169 15.8855 3.38464 15.402 4.18 14.8199C4.53873 14.5516 4.74233 14.1239 4.72434 13.6763C4.70636 13.2287 4.4691 12.8186 4.09 12.5799L2.86 11.7999C2.52049 11.5825 2.28129 11.2391 2.19502 10.8452C2.10875 10.4514 2.18249 10.0394 2.4 9.69994C2.88555 8.99219 3.84305 8.79363 4.57 9.24994L5.89 10.0899V6.88994C6.02293 3.59797 8.73034 0.997681 12.025 0.997681C15.3197 0.997681 18.0271 3.59797 18.16 6.88994V10.0799L19.48 9.23994C20.2069 8.78363 21.1644 8.98219 21.65 9.68994C21.8675 10.0294 21.9412 10.4414 21.855 10.8352C21.7687 11.2291 21.5295 11.5725 21.19 11.7899L19.96 12.5699C19.5809 12.8086 19.3436 13.2187 19.3257 13.6663C19.3077 14.1139 19.5113 14.5416 19.87 14.8099C20.6654 15.392 21.5283 15.8755 22.44 16.2499C22.7639 16.3963 22.9625 16.7287 22.938 17.0832C22.9134 17.4377 22.6709 17.7396 22.33 17.8399L20.33 18.2499C19.9016 18.3761 19.6467 18.8154 19.75 19.2499C19.8576 19.6791 19.7412 20.1335 19.4408 20.4582C19.1403 20.7829 18.6962 20.934 18.26 20.8599L17.62 20.7499C16.6922 20.5934 15.7459 20.8952 15.08 21.5599C14.3038 22.4922 13.2033 23.0961 12 23.2499Z" stroke="#FB625B" stroke-width="1.5" stroke-linecap="round" stroke-linejoin="round"/>
</svg>
