<svg width="25" height="24" viewBox="0 0 25 24" fill="none" xmlns="http://www.w3.org/2000/svg">
<path d="M13 13.7101C12.5336 15.4323 10.9209 16.5896 9.14 16.4801C7.15075 16.4802 5.39962 15.1687 4.84032 13.2597C4.28101 11.3507 5.0475 9.30148 6.72233 8.22815C8.39717 7.15482 10.5792 7.31443 12.08 8.62006L14.28 6.48006C11.8147 4.1945 8.12966 3.82862 5.26306 5.5848C2.39645 7.34097 1.04863 10.7901 1.96505 14.0246C2.88147 17.259 5.83823 19.4886 9.2 19.4801C13.81 19.4801 16.2 15.8501 16.2 11.9801C16.2022 11.6458 16.1821 11.3117 16.14 10.9801H9.49V13.6701H13" stroke="#FB625B" stroke-width="1.5" stroke-linecap="round" stroke-linejoin="round"/>
<path d="M18.5 11.05H24.25" stroke="#FB625B" stroke-width="1.5" stroke-linecap="round" stroke-linejoin="round"/>
<path d="M21.38 8.17004V13.92" stroke="#FB625B" stroke-width="1.5" stroke-linecap="round" stroke-linejoin="round"/>
</svg>
