<svg width="24" height="24" viewBox="0 0 24 24" fill="none" xmlns="http://www.w3.org/2000/svg">
<path fill-rule="evenodd" clip-rule="evenodd" d="M3.73 3.75C3.73 2.09315 5.07315 0.75 6.73 0.75C8.38685 0.75 9.73 2.09315 9.73 3.75V5.75H17.28C18.9369 5.75 20.28 7.09315 20.28 8.75C20.28 10.4069 18.9369 11.75 17.28 11.75H9.73V14.25C9.73 15.9069 11.0731 17.25 12.73 17.25H17.28C18.9369 17.25 20.28 18.5931 20.28 20.25C20.28 21.9069 18.9369 23.25 17.28 23.25H11.73C7.31172 23.25 3.73 19.6683 3.73 15.25L3.73 3.75Z" stroke="#FB625B" stroke-width="1.5" stroke-linecap="round" stroke-linejoin="round"/>
</svg>
