<svg width="25" height="24" viewBox="0 0 25 24" fill="none" xmlns="http://www.w3.org/2000/svg">
<path d="M12.62 13.1L12.2184 13.7335C12.2285 13.7399 12.2388 13.7461 12.2493 13.752L12.62 13.1ZM11.22 11.6H10.47C10.47 11.7247 10.5011 11.8474 10.5604 11.9571L11.22 11.6ZM12.22 10.23L11.7935 9.61312C11.7869 9.6177 11.7803 9.62238 11.7739 9.62716L12.22 10.23ZM14.13 6.67004L13.3804 6.64373L13.3801 6.65583L14.13 6.67004ZM13.26 4.13004V3.38004C12.9689 3.38004 12.7042 3.54844 12.5808 3.81204C12.4573 4.07565 12.4976 4.38685 12.684 4.61038L13.26 4.13004ZM13.92 4.13004V4.88004C13.9606 4.88004 14.0012 4.87674 14.0413 4.87016L13.92 4.13004ZM14.18 4.00004L14.6993 4.54118C14.728 4.51361 14.7545 4.48378 14.7785 4.452L14.18 4.00004ZM15.29 2.53004L15.8885 2.982C15.9006 2.96603 15.912 2.94958 15.9227 2.9327L15.29 2.53004ZM15.42 1.99004L16.1384 1.77453C16.1351 1.76355 16.1315 1.75264 16.1277 1.74181L15.42 1.99004ZM15 1.67004L15.0515 0.921813C15.0343 0.920634 15.0172 0.920044 15 0.920044V1.67004ZM8.86 1.67004L8.86 0.92002L8.85403 0.920068L8.86 1.67004ZM6.86 2.02004L7.06635 2.7411C7.08072 2.73699 7.09497 2.73244 7.10908 2.72748L6.86 2.02004ZM3.08 6.62004L2.33262 6.55739C2.33092 6.57767 2.33005 6.59801 2.33 6.61836L3.08 6.62004ZM4.54677 10.1272L5.07226 9.59209L5.07226 9.59209L4.54677 10.1272ZM8.08 11.53L8.80457 11.7237C8.86544 11.4959 8.81566 11.2528 8.67017 11.0672C8.52468 10.8817 8.30041 10.7754 8.06469 10.7802L8.08 11.53ZM8.33 13.39V14.14C8.59858 14.14 8.84667 13.9964 8.98041 13.7635C9.11415 13.5306 9.11312 13.2439 8.97773 13.012L8.33 13.39ZM2.11 16.71L2.78376 17.0397L2.78815 17.0304L2.11 16.71ZM1.74 18.26L0.989996 18.2498L0.989998 18.2602L1.74 18.26ZM2.12 19.7L1.4676 20.07C1.47752 20.0875 1.48813 20.1046 1.49942 20.1212L2.12 19.7ZM5.68 22L5.86182 21.2724C5.84431 21.268 5.82664 21.2643 5.80886 21.2612L5.68 22ZM8.48 22.34L8.48572 21.59L8.47761 21.59L8.48 22.34ZM11 22L11.2043 22.7217L11.2084 22.7205L11 22ZM15 17.46L14.2511 17.4192C14.2504 17.4328 14.25 17.4464 14.25 17.46H15ZM8.3 19.6L8.29452 20.35H8.3V19.6ZM7.31 4.82004L6.73945 4.33325C6.72939 4.34504 6.7197 4.35714 6.71039 4.36953L7.31 4.82004ZM8.19 4.42004L8.32903 3.68304C8.28595 3.67492 8.24223 3.67058 8.19839 3.67009L8.19 4.42004ZM10.28 6.81004L9.53104 6.84957C9.53273 6.88159 9.53647 6.91347 9.54224 6.94501L10.28 6.81004ZM9.85 8.63004L10.4031 9.1366C10.4194 9.11879 10.4348 9.10021 10.4493 9.08092L9.85 8.63004ZM9 9.00004L9.00612 8.25004H9V9.00004ZM6.9 6.60004L7.64357 6.50205C7.64159 6.48704 7.63916 6.47209 7.63628 6.45723L6.9 6.60004ZM13.0216 12.4666C12.5427 12.163 12.1495 11.7417 11.8796 11.243L10.5604 11.9571C10.9523 12.6811 11.5231 13.2926 12.2184 13.7335L13.0216 12.4666ZM11.97 11.6C11.97 11.4787 11.972 11.452 11.9748 11.4359C11.9751 11.434 11.9746 11.4372 11.9728 11.4419C11.9711 11.4462 11.9712 11.4442 11.9776 11.4342C12.0202 11.3673 12.1652 11.2036 12.6661 10.8329L11.7739 9.62716C11.2748 9.99647 10.9198 10.3028 10.7124 10.6284C10.4598 11.0249 10.47 11.3827 10.47 11.6H11.97ZM12.6465 10.847C14.0172 9.89938 14.8483 8.35028 14.8799 6.68426L13.3801 6.65583C13.3577 7.83941 12.7672 8.93993 11.7935 9.61312L12.6465 10.847ZM14.8795 6.69636C14.9185 5.58699 14.5469 4.50223 13.836 3.64971L12.684 4.61038C13.1585 5.17936 13.4065 5.90333 13.3805 6.64373L14.8795 6.69636ZM13.26 4.88004H13.92V3.38004H13.26V4.88004ZM14.0413 4.87016C14.2889 4.82958 14.5183 4.71487 14.6993 4.54118L13.6607 3.4589C13.6987 3.42249 13.7468 3.39843 13.7987 3.38992L14.0413 4.87016ZM14.7785 4.452L15.8885 2.982L14.6915 2.07809L13.5815 3.54809L14.7785 4.452ZM15.9227 2.9327C15.9935 2.82153 16.0983 2.6524 16.1536 2.44988C16.2193 2.20903 16.2013 1.98417 16.1384 1.77453L14.7016 2.20556C14.7024 2.20828 14.6964 2.18919 14.6952 2.15521C14.6946 2.13836 14.6952 2.12042 14.6974 2.10209C14.6996 2.08385 14.7029 2.06801 14.7064 2.05521C14.7131 2.03066 14.7191 2.02204 14.7116 2.03641C14.7035 2.05213 14.6881 2.0789 14.6573 2.12739L15.9227 2.9327ZM16.1277 1.74181C15.965 1.27799 15.5418 0.955551 15.0515 0.921813L14.9485 2.41828C14.8409 2.41087 14.748 2.34009 14.7123 2.23828L16.1277 1.74181ZM15 0.920044H8.86V2.42004H15V0.920044ZM8.85403 0.920068C8.08978 0.926149 7.33182 1.05879 6.61092 1.31261L7.10908 2.72748C7.67371 2.52867 8.26738 2.42478 8.86597 2.42002L8.85403 0.920068ZM6.65365 1.29899C4.26069 1.98379 2.54056 4.07707 2.33262 6.55739L3.82738 6.6827C3.98325 4.8235 5.27262 3.25442 7.06635 2.7411L6.65365 1.29899ZM2.33 6.61836C2.32658 8.13902 2.93628 9.59687 4.02128 10.6623L5.07226 9.59209C4.27532 8.80949 3.82748 7.73868 3.83 6.62173L2.33 6.61836ZM4.02128 10.6623C5.10627 11.7278 6.57495 12.3109 8.09531 12.2799L8.06469 10.7802C6.94797 10.803 5.86921 10.3747 5.07226 9.59209L4.02128 10.6623ZM7.35543 11.3364C7.13582 12.1581 7.25349 13.0335 7.68227 13.7681L8.97773 13.012C8.75056 12.6228 8.68823 12.159 8.80457 11.7237L7.35543 11.3364ZM8.33 12.64H8.22V14.14H8.33V12.64ZM8.22 12.64C5.29348 12.64 2.52788 14.0694 1.43185 16.3897L2.78815 17.0304C3.57211 15.3707 5.70651 14.14 8.22 14.14V12.64ZM1.4363 16.3804C1.15131 16.963 0.998915 17.6014 0.990068 18.2498L2.48993 18.2703C2.49575 17.8434 2.59608 17.4231 2.78369 17.0396L1.4363 16.3804ZM0.989998 18.2602C0.990088 18.8946 1.15464 19.5181 1.4676 20.07L2.7724 19.3301C2.58735 19.0038 2.49005 18.6351 2.49 18.2599L0.989998 18.2602ZM1.49942 20.1212C2.43963 21.5066 3.90173 22.4512 5.55113 22.7389L5.80886 21.2612C4.5598 21.0433 3.45258 20.328 2.74058 19.2789L1.49942 20.1212ZM5.49818 22.7277C6.47408 22.9715 7.47649 23.0932 8.48239 23.09L8.47761 21.59C7.59589 21.5929 6.71724 21.4862 5.86182 21.2724L5.49818 22.7277ZM8.47427 23.09C9.39712 23.0971 10.3163 22.973 11.2043 22.7217L10.7957 21.2784C10.0444 21.4911 9.26659 21.596 8.48572 21.5901L8.47427 23.09ZM11.2084 22.7205C13.8498 21.9565 15.75 19.9472 15.75 17.46H14.25C14.25 19.0929 12.9902 20.6436 10.7916 21.2796L11.2084 22.7205ZM15.7489 17.5009C15.8618 15.4299 14.7937 13.4732 12.9907 12.4481L12.2493 13.752C13.5578 14.4961 14.333 15.9162 14.2511 17.4192L15.7489 17.5009ZM6.57 17.73C6.57 17.5766 6.67247 17.328 7.05612 17.0798C7.42854 16.8388 7.97394 16.67 8.58 16.67V15.17C7.71606 15.17 6.88146 15.4062 6.24137 15.8203C5.61253 16.2271 5.07 16.8835 5.07 17.73H6.57ZM8.58 16.67C8.92975 16.67 9.41253 16.8303 9.81105 17.1094C10.237 17.4077 10.35 17.6792 10.35 17.79H11.85C11.85 16.9408 11.238 16.2774 10.6714 15.8807C10.0775 15.4648 9.30024 15.17 8.58 15.17V16.67ZM10.35 17.79C10.35 18.1586 10.2254 18.3631 9.99006 18.5154C9.7001 18.703 9.17129 18.85 8.3 18.85V20.35C9.28871 20.35 10.1599 20.1921 10.8049 19.7747C11.5046 19.322 11.85 18.6215 11.85 17.79H10.35ZM8.30547 18.8501C7.76267 18.8461 7.3027 18.6809 6.99598 18.4511C6.69116 18.2227 6.57 17.9627 6.57 17.73H5.07C5.07 18.5374 5.50383 19.2074 6.09652 19.6515C6.6873 20.0942 7.46732 20.344 8.29452 20.35L8.30547 18.8501ZM7.88055 5.30684C7.95564 5.21883 8.06592 5.1687 8.1816 5.17L8.19839 3.67009C7.63779 3.66382 7.10333 3.90675 6.73945 4.33325L7.88055 5.30684ZM8.05096 5.15704C8.87549 5.31259 9.48682 6.01167 9.53104 6.84957L11.029 6.77051C10.9483 5.24203 9.83311 3.96679 8.32903 3.68304L8.05096 5.15704ZM9.54224 6.94501C9.62165 7.37906 9.51592 7.82655 9.25065 8.17917L10.4493 9.08092C10.9664 8.39353 11.1725 7.52121 11.0178 6.67508L9.54224 6.94501ZM9.29691 8.12349C9.22229 8.20497 9.11661 8.25097 9.00612 8.25007L8.99387 9.75002C9.52929 9.75439 10.0414 9.53146 10.4031 9.1366L9.29691 8.12349ZM9 8.25004C8.7844 8.25004 8.49276 8.12535 8.20647 7.79371C7.92591 7.4687 7.70998 7.00597 7.64357 6.50205L6.15643 6.69803C6.26002 7.48412 6.59408 8.22139 7.07102 8.77388C7.54223 9.31974 8.2156 9.75004 9 9.75004V8.25004ZM7.63628 6.45723C7.5555 6.04082 7.65481 5.60968 7.90961 5.27056L6.71039 4.36953C6.2008 5.04776 6.00218 5.91004 6.16372 6.74286L7.63628 6.45723Z" fill="#FB625B"/>
<path fill-rule="evenodd" clip-rule="evenodd" d="M24.25 9.42004H21.5V6.67004H19V9.42004H16.25V11.92H19V14.67H21.5V11.92H24.25V9.42004V9.42004Z" stroke="#FB625B" stroke-width="1.5" stroke-linecap="round" stroke-linejoin="round"/>
</svg>
