<svg width="25" height="24" viewBox="0 0 25 24" fill="none" xmlns="http://www.w3.org/2000/svg">
<rect x="1.74001" y="0.75" width="22.5" height="22.5" rx="6" stroke="#FB625B" stroke-width="1.5" stroke-linecap="round" stroke-linejoin="round"/>
<path fill-rule="evenodd" clip-rule="evenodd" d="M12.99 17C15.7514 17 17.99 14.7614 17.99 12C17.99 9.23858 15.7514 7 12.99 7C10.2286 7 7.99001 9.23858 7.99001 12C7.99001 14.7614 10.2286 17 12.99 17Z" stroke="#FB625B" stroke-width="1.5" stroke-linecap="round" stroke-linejoin="round"/>
<path d="M20.34 5.15002C20.34 5.42617 20.1162 5.65002 19.84 5.65002C19.5639 5.65002 19.34 5.42617 19.34 5.15002" stroke="#FB625B" stroke-width="1.5" stroke-linecap="round" stroke-linejoin="round"/>
<path d="M19.34 5.15002C19.34 4.87388 19.5639 4.65002 19.84 4.65002C20.1162 4.65002 20.34 4.87388 20.34 5.15002" stroke="#FB625B" stroke-width="1.5" stroke-linecap="round" stroke-linejoin="round"/>
</svg>
