<svg xmlns="http://www.w3.org/2000/svg" width="32" height="32" fill="none" viewBox="0 0 32 32">
    <circle cx="16" cy="16" r="15" stroke="#D93D33" stroke-width="2"/>
    <path fill="#D93D33" d="M16.126 22.216c2.34 0 3.888-1.35 3.888-3.114 0-1.53-.918-2.376-1.98-2.988v-.072c.756-.522 1.548-1.476 1.548-2.61 0-1.854-1.332-3.096-3.384-3.096-1.998 0-3.474 1.188-3.474 3.06 0 1.206.702 2.034 1.566 2.664v.072c-1.08.576-2.052 1.512-2.052 2.934 0 1.854 1.656 3.15 3.888 3.15zm.756-6.696c-1.26-.504-2.268-1.008-2.268-2.124 0-.99.684-1.548 1.548-1.548 1.044 0 1.656.72 1.656 1.71 0 .72-.342 1.368-.936 1.962zm-.702 5.184c-1.17 0-2.07-.738-2.07-1.854 0-.864.504-1.602 1.188-2.124 1.548.63 2.736 1.08 2.736 2.304 0 1.044-.774 1.674-1.854 1.674z"/>
</svg>
