<svg xmlns="http://www.w3.org/2000/svg" width="32" height="32" fill="none" viewBox="0 0 32 32">
    <circle cx="16" cy="16" r="15" stroke="#D93D33" stroke-width="2"/>
    <path fill="#D93D33" d="M15.82 22.216c2.214 0 4.05-1.224 4.05-3.312 0-1.512-1.026-2.484-2.376-2.844v-.072c1.242-.486 1.98-1.35 1.98-2.628 0-1.926-1.512-3.024-3.708-3.024-1.386 0-2.484.576-3.474 1.44l1.098 1.314c.702-.648 1.404-1.062 2.286-1.062 1.044 0 1.656.558 1.656 1.494 0 1.044-.72 1.8-2.952 1.8v1.548c2.592 0 3.348.756 3.348 1.926 0 1.062-.864 1.692-2.088 1.692-1.134 0-2.016-.558-2.7-1.242l-1.008 1.35c.81.918 2.034 1.62 3.888 1.62z"/>
</svg>
