<svg xmlns="http://www.w3.org/2000/svg" width="32" height="32" fill="none" viewBox="0 0 32 32">
    <circle cx="16" cy="16" r="15" stroke="#D93D33" stroke-width="2"/>
    <path fill="#D93D33" d="M16.342 16.438c1.098 0 1.764.684 1.764 2.016 0 1.386-.738 2.142-1.674 2.142-1.098 0-1.908-.846-2.124-2.844.576-.918 1.368-1.314 2.034-1.314zm.108 5.778c1.98 0 3.618-1.476 3.618-3.762 0-2.394-1.368-3.546-3.33-3.546-.828 0-1.818.504-2.484 1.332.09-3.114 1.26-4.176 2.664-4.176.702 0 1.404.378 1.836.864l1.134-1.296c-.684-.72-1.692-1.296-3.078-1.296-2.358 0-4.518 1.854-4.518 6.282 0 3.87 1.926 5.598 4.158 5.598z"/>
</svg>
