<svg xmlns="http://www.w3.org/2000/svg" width="32" height="32" fill="none" viewBox="0 0 32 32">
    <circle cx="16" cy="16" r="15" stroke="#D93D33" stroke-width="2"/>
    <path fill="#D93D33" d="M15.838 22.216c2.124 0 4.05-1.44 4.05-3.942 0-2.466-1.638-3.582-3.6-3.582-.576 0-1.008.126-1.494.36l.252-2.7h4.302v-1.8h-6.156l-.342 5.652 1.008.648c.684-.45 1.098-.63 1.818-.63 1.242 0 2.07.756 2.07 2.106 0 1.35-.9 2.16-2.178 2.16-1.134 0-1.98-.576-2.664-1.224l-.972 1.368c.846.846 2.052 1.584 3.906 1.584z"/>
</svg>
