<svg width="24" height="25" viewBox="0 0 24 25" fill="none" xmlns="http://www.w3.org/2000/svg">
<path fill-rule="evenodd" clip-rule="evenodd" d="M12.4 5.144L20.25 3L12.4 0.859003C12.1413 0.788993 11.8687 0.788993 11.61 0.859003L3.75 3L11.605 5.143C11.8652 5.21425 12.1397 5.21459 12.4 5.144Z" stroke="#FB625B" stroke-width="1.5" stroke-linecap="round" stroke-linejoin="round"/>
<path d="M17.25 7.154V3.82" stroke="#FB625B" stroke-width="1.5" stroke-linecap="round" stroke-linejoin="round"/>
<path d="M7.5 4.024V6.847" stroke="#FB625B" stroke-width="1.5" stroke-linecap="round" stroke-linejoin="round"/>
<path d="M3.75 3.001V6.001" stroke="#FB625B" stroke-width="1.5" stroke-linecap="round" stroke-linejoin="round"/>
<path fill-rule="evenodd" clip-rule="evenodd" d="M8.25 12.751C9.90685 12.751 11.25 11.4079 11.25 9.751C11.25 8.09415 9.90685 6.751 8.25 6.751C6.59315 6.751 5.25 8.09415 5.25 9.751C5.25 11.4079 6.59315 12.751 8.25 12.751Z" stroke="#FB625B" stroke-width="1.5" stroke-linecap="round" stroke-linejoin="round"/>
<path d="M8.25 9.37601C8.04289 9.37601 7.875 9.5439 7.875 9.75101" stroke="#FB625B" stroke-width="1.5" stroke-linecap="round" stroke-linejoin="round"/>
<path d="M8.625 9.75101C8.625 9.5439 8.45711 9.37601 8.25 9.37601" stroke="#FB625B" stroke-width="1.5" stroke-linecap="round" stroke-linejoin="round"/>
<path d="M8.25 10.126C8.45711 10.126 8.625 9.95811 8.625 9.75101" stroke="#FB625B" stroke-width="1.5" stroke-linecap="round" stroke-linejoin="round"/>
<path d="M7.875 9.75101C7.875 9.95811 8.04289 10.126 8.25 10.126" stroke="#FB625B" stroke-width="1.5" stroke-linecap="round" stroke-linejoin="round"/>
<path fill-rule="evenodd" clip-rule="evenodd" d="M15.75 12.751C17.4069 12.751 18.75 11.4079 18.75 9.751C18.75 8.09415 17.4069 6.751 15.75 6.751C14.0931 6.751 12.75 8.09415 12.75 9.751C12.75 11.4079 14.0931 12.751 15.75 12.751Z" stroke="#FB625B" stroke-width="1.5" stroke-linecap="round" stroke-linejoin="round"/>
<path d="M15.75 9.37601C15.5429 9.37601 15.375 9.5439 15.375 9.75101" stroke="#FB625B" stroke-width="1.5" stroke-linecap="round" stroke-linejoin="round"/>
<path d="M16.125 9.75101C16.125 9.5439 15.9571 9.37601 15.75 9.37601" stroke="#FB625B" stroke-width="1.5" stroke-linecap="round" stroke-linejoin="round"/>
<path d="M15.75 10.126C15.9571 10.126 16.125 9.95811 16.125 9.75101" stroke="#FB625B" stroke-width="1.5" stroke-linecap="round" stroke-linejoin="round"/>
<path d="M15.375 9.75101C15.375 9.95811 15.5429 10.126 15.75 10.126" stroke="#FB625B" stroke-width="1.5" stroke-linecap="round" stroke-linejoin="round"/>
<path d="M9.48399 12.486L12 15.001L14.516 12.486" stroke="#FB625B" stroke-width="1.5" stroke-linecap="round" stroke-linejoin="round"/>
<path d="M18 15V17.337C18 20.6507 15.3137 23.337 12 23.337C8.68629 23.337 6 20.6507 6 17.337V15" stroke="#FB625B" stroke-width="1.5" stroke-linecap="round" stroke-linejoin="round"/>
<path d="M18.225 11.447C19.1117 11.3348 20.004 11.6068 20.6774 12.1944C21.3508 12.782 21.7411 13.6293 21.75 14.523V16.588C21.7361 18.0526 21.1072 19.4439 20.0169 20.4219C18.9267 21.4 17.4755 21.8747 16.018 21.73" stroke="#FB625B" stroke-width="1.5" stroke-linecap="round" stroke-linejoin="round"/>
<path d="M5.657 11.262C4.78002 11.1899 3.91288 11.488 3.26564 12.0842C2.6184 12.6803 2.25012 13.5201 2.25 14.4V16.5C2.2497 17.9765 2.87102 19.3849 3.96173 20.3801C5.05243 21.3752 6.51172 21.8652 7.982 21.73" stroke="#FB625B" stroke-width="1.5" stroke-linecap="round" stroke-linejoin="round"/>
</svg>
