<svg xmlns="http://www.w3.org/2000/svg" width="32" height="32" fill="none" viewBox="0 0 32 32">
    <g clip-path="url(#clip0)">
        <path fill="#fff" d="M30.541 14.325L3.357.732c-.31-.154-.652-.226-.997-.21-.345.016-.68.12-.973.301-.294.182-.536.435-.705.736-.168.302-.257.64-.257.986v27.184c0 .346.089.685.257.986.168.301.41.555.704.736.294.182.63.285.974.3.345.016.688-.056.997-.21L30.54 17.95c.337-.169.62-.427.817-.748.198-.32.303-.689.303-1.065s-.105-.745-.303-1.065c-.197-.32-.48-.579-.817-.747z"/>
    </g>
    <defs>
        <clipPath id="clip0">
            <path fill="#fff" d="M0 0H31.236V31.236H0z" transform="translate(.425 .519)"/>
        </clipPath>
    </defs>
</svg>
