<svg width="24" height="24" viewBox="0 0 24 24" fill="none" xmlns="http://www.w3.org/2000/svg">
<path d="M13.354 11.233L11.916 12.671C11.4614 13.126 11.3936 13.8396 11.7543 14.3721C12.115 14.9046 12.8028 15.1064 13.394 14.853L15.436 13.977C16.027 13.7247 16.714 13.9268 17.0742 14.459C17.4345 14.9912 17.3669 15.704 16.913 16.159L15.476 17.6" stroke="#FB625B" stroke-width="1.5" stroke-linecap="round" stroke-linejoin="round"/>
<path d="M12.294 12.294L11.763 11.763" stroke="#FB625B" stroke-width="1.5" stroke-linecap="round" stroke-linejoin="round"/>
<path d="M17.067 17.066L16.536 16.536" stroke="#FB625B" stroke-width="1.5" stroke-linecap="round" stroke-linejoin="round"/>
<path d="M4.183 7.605L3.637 11.493C3.63495 11.8933 3.79301 12.2778 4.076 12.561L13.576 22.061C13.8573 22.3425 14.239 22.5007 14.637 22.5007C15.035 22.5007 15.4167 22.3425 15.698 22.061L22.061 15.7C22.6466 15.1143 22.6466 14.1648 22.061 13.579L12.438 3.953C12.1471 3.66198 11.7494 3.50326 11.338 3.514L7.5 4.122" stroke="#FB625B" stroke-width="1.5" stroke-linecap="round" stroke-linejoin="round"/>
<path fill-rule="evenodd" clip-rule="evenodd" d="M8.442 9.942C9.27043 9.942 9.942 9.27043 9.942 8.442C9.942 7.61357 9.27043 6.942 8.442 6.942C7.61357 6.942 6.942 7.61357 6.942 8.442C6.942 9.27043 7.61357 9.942 8.442 9.942Z" stroke="#FB625B" stroke-width="1.5" stroke-linecap="round" stroke-linejoin="round"/>
<path d="M7.382 7.382L1.5 1.5" stroke="#FB625B" stroke-width="1.5" stroke-linecap="round" stroke-linejoin="round"/>
</svg>
