<svg width="24" height="25" viewBox="0 0 24 25" fill="none" xmlns="http://www.w3.org/2000/svg">
<path fill-rule="evenodd" clip-rule="evenodd" d="M4.89971 21.6224C4.05764 22.4335 2.69237 22.4335 1.85029 21.6224C1.00822 20.8114 1.00822 19.4963 1.85029 18.6852L7.94913 12.8154L10.9985 15.7526L4.89971 21.6224Z" stroke="#FB625B" stroke-width="1.5" stroke-linecap="round" stroke-linejoin="round"/>
<path d="M18.1132 5.95691L9.47383 14.2794" stroke="#FB625B" stroke-width="1.5" stroke-linecap="round" stroke-linejoin="round"/>
<path fill-rule="evenodd" clip-rule="evenodd" d="M20.1458 5.95691C19.5845 6.49781 18.6743 6.49802 18.1127 5.95737C17.5512 5.41673 17.551 4.53996 18.1123 3.99906L20.6547 1.55383L22.6873 3.51168L20.1458 5.95691Z" stroke="#FB625B" stroke-width="1.5" stroke-linecap="round" stroke-linejoin="round"/>
<path d="M10.5529 8.49352L8.35834 6.37506C8.77191 5.37478 8.67446 4.24557 8.09509 3.32479C7.51573 2.40402 6.52153 1.7983 5.40954 1.6886C6.11915 2.77935 5.9527 4.1976 5.0082 5.10824C4.06369 6.01888 2.59144 6.18058 1.45834 5.49814C1.5746 6.56707 2.20364 7.52196 3.1582 8.07856C4.11276 8.63515 5.28277 8.72927 6.31996 8.33291L7.83029 9.78768" stroke="#FB625B" stroke-width="1.5" stroke-linecap="round" stroke-linejoin="round"/>
<path d="M14.1438 15.8689L15.8448 17.5074C15.2241 19.033 15.7994 20.7689 17.223 21.666C18.6467 22.5631 20.5284 22.3754 21.731 21.2165C22.9337 20.0575 23.1276 18.245 22.1956 16.8741C21.2635 15.5033 19.4611 14.95 17.8775 15.5486L15.4711 13.2307" stroke="#FB625B" stroke-width="1.5" stroke-linecap="round" stroke-linejoin="round"/>
<path d="M18.9335 18.5237C19.074 18.3888 19.3014 18.3889 19.4416 18.5241C19.5818 18.6593 19.5818 18.8783 19.4416 19.0134C19.3014 19.1486 19.074 19.1488 18.9335 19.0138C18.866 18.9489 18.828 18.8607 18.828 18.7688C18.828 18.6768 18.866 18.5886 18.9335 18.5237" stroke="#FB625B" stroke-width="1.5" stroke-linecap="round" stroke-linejoin="round"/>
</svg>
