<svg width="24" height="25" viewBox="0 0 24 25" fill="none" xmlns="http://www.w3.org/2000/svg">
<path fill-rule="evenodd" clip-rule="evenodd" d="M9.47701 24.247L5.62701 19.115C5.23744 18.5949 5.21781 17.8858 5.57801 17.345V17.345C5.81192 16.9948 6.17954 16.7561 6.59466 16.685C7.00977 16.6139 7.43586 16.7166 7.77301 16.969L9.47301 18.247V8.5C9.47301 7.67157 10.1446 7 10.973 7V7C11.8014 7 12.473 7.67157 12.473 8.5V14.5L16.647 15.428C18.1198 15.7552 19.1205 17.1254 18.984 18.628L18.473 24.25L9.47701 24.247Z" stroke="#FB625B" stroke-width="1.5" stroke-linecap="round" stroke-linejoin="round"/>
<path d="M10.977 3.99707V1.74707" stroke="#FB625B" stroke-width="1.5" stroke-linecap="round" stroke-linejoin="round"/>
<path d="M13.977 4.74707L15.477 3.24707" stroke="#FB625B" stroke-width="1.5" stroke-linecap="round" stroke-linejoin="round"/>
<path d="M7.97701 4.74707L6.47701 3.24707" stroke="#FB625B" stroke-width="1.5" stroke-linecap="round" stroke-linejoin="round"/>
<path d="M14.727 6.99707H16.977" stroke="#FB625B" stroke-width="1.5" stroke-linecap="round" stroke-linejoin="round"/>
<path d="M7.22701 6.99707H4.97701" stroke="#FB625B" stroke-width="1.5" stroke-linecap="round" stroke-linejoin="round"/>
</svg>
