<?xml version="1.0" encoding="utf-8"?>
<!-- Generator: Adobe Illustrator 23.1.0, SVG Export Plug-In . SVG Version: 6.00 Build 0)  -->
<svg version="1.1" id="Layer_1" xmlns="http://www.w3.org/2000/svg" xmlns:xlink="http://www.w3.org/1999/xlink" x="0px" y="0px"
	 viewBox="0 0 24 24" style="enable-background:new 0 0 24 24;" xml:space="preserve">
<style type="text/css">
	.st0{fill:none;stroke:#FB625B;stroke-width:1.5;stroke-linecap:round;stroke-linejoin:round;}
</style>
<path class="st0" d="M18.8,6.8h-2c-0.6,0-1.2,0.5-1.3,1.1s0.2,1.3,0.8,1.5l2.1,0.8c0.6,0.2,0.9,0.9,0.8,1.5s-0.7,1.1-1.3,1.1h-2"/>
<path class="st0" d="M17.3,6.8V6"/>
<path class="st0" d="M17.3,13.5v-0.8"/>
<path class="st0" d="M17.3,15.8c3.3,0,6-2.7,6-6s-2.7-6-6-6s-6,2.7-6,6C11.3,13.1,13.9,15.8,17.3,15.8z"/>
<path class="st0" d="M4.5,6c1.4,0,2.6-1.2,2.6-2.6S5.9,0.8,4.5,0.8S1.9,1.9,1.9,3.4S3.1,6,4.5,6z"/>
<path class="st0" d="M6.4,15.8l0.4-3h1.5v-2.3c0-2.1-1.7-3.8-3.8-3.8s-3.8,1.7-3.8,3.8v2.3h1.5l0.4,3"/>
<path class="st0" d="M0.8,18.8h22.5"/>
<path class="st0" d="M15,23.3H9l3-3.8L15,23.3L15,23.3z"/>
</svg>
