<?xml version="1.0" encoding="utf-8"?>
<!-- Generator: Adobe Illustrator 23.1.0, SVG Export Plug-In . SVG Version: 6.00 Build 0)  -->
<svg version="1.1" id="Layer_1" xmlns="http://www.w3.org/2000/svg" xmlns:xlink="http://www.w3.org/1999/xlink" x="0px" y="0px"
	 viewBox="0 0 24 24" style="enable-background:new 0 0 24 24;" xml:space="preserve">
<style type="text/css">
	.st0{fill:none;stroke:#FB625B;stroke-width:1.5;stroke-linecap:round;stroke-linejoin:round;}
</style>
<path class="st0" d="M3,5.3c1.2,0,2.3-1,2.3-2.3S4.2,0.8,3,0.8S0.8,1.8,0.8,3S1.8,5.3,3,5.3z"/>
<path class="st0" d="M4.8,4.3l1.9,1.4"/>
<path class="st0" d="M3,23.3c1.2,0,2.3-1,2.3-2.3s-1-2.3-2.3-2.3s-2.3,1-2.3,2.3S1.8,23.3,3,23.3z"/>
<path class="st0" d="M4.8,19.7l1.9-1.4"/>
<path class="st0" d="M21,5.3c1.2,0,2.3-1,2.3-2.3s-1-2.3-2.3-2.3s-2.3,1-2.3,2.3S19.8,5.3,21,5.3z"/>
<path class="st0" d="M19.2,4.3l-1.9,1.4"/>
<path class="st0" d="M21,23.3c1.2,0,2.3-1,2.3-2.3s-1-2.3-2.3-2.3s-2.3,1-2.3,2.3S19.8,23.3,21,23.3z"/>
<path class="st0" d="M19.2,19.7l-1.9-1.4"/>
<path class="st0" d="M12,10.5c1.4,0,2.6-1.2,2.6-2.6S13.4,5.3,12,5.3S9.4,6.4,9.4,7.9S10.6,10.5,12,10.5z"/>
<path class="st0" d="M7.5,15.8c0-2.5,2-4.5,4.5-4.5s4.5,2,4.5,4.5H7.5z"/>
</svg>
