<svg width="24" height="24" viewBox="0 0 24 24" fill="none" xmlns="http://www.w3.org/2000/svg">
<path d="M9 3.75H6.75V1.5C6.75 1.30109 6.67098 1.11032 6.53033 0.96967C6.38968 0.829018 6.19891 0.75 6 0.75H4.5C4.30109 0.75 4.11032 0.829018 3.96967 0.96967C3.82902 1.11032 3.75 1.30109 3.75 1.5V3.75H1.5C1.30109 3.75 1.11032 3.82902 0.96967 3.96967C0.829018 4.11032 0.75 4.30109 0.75 4.5V6C0.75 6.19891 0.829018 6.38968 0.96967 6.53033C1.11032 6.67098 1.30109 6.75 1.5 6.75H3.75V9C3.75 9.19891 3.82902 9.38968 3.96967 9.53033C4.11032 9.67098 4.30109 9.75 4.5 9.75H6C6.19891 9.75 6.38968 9.67098 6.53033 9.53033C6.67098 9.38968 6.75 9.19891 6.75 9V6.75H9C9.19891 6.75 9.38968 6.67098 9.53033 6.53033C9.67098 6.38968 9.75 6.19891 9.75 6V4.5C9.75 4.30109 9.67098 4.11032 9.53033 3.96967C9.38968 3.82902 9.19891 3.75 9 3.75Z" stroke="#FB625B" stroke-width="1.5" stroke-linecap="round" stroke-linejoin="round"/>
<path d="M14.25 20.25H5.25C4.45435 20.25 3.69129 19.9339 3.12868 19.3713C2.56607 18.8087 2.25 18.0457 2.25 17.25V15.75C2.25 14.9544 2.56607 14.1913 3.12868 13.6287C3.69129 13.0661 4.45435 12.75 5.25 12.75H12.9C13.4119 12.7497 13.9152 12.6188 14.3623 12.3696C14.8094 12.1204 15.1855 11.7612 15.455 11.326C15.6329 11.0338 15.7858 10.727 15.912 10.409C16.0798 9.99266 16.3683 9.63602 16.7403 9.38493C17.1124 9.13384 17.5511 8.99979 18 9C18.3012 8.9776 18.6037 9.02043 18.8869 9.12558C19.17 9.23073 19.4271 9.39572 19.6407 9.60929C19.8543 9.82287 20.0193 10.08 20.1244 10.3631C20.2296 10.6463 20.2724 10.9488 20.25 11.25C20.25 11.6478 20.408 12.0294 20.6893 12.3107C20.9706 12.592 21.3522 12.75 21.75 12.75C22.1478 12.75 22.5294 12.908 22.8107 13.1893C23.092 13.4706 23.25 13.8522 23.25 14.25C23.25 14.6478 23.092 15.0294 22.8107 15.3107C22.5294 15.592 22.1478 15.75 21.75 15.75H19.5L17.364 18.738C17.1016 19.1973 16.7225 19.5791 16.265 19.8446C15.8075 20.1102 15.288 20.25 14.759 20.25H14.25Z" stroke="#FB625B" stroke-width="1.5" stroke-linecap="round" stroke-linejoin="round"/>
<path d="M0.75 10.5C0.75 10.5 0.75 13.746 3.283 13.485" stroke="#FB625B" stroke-width="1.5" stroke-linecap="round" stroke-linejoin="round"/>
<path d="M14.25 20.25V23.25" stroke="#FB625B" stroke-width="1.5" stroke-linecap="round" stroke-linejoin="round"/>
<path d="M17.25 23.25L16.522 19.677" stroke="#FB625B" stroke-width="1.5" stroke-linecap="round" stroke-linejoin="round"/>
<path d="M3.75 19.849V23.25" stroke="#FB625B" stroke-width="1.5" stroke-linecap="round" stroke-linejoin="round"/>
<path d="M6.75 20.25V23.25" stroke="#FB625B" stroke-width="1.5" stroke-linecap="round" stroke-linejoin="round"/>
<path d="M18.488 17.166L14.105 12.496" stroke="#FB625B" stroke-width="1.5" stroke-linecap="round" stroke-linejoin="round"/>
</svg>
